<svg width="58" height="52" viewBox="0 0 58 52" fill="none" xmlns="http://www.w3.org/2000/svg">
<path d="M47.6876 16.8542C47.086 16.6455 46.4625 16.448 45.8206 16.2613C45.9261 15.8274 46.0229 15.3991 46.109 14.9781C47.5224 8.06479 46.5983 2.49541 43.4428 0.661735C40.417 -1.09652 35.4687 0.736743 30.4711 5.11942C29.9905 5.54086 29.5086 5.98705 29.0268 6.45468C28.7059 6.14528 28.3854 5.84629 28.0658 5.56031C22.8282 0.874065 17.5782 -1.10078 14.4258 0.738199C11.403 2.50155 10.5078 7.73729 11.78 14.289C11.9029 14.9219 12.0465 15.5681 12.2089 16.2252C11.4659 16.4377 10.7485 16.6643 10.0622 16.9054C3.92164 19.0627 0 22.4437 0 25.9508C0 29.5729 4.20989 33.2059 10.6058 35.4088C11.1105 35.5826 11.6342 35.747 12.174 35.903C11.9988 36.6137 11.8464 37.3101 11.7185 37.9893C10.5054 44.4273 11.4527 49.5394 14.4675 51.2916C17.5815 53.1011 22.8077 51.2412 27.8967 46.7586C28.2989 46.4043 28.7026 46.0285 29.107 45.6346C29.6311 46.1433 30.1544 46.6246 30.675 47.0761C35.6042 51.3505 40.4727 53.0765 43.4847 51.3194C46.5956 49.5046 47.6066 44.0131 46.294 37.3317C46.1938 36.8214 46.0771 36.3001 45.9461 35.7696C46.3131 35.6602 46.6734 35.5473 47.0247 35.43C53.6739 33.21 58 29.6212 58 25.9508C58 22.431 53.9519 19.0272 47.6876 16.8542ZM46.2455 33.06C45.9283 33.1658 45.6029 33.2681 45.2713 33.3672C44.5373 31.0256 43.5466 28.5356 42.3343 25.9629C43.4912 23.4516 44.4436 20.9934 45.157 18.6669C45.7504 18.8399 46.3262 19.0224 46.8811 19.215C52.2483 21.0768 55.5223 23.8296 55.5223 25.9508C55.5223 28.2101 51.9865 31.1431 46.2455 33.06ZM43.8634 37.8166C44.4438 40.771 44.5267 43.4422 44.1422 45.5303C43.7968 47.4066 43.1021 48.6576 42.2431 49.1586C40.4153 50.2248 36.5064 48.8389 32.2909 45.1834C31.8076 44.7644 31.3208 44.317 30.8325 43.8434C32.4668 42.0423 34.1001 39.9484 35.6942 37.623C38.4981 37.3723 41.1471 36.9624 43.5494 36.4028C43.6677 36.8837 43.7728 37.3554 43.8634 37.8166ZM19.7735 48.9744C17.9877 49.6099 16.5654 49.6281 15.7056 49.1286C13.8761 48.0652 13.1155 43.9608 14.153 38.4549C14.2718 37.8244 14.4132 37.1767 14.5762 36.5146C16.9522 37.0441 19.5818 37.425 22.3924 37.6546C23.9972 39.9301 25.6778 42.0217 27.3713 43.8531C27.0013 44.213 26.6327 44.5557 26.2662 44.8786C24.0159 46.8608 21.7609 48.2671 19.7735 48.9744ZM11.4071 33.0462C8.57897 32.0721 6.24339 30.8062 4.64246 29.4247C3.20393 28.1833 2.47764 26.9508 2.47764 25.9508C2.47764 23.8226 5.62633 21.1081 10.8778 19.263C11.515 19.0392 12.182 18.8282 12.8742 18.63C13.6 21.009 14.5521 23.4963 15.701 26.0115C14.5372 28.5641 13.5716 31.091 12.8387 33.4979C12.3452 33.355 11.8671 33.2045 11.4071 33.0462ZM14.2116 13.8096C13.1216 8.19618 13.8455 3.96164 15.6672 2.89906C17.6076 1.76708 21.8983 3.38104 26.4206 7.42738C26.7096 7.686 26.9998 7.9567 27.2909 8.23675C25.6057 10.0601 23.9406 12.136 22.3499 14.3981C19.6222 14.6528 17.011 15.0621 14.6103 15.6102C14.4594 14.9983 14.3257 14.3972 14.2116 13.8096ZM39.2302 20.0348C38.6563 19.0358 38.0671 18.0605 37.4664 17.1119C39.317 17.3476 41.09 17.6605 42.7551 18.0435C42.2552 19.6578 41.6321 21.3458 40.8987 23.0761C40.3726 22.0696 39.8162 21.0548 39.2302 20.0348ZM29.0277 10.0211C30.1705 11.2688 31.315 12.6618 32.4408 14.1732C31.3064 14.1192 30.1579 14.0911 29 14.0911C27.853 14.0911 26.713 14.1185 25.5857 14.1716C26.7125 12.6743 27.8669 11.2831 29.0277 10.0211ZM18.7598 20.052C18.1865 21.0538 17.6404 22.0631 17.1225 23.0743C16.401 21.3499 15.7837 19.6543 15.2795 18.017C16.9343 17.6439 18.699 17.3388 20.5378 17.1075C19.9287 18.0649 19.3346 19.0476 18.7598 20.052ZM20.5908 34.9721C18.6909 34.7586 16.8997 34.4691 15.2453 34.1063C15.7576 32.4398 16.3885 30.708 17.1253 28.9465C17.6445 29.957 18.1928 30.9667 18.7696 31.9706C19.3571 32.9933 19.9659 33.9952 20.5908 34.9721ZM29.0962 42.0564C27.9219 40.7797 26.7505 39.3673 25.6065 37.8481C26.7171 37.892 27.8493 37.9145 29 37.9145C30.1822 37.9145 31.3509 37.8877 32.5012 37.8361C31.3717 39.3826 30.2313 40.7971 29.0962 42.0564ZM40.9224 28.8567C41.6976 30.6372 42.3511 32.36 42.87 33.9981C41.1883 34.3847 39.3727 34.696 37.4596 34.9274C38.0617 33.9659 38.6561 32.9739 39.2401 31.9534C39.8309 30.921 40.3919 29.887 40.9224 28.8567ZM37.0938 30.7061C36.1872 32.2902 35.2564 33.8024 34.3115 35.2298C32.5904 35.3538 30.8123 35.4177 29 35.4177C27.1951 35.4177 25.4394 35.3612 23.7487 35.2506C22.7657 33.8045 21.8147 32.2878 20.9138 30.7197C20.0153 29.1559 19.1886 27.5789 18.4392 26.0107C19.1884 24.4389 20.0131 22.8601 20.9065 21.2991L20.9063 21.2994C21.802 19.7342 22.7446 18.2249 23.7186 16.7878C25.4435 16.6564 27.2123 16.5878 28.9999 16.5878C30.7955 16.5878 32.5667 16.6569 34.2911 16.7895C35.2502 18.2161 36.1865 19.7205 37.0857 21.2858C37.9951 22.8688 38.8305 24.4371 39.586 25.9752C38.8328 27.5398 37.9993 29.1239 37.0938 30.7061ZM42.2051 2.82478C44.1474 3.95342 44.9027 8.50526 43.6824 14.4741C43.6045 14.855 43.5169 15.2429 43.4217 15.6361C41.0154 15.0766 38.4024 14.6602 35.6667 14.4016C34.073 12.1147 32.4215 10.0356 30.7637 8.23561C31.2094 7.80356 31.6545 7.39159 32.0977 7.00282C36.3796 3.24777 40.3817 1.76521 42.2051 2.82478ZM29 20.7318C31.8603 20.7318 34.1792 23.0683 34.1792 25.9508C34.1792 28.8331 31.8603 31.1698 29 31.1698C26.1397 31.1698 23.8208 28.8331 23.8208 25.9508C23.8208 23.0683 26.1397 20.7318 29 20.7318Z" fill="#00D8FF"/>
</svg>
