<svg width="176" height="31" viewBox="0 0 176 31" fill="none" xmlns="http://www.w3.org/2000/svg">
<path d="M2.8125 6.24555V17.3571C2.8125 18.6781 3.14963 19.6731 3.82401 20.3419C4.5148 21.0108 5.46871 21.3452 6.68585 21.3452C7.91941 21.3452 8.87331 21.0108 9.5477 20.3419C10.2385 19.6731 10.5839 18.6781 10.5839 17.3571V6.24555H13.3964V17.3069C13.3964 18.7282 13.0921 19.9322 12.4836 20.9188C11.8749 21.9054 11.0608 22.6411 10.0411 23.1261C9.02134 23.6111 7.89474 23.8535 6.66118 23.8535C5.42763 23.8535 4.3009 23.6111 3.28125 23.1261C2.27788 22.6411 1.48026 21.9054 0.888157 20.9188C0.296052 19.9322 0 18.7282 0 17.3069V6.24555H2.8125ZM19.254 6.24555V23.6779H16.4415V6.24555H19.254ZM31.4581 0L24.7475 28.0673H21.9844L28.6702 0H31.4581ZM37.1736 6.24555V17.3571C37.1736 18.6781 37.5109 19.6731 38.1851 20.3419C38.8759 21.0108 39.8299 21.3452 41.047 21.3452C42.2805 21.3452 43.2345 21.0108 43.9088 20.3419C44.5996 19.6731 44.945 18.6781 44.945 17.3571V6.24555H47.7575V17.3069C47.7575 18.7282 47.4533 19.9322 46.8447 20.9188C46.2361 21.9054 45.422 22.6411 44.4022 23.1261C43.3826 23.6111 42.2558 23.8535 41.0223 23.8535C39.7887 23.8535 38.6621 23.6111 37.6424 23.1261C36.6391 22.6411 35.8414 21.9054 35.2493 20.9188C34.6572 19.9322 34.3611 18.7282 34.3611 17.3069V6.24555H37.1736ZM58.6727 14.9743L64.0017 23.6779H60.8438L56.9704 17.3571L53.3438 23.6779H50.2105L55.5395 14.9743L50.1859 6.24555H53.3438L57.2418 12.6165L60.8931 6.24555H64.0263L58.6727 14.9743ZM77.8649 6.24555C79.6906 6.24555 81.2859 6.6051 82.6511 7.32409C84.0327 8.02641 85.0936 9.04639 85.8337 10.3842C86.5902 11.7051 86.9686 13.252 86.9686 15.0244C86.9686 16.7969 86.5902 18.3353 85.8337 19.6396C85.0936 20.9439 84.0327 21.9472 82.6511 22.6495C81.2859 23.3351 79.6906 23.6779 77.8649 23.6779H72.2646V6.24555H77.8649ZM77.8649 21.3452C79.8714 21.3452 81.4093 20.7934 82.4784 19.6898C83.5474 18.5861 84.082 17.031 84.082 15.0244C84.082 13.0011 83.5474 11.4209 82.4784 10.2838C81.4093 9.14672 79.8714 8.57822 77.8649 8.57822H75.0771V21.3452H77.8649ZM101.598 16.4291C101.598 16.9474 101.565 17.4157 101.499 17.8337H91.1129C91.1951 18.9373 91.5981 19.8236 92.3218 20.4924C93.0454 21.1612 93.9336 21.4957 94.9863 21.4957C96.4993 21.4957 97.5685 20.852 98.1935 19.5644H101.228C100.817 20.8352 100.069 21.8804 98.983 22.6997C97.9139 23.5023 96.5816 23.9036 94.9863 23.9036C93.6868 23.9036 92.5192 23.6111 91.483 23.0258C90.4632 22.4238 89.6573 21.5876 89.0652 20.5175C88.4895 19.4306 88.2017 18.1764 88.2017 16.7551C88.2017 15.3338 88.4813 14.088 89.0405 13.0178C89.6161 11.9309 90.4139 11.0949 91.4336 10.5096C92.4698 9.92428 93.654 9.63169 94.9863 9.63169C96.2692 9.63169 97.4122 9.916 98.4156 10.4845C99.4188 11.053 100.2 11.8556 100.759 12.8924C101.318 13.9124 101.598 15.0913 101.598 16.4291ZM98.6623 15.5261C98.6457 14.4726 98.2757 13.6282 97.5521 12.9927C96.8283 12.3573 95.9319 12.0396 94.8629 12.0396C93.8925 12.0396 93.0619 12.3573 92.3711 12.9927C91.6804 13.6114 91.2691 14.4559 91.1376 15.5261H98.6623ZM108.683 23.9036C107.615 23.9036 106.653 23.7114 105.797 23.3267C104.958 22.9254 104.292 22.3903 103.798 21.7215C103.305 21.0358 103.042 20.2751 103.009 19.439H105.92C105.969 20.0243 106.241 20.5175 106.734 20.9188C107.245 21.3035 107.878 21.4957 108.634 21.4957C109.423 21.4957 110.033 21.3452 110.459 21.0442C110.903 20.7266 111.125 20.3252 111.125 19.8403C111.125 19.3219 110.879 18.9373 110.385 18.6865C109.909 18.4357 109.144 18.1597 108.091 17.8588C107.072 17.5744 106.241 17.2985 105.599 17.031C104.958 16.7635 104.399 16.3538 103.922 15.802C103.461 15.2502 103.231 14.5228 103.231 13.6198C103.231 12.884 103.445 12.2152 103.872 11.6132C104.3 10.9945 104.909 10.5096 105.698 10.1584C106.505 9.80727 107.425 9.63169 108.461 9.63169C110.008 9.63169 111.249 10.033 112.186 10.8356C113.141 11.6216 113.651 12.7002 113.716 14.0713H110.903C110.854 13.4526 110.607 12.9593 110.163 12.5914C109.719 12.2236 109.12 12.0396 108.362 12.0396C107.622 12.0396 107.055 12.1817 106.66 12.466C106.265 12.7503 106.068 13.1266 106.068 13.5947C106.068 13.9626 106.2 14.272 106.463 14.5228C106.727 14.7736 107.047 14.9743 107.425 15.1248C107.804 15.2586 108.362 15.4342 109.102 15.6515C110.089 15.919 110.896 16.1949 111.52 16.4792C112.162 16.7467 112.713 17.148 113.173 17.6832C113.635 18.2183 113.873 18.9289 113.889 19.8152C113.889 20.6012 113.675 21.3035 113.247 21.9221C112.82 22.5408 112.211 23.0258 111.422 23.3769C110.649 23.7281 109.736 23.9036 108.683 23.9036ZM117.742 8.02641C117.232 8.02641 116.805 7.85083 116.459 7.49967C116.114 7.14852 115.941 6.71371 115.941 6.19538C115.941 5.67705 116.114 5.24225 116.459 4.89109C116.805 4.53994 117.232 4.36436 117.742 4.36436C118.236 4.36436 118.655 4.53994 119 4.89109C119.346 5.24225 119.519 5.67705 119.519 6.19538C119.519 6.71371 119.346 7.14852 119 7.49967C118.655 7.85083 118.236 8.02641 117.742 8.02641ZM119.124 9.85743V23.6779H116.311V9.85743H119.124ZM127.676 9.63169C128.729 9.63169 129.658 9.84903 130.464 10.2838C131.287 10.7018 131.928 11.2286 132.388 11.864V9.85743H135.225V23.9036C135.225 25.1745 134.963 26.3032 134.436 27.2898C133.91 28.2931 133.146 29.079 132.141 29.6475C131.155 30.216 129.97 30.5003 128.589 30.5003C126.747 30.5003 125.218 30.0573 124 29.171C122.784 28.3015 122.093 27.1142 121.928 25.6093H124.716C124.93 26.3282 125.382 26.9051 126.072 27.3399C126.78 27.7914 127.619 28.0172 128.589 28.0172C129.724 28.0172 130.637 27.666 131.327 26.9637C132.035 26.2614 132.388 25.2414 132.388 23.9036V21.5961C131.912 22.2482 131.262 22.8 130.439 23.2515C129.634 23.6863 128.712 23.9036 127.676 23.9036C126.492 23.9036 125.406 23.6027 124.419 23.0007C123.45 22.382 122.676 21.5292 122.1 20.4423C121.542 19.3386 121.262 18.0929 121.262 16.705C121.262 15.317 121.542 14.088 122.1 13.0178C122.676 11.9477 123.45 11.12 124.419 10.5347C125.406 9.93268 126.492 9.63169 127.676 9.63169ZM132.388 16.7551C132.388 15.802 132.191 14.9743 131.796 14.272C131.419 13.5696 130.917 13.0345 130.291 12.6667C129.667 12.2988 128.992 12.1149 128.268 12.1149C127.545 12.1149 126.871 12.2988 126.245 12.6667C125.621 13.0178 125.11 13.5446 124.716 14.2469C124.338 14.9325 124.148 15.7518 124.148 16.705C124.148 17.6581 124.338 18.4942 124.716 19.2132C125.11 19.9322 125.621 20.484 126.245 20.8687C126.887 21.2365 127.561 21.4205 128.268 21.4205C128.992 21.4205 129.667 21.2365 130.291 20.8687C130.917 20.5008 131.419 19.9657 131.796 19.2634C132.191 18.5444 132.388 17.7083 132.388 16.7551ZM145.162 9.63169C146.231 9.63169 147.185 9.85743 148.023 10.3089C148.878 10.7604 149.544 11.4292 150.022 12.3155C150.499 13.2018 150.737 14.272 150.737 15.5261V23.6779H147.949V15.9525C147.949 14.715 147.645 13.7703 147.037 13.1182C146.429 12.4493 145.597 12.1149 144.545 12.1149C143.493 12.1149 142.654 12.4493 142.028 13.1182C141.42 13.7703 141.116 14.715 141.116 15.9525V23.6779H138.303V9.85743H141.116V11.4376C141.576 10.8691 142.16 10.4259 142.867 10.1083C143.591 9.79059 144.356 9.63169 145.162 9.63169ZM166.167 16.4291C166.167 16.9474 166.134 17.4157 166.068 17.8337H155.681C155.764 18.9373 156.167 19.8236 156.89 20.4924C157.614 21.1612 158.503 21.4957 159.555 21.4957C161.068 21.4957 162.138 20.852 162.762 19.5644H165.796C165.386 20.8352 164.637 21.8804 163.551 22.6997C162.483 23.5023 161.151 23.9036 159.555 23.9036C158.256 23.9036 157.088 23.6111 156.051 23.0258C155.033 22.4238 154.226 21.5876 153.634 20.5175C153.059 19.4306 152.77 18.1764 152.77 16.7551C152.77 15.3338 153.05 14.088 153.609 13.0178C154.185 11.9309 154.983 11.0949 156.002 10.5096C157.038 9.92428 158.222 9.63169 159.555 9.63169C160.838 9.63169 161.981 9.916 162.984 10.4845C163.988 11.053 164.769 11.8556 165.328 12.8924C165.888 13.9124 166.167 15.0913 166.167 16.4291ZM163.231 15.5261C163.215 14.4726 162.845 13.6282 162.121 12.9927C161.398 12.3573 160.501 12.0396 159.431 12.0396C158.462 12.0396 157.63 12.3573 156.94 12.9927C156.249 13.6114 155.838 14.4559 155.706 15.5261H163.231ZM171.13 11.864C171.541 11.1617 172.084 10.6183 172.759 10.2337C173.449 9.83235 174.264 9.63169 175.201 9.63169V12.5914H174.486C173.384 12.5914 172.545 12.8757 171.969 13.4442C171.41 14.0127 171.13 14.9993 171.13 16.404V23.6779H168.318V9.85743H171.13V11.864Z" fill="url(#paint0_linear_77_225)"/>
<defs>
<linearGradient id="paint0_linear_77_225" x1="121.595" y1="2.35776" x2="120.891" y2="28.3566" gradientUnits="userSpaceOnUse">
<stop stop-color="#165069"/>
<stop offset="0.243617" stop-color="#B8B8B8"/>
<stop offset="0.5625" stop-color="#165069" stop-opacity="0.76"/>
<stop offset="0.791667" stop-color="#7C7C7C"/>
<stop offset="1" stop-color="#165069"/>
</linearGradient>
</defs>
</svg>
