<svg width="220" height="34" viewBox="0 0 220 34" fill="none" xmlns="http://www.w3.org/2000/svg">
<path d="M3.76577 4.601V11.4521H11.6937V14.5754H3.76577V21.7288H12.6847V24.8521H0V1.47769H12.6847V4.601H3.76577ZM38.6678 6.04511C40.0992 6.04511 41.3765 6.34737 42.4996 6.95188C43.6448 7.55639 44.5367 8.45196 45.1753 9.6386C45.836 10.8252 46.1663 12.2581 46.1663 13.9373V24.8521H42.4336V14.5083C42.4336 12.8515 42.0262 11.5865 41.2114 10.7133C40.3965 9.81771 39.2844 9.36993 37.875 9.36993C36.4656 9.36993 35.3425 9.81771 34.5056 10.7133C33.6908 11.5865 33.2834 12.8515 33.2834 14.5083V24.8521H29.5507V14.5083C29.5507 12.8515 29.1433 11.5865 28.3285 10.7133C27.5137 9.81771 26.4015 9.36993 24.9921 9.36993C23.5827 9.36993 22.4596 9.81771 21.6228 10.7133C20.8079 11.5865 20.4005 12.8515 20.4005 14.5083V24.8521H16.6348V6.34737H20.4005V8.46316C21.0172 7.70192 21.7989 7.10861 22.7459 6.68321C23.6928 6.25781 24.7058 6.04511 25.7849 6.04511C27.2384 6.04511 28.5377 6.35856 29.6828 6.98547C30.828 7.61237 31.7088 8.51913 32.3255 9.70577C32.876 8.5863 33.7349 7.70192 34.902 7.05263C36.0692 6.38095 37.3245 6.04511 38.6678 6.04511ZM49.0147 15.5158C49.0147 13.6575 49.3891 12.0119 50.1378 10.5789C50.9086 9.14603 51.9436 8.03776 53.2429 7.25414C54.5643 6.44812 56.0177 6.04511 57.6033 6.04511C59.0347 6.04511 60.279 6.33618 61.336 6.9183C62.4151 7.47803 63.274 8.18329 63.9126 9.03409V6.34737H67.7114V24.8521H63.9126V22.0982C63.274 22.9714 62.4041 23.6991 61.303 24.2812C60.2019 24.8633 58.9467 25.1544 57.5372 25.1544C55.9737 25.1544 54.5422 24.7514 53.2429 23.9454C51.9436 23.117 50.9086 21.9751 50.1378 20.5198C49.3891 19.0421 49.0147 17.3741 49.0147 15.5158ZM63.9126 15.583C63.9126 14.3068 63.6484 13.1985 63.1198 12.2581C62.6133 11.3178 61.9416 10.6013 61.1048 10.1088C60.268 9.61621 59.3651 9.36993 58.3961 9.36993C57.4271 9.36993 56.5242 9.61621 55.6874 10.1088C54.8506 10.5789 54.1679 11.2842 53.6393 12.2246C53.1328 13.1425 52.8796 14.2396 52.8796 15.5158C52.8796 16.792 53.1328 17.9114 53.6393 18.8742C54.1679 19.8369 54.8506 20.5758 55.6874 21.0907C56.5462 21.5833 57.4492 21.8296 58.3961 21.8296C59.3651 21.8296 60.268 21.5833 61.1048 21.0907C61.9416 20.5982 62.6133 19.8817 63.1198 18.9414C63.6484 17.9786 63.9126 16.8592 63.9126 15.583ZM81.1526 6.04511C82.584 6.04511 83.8613 6.34737 84.9844 6.95188C86.1295 7.55639 87.0214 8.45196 87.6601 9.6386C88.2987 10.8252 88.618 12.2581 88.618 13.9373V24.8521H84.8853V14.5083C84.8853 12.8515 84.4779 11.5865 83.6631 10.7133C82.8483 9.81771 81.7361 9.36993 80.3267 9.36993C78.9173 9.36993 77.7942 9.81771 76.9574 10.7133C76.1425 11.5865 75.7351 12.8515 75.7351 14.5083V24.8521H71.9694V6.34737H75.7351V8.46316C76.3518 7.70192 77.1335 7.10861 78.0805 6.68321C79.0495 6.25781 80.0735 6.04511 81.1526 6.04511ZM104.392 4.601V11.4521H112.32V14.5754H104.392V21.7288H113.311V24.8521H100.626V1.47769H113.311V4.601H104.392ZM121.027 0V24.8521H117.261V0H121.027ZM131.889 25.1544C130.458 25.1544 129.169 24.8969 128.024 24.382C126.901 23.8446 126.009 23.1282 125.349 22.2326C124.688 21.3146 124.336 20.2959 124.291 19.1764H128.189C128.255 19.9601 128.619 20.6206 129.279 21.1579C129.962 21.6729 130.81 21.9303 131.823 21.9303C132.88 21.9303 133.695 21.7288 134.267 21.3258C134.862 20.9004 135.159 20.3631 135.159 19.7138C135.159 19.0197 134.829 18.5048 134.168 18.1689C133.53 17.8331 132.506 17.4637 131.096 17.0607C129.731 16.68 128.619 16.3106 127.76 15.9524C126.901 15.5942 126.152 15.0456 125.514 14.3068C124.897 13.5679 124.589 12.594 124.589 11.385C124.589 10.3998 124.875 9.50426 125.448 8.69825C126.02 7.86984 126.835 7.22055 127.892 6.75038C128.971 6.2802 130.204 6.04511 131.592 6.04511C133.662 6.04511 135.324 6.58246 136.579 7.65714C137.857 8.70944 138.539 10.1536 138.627 11.9895H134.862C134.796 11.1611 134.466 10.5006 133.871 10.008C133.276 9.51546 132.473 9.26917 131.46 9.26917C130.469 9.26917 129.709 9.45948 129.18 9.8401C128.652 10.2207 128.388 10.7245 128.388 11.3514C128.388 11.8439 128.564 12.2581 128.916 12.594C129.268 12.9298 129.698 13.1985 130.204 13.4C130.711 13.5791 131.46 13.8142 132.451 14.1053C133.772 14.4635 134.851 14.8329 135.687 15.2135C136.546 15.5718 137.284 16.1091 137.901 16.8256C138.517 17.542 138.837 18.4936 138.859 19.6802C138.859 20.7325 138.572 21.6729 138 22.5013C137.427 23.3297 136.612 23.979 135.555 24.4491C134.521 24.9193 133.299 25.1544 131.889 25.1544ZM140.985 15.5158C140.985 13.6575 141.36 12.0119 142.108 10.5789C142.879 9.14603 143.914 8.03776 145.213 7.25414C146.535 6.44812 147.988 6.04511 149.574 6.04511C151.005 6.04511 152.249 6.33618 153.306 6.9183C154.386 7.47803 155.244 8.18329 155.883 9.03409V6.34737H159.682V24.8521H155.883V22.0982C155.244 22.9714 154.375 23.6991 153.273 24.2812C152.172 24.8633 150.917 25.1544 149.508 25.1544C147.944 25.1544 146.513 24.7514 145.213 23.9454C143.914 23.117 142.879 21.9751 142.108 20.5198C141.36 19.0421 140.985 17.3741 140.985 15.5158ZM155.883 15.583C155.883 14.3068 155.619 13.1985 155.09 12.2581C154.584 11.3178 153.912 10.6013 153.075 10.1088C152.238 9.61621 151.336 9.36993 150.367 9.36993C149.398 9.36993 148.495 9.61621 147.658 10.1088C146.821 10.5789 146.138 11.2842 145.61 12.2246C145.103 13.1425 144.85 14.2396 144.85 15.5158C144.85 16.792 145.103 17.9114 145.61 18.8742C146.138 19.8369 146.821 20.5758 147.658 21.0907C148.517 21.5833 149.42 21.8296 150.367 21.8296C151.336 21.8296 152.238 21.5833 153.075 21.0907C153.912 20.5982 154.584 19.8817 155.09 18.9414C155.619 17.9786 155.883 16.8592 155.883 15.583ZM180.323 6.34737L169.158 33.5504H165.26L168.96 24.5499L161.792 6.34737H165.987L171.107 20.4526L176.425 6.34737H180.323ZM199.159 15.1464C199.159 15.8404 199.115 16.4673 199.027 17.0271H185.12C185.23 18.5048 185.77 19.6914 186.739 20.587C187.708 21.4825 188.897 21.9303 190.306 21.9303C192.332 21.9303 193.764 21.0683 194.601 19.3444H198.664C198.113 21.046 197.111 22.4453 195.658 23.5424C194.226 24.617 192.442 25.1544 190.306 25.1544C188.566 25.1544 187.003 24.7626 185.616 23.979C184.25 23.1729 183.171 22.0535 182.378 20.6206C181.608 19.1653 181.222 17.4861 181.222 15.583C181.222 13.6799 181.597 12.0119 182.345 10.5789C183.116 9.12364 184.184 8.00418 185.549 7.22055C186.937 6.43693 188.522 6.04511 190.306 6.04511C192.024 6.04511 193.554 6.42573 194.898 7.18697C196.241 7.94821 197.287 9.02289 198.036 10.411C198.785 11.7768 199.159 13.3552 199.159 15.1464ZM195.228 13.9373C195.206 12.5268 194.711 11.3962 193.742 10.5454C192.773 9.69457 191.572 9.26917 190.141 9.26917C188.842 9.26917 187.73 9.69457 186.805 10.5454C185.88 11.3738 185.329 12.5044 185.153 13.9373H195.228ZM200.922 15.5158C200.922 13.6575 201.297 12.0119 202.045 10.5789C202.816 9.14603 203.851 8.03776 205.15 7.25414C206.472 6.44812 207.936 6.04511 209.544 6.04511C210.733 6.04511 211.9 6.31379 213.045 6.85113C214.213 7.36608 215.137 8.06015 215.82 8.93334V0H219.619V24.8521H215.82V22.0647C215.203 22.9602 214.345 23.6991 213.244 24.2812C212.164 24.8633 210.92 25.1544 209.511 25.1544C207.925 25.1544 206.472 24.7514 205.15 23.9454C203.851 23.117 202.816 21.9751 202.045 20.5198C201.297 19.0421 200.922 17.3741 200.922 15.5158ZM215.82 15.583C215.82 14.3068 215.556 13.1985 215.027 12.2581C214.521 11.3178 213.849 10.6013 213.012 10.1088C212.175 9.61621 211.273 9.36993 210.304 9.36993C209.335 9.36993 208.432 9.61621 207.595 10.1088C206.758 10.5789 206.075 11.2842 205.547 12.2246C205.04 13.1425 204.787 14.2396 204.787 15.5158C204.787 16.792 205.04 17.9114 205.547 18.8742C206.075 19.8369 206.758 20.5758 207.595 21.0907C208.454 21.5833 209.357 21.8296 210.304 21.8296C211.273 21.8296 212.175 21.5833 213.012 21.0907C213.849 20.5982 214.521 19.8817 215.027 18.9414C215.556 17.9786 215.82 16.8592 215.82 15.583Z" fill="white"/>
</svg>
