<svg width="595" height="595" viewBox="0 0 595 595" fill="none" xmlns="http://www.w3.org/2000/svg">
<path d="M484.722 474.619C380.693 534.382 212.034 534.382 108.004 474.619C3.97466 414.858 3.98657 317.98 108.004 258.23C212.023 198.48 380.705 198.48 484.722 258.23C588.74 317.98 588.753 414.869 484.722 474.619Z" fill="#F5F5F5"/>
<path d="M326.75 366.425C304.89 353.811 269.451 353.811 247.592 366.425C229.063 377.135 226.254 393.449 239.131 405.874C238.403 406.063 237.703 406.347 237.048 406.718L168.028 446.583C165.1 448.273 165.1 451.022 168.028 452.711L172.359 455.21C173.986 456.037 175.792 456.443 177.615 456.391C179.438 456.339 181.22 455.831 182.796 454.913L247.056 412.823C247.319 412.651 247.566 412.455 247.793 412.24C269.666 424.746 304.913 424.711 326.739 412.132C348.563 399.555 348.67 379.05 326.75 366.425Z" fill="#E6E6E6"/>
<path d="M480.403 320.526L392.438 371.423C391.341 371.98 390.128 372.27 388.898 372.27C387.667 372.27 386.454 371.98 385.357 371.423L232.335 283.066C230.384 281.946 230.384 280.114 232.335 278.983L320.301 228.088C321.398 227.529 322.611 227.24 323.84 227.24C325.071 227.24 326.284 227.529 327.381 228.088L480.403 316.445C482.354 317.564 482.354 319.396 480.403 320.526Z" fill="#E6E6E6"/>
<path d="M88.6906 416.785L65.1643 403.196C62.3202 401.553 62.3202 398.888 65.1643 397.246L228.872 302.724C230.469 301.914 232.235 301.491 234.026 301.491C235.815 301.491 237.582 301.914 239.178 302.724L262.717 316.314C265.561 317.956 265.561 320.621 262.717 322.264L98.996 416.785C97.3993 417.595 95.634 418.018 93.8433 418.018C92.0528 418.018 90.2874 417.595 88.6906 416.785Z" fill="#E6E6E6"/>
<path d="M480.641 443.798C504.648 443.798 524.111 433.165 524.111 420.046C524.111 406.928 504.648 396.294 480.641 396.294C456.633 396.294 437.171 406.928 437.171 420.046C437.171 433.165 456.633 443.798 480.641 443.798Z" fill="#E6E6E6"/>
<path d="M499.669 396.461C500.085 391.188 504.773 380.586 510.795 374.183C516.817 367.782 525.801 363.473 531.739 366.056C537.273 368.436 536.06 375.874 528.752 380.252C521.446 384.632 510.594 390.023 506.868 398.317L499.669 408.289V396.461Z" fill="#165069"/>
<path opacity="0.1" d="M499.669 396.461C500.085 391.188 504.773 380.586 510.795 374.183C516.817 367.782 525.801 363.473 531.739 366.056C537.273 368.436 536.06 375.874 528.752 380.252C521.446 384.632 510.594 390.023 506.868 398.317L499.669 408.289V396.461Z" fill="#165069"/>
<path d="M498.694 403.636C498.779 403.637 498.863 403.61 498.932 403.558C499.001 403.506 499.051 403.433 499.074 403.351C504.049 385.655 519.768 372.208 528.729 369.686C528.818 369.648 528.889 369.58 528.931 369.494C528.972 369.407 528.981 369.307 528.954 369.216C528.928 369.123 528.868 369.043 528.787 368.993C528.706 368.941 528.61 368.921 528.514 368.935C519.388 371.518 503.37 385.179 498.325 403.148C498.309 403.198 498.306 403.25 498.313 403.3C498.319 403.351 498.334 403.399 498.36 403.445C498.386 403.489 498.419 403.528 498.46 403.558C498.502 403.59 498.549 403.611 498.598 403.624L498.694 403.636Z" fill="white"/>
<path d="M500.454 415.31C501.538 412.419 505.547 407.825 511.724 404.255C518.555 400.316 526.907 398.923 529.074 395.591C531.68 391.605 528.479 387.38 521.755 387.667C515.032 387.952 502.631 396.079 499.669 409.586L500.454 415.31Z" fill="#165069"/>
<path d="M499.419 412.144C499.493 412.146 499.565 412.124 499.626 412.085C499.687 412.044 499.736 411.986 499.765 411.918C506.524 396.96 518.709 392.497 524.207 392.224C524.308 392.224 524.404 392.184 524.476 392.113C524.547 392.041 524.587 391.945 524.587 391.843C524.587 391.742 524.547 391.646 524.476 391.574C524.404 391.502 524.308 391.463 524.207 391.463C518.126 391.76 506 396.329 499.098 411.597C499.077 411.644 499.065 411.694 499.063 411.746C499.062 411.798 499.071 411.848 499.089 411.896C499.109 411.944 499.136 411.987 499.173 412.024C499.21 412.06 499.252 412.089 499.3 412.109C499.338 412.127 499.377 412.14 499.419 412.144Z" fill="white"/>
<path d="M67.1042 367.08C67.1042 367.08 65.9142 356.143 60.4164 347.646C54.9186 339.15 47.493 333.867 40.5196 333.307C33.5462 332.748 27.9175 339.174 35.3788 343.588C42.8401 348.003 56.0967 352.49 62.2014 368.972L67.1042 367.08Z" fill="#165069"/>
<path opacity="0.1" d="M67.1042 367.08C67.1042 367.08 65.9142 356.143 60.4164 347.646C54.9186 339.15 47.493 333.867 40.5196 333.307C33.5462 332.748 27.9175 339.174 35.3788 343.588C42.8401 348.003 56.0967 352.49 62.2014 368.972L67.1042 367.08Z" fill="#165069"/>
<path d="M65.0572 364.235H65.1286C65.1744 364.216 65.2159 364.19 65.251 364.155C65.2859 364.12 65.3137 364.079 65.3326 364.033C65.3515 363.989 65.361 363.94 65.3607 363.89C65.3604 363.841 65.3503 363.792 65.3309 363.748C57.9767 345.611 43.9109 338.044 37.5801 336.567C37.4874 336.558 37.3941 336.582 37.3183 336.637C37.2425 336.691 37.1894 336.772 37.1688 336.863C37.1482 336.953 37.1618 337.049 37.2069 337.13C37.252 337.212 37.3255 337.275 37.4135 337.305C43.661 338.733 57.3936 346.183 64.6407 364.021C64.6764 364.097 64.7367 364.161 64.8122 364.199C64.8876 364.239 64.9738 364.251 65.0572 364.235Z" fill="white"/>
<path d="M31.5946 364.14C32.2729 365.663 33.9746 366.448 35.4621 367.068C37.0693 367.503 38.4877 368.456 39.4962 369.78C41.1741 372.673 38.4252 376.742 40.2221 379.551C40.6436 380.12 41.1783 380.596 41.7927 380.948C42.4073 381.3 43.088 381.522 43.7921 381.598C44.9439 381.764 46.1039 381.871 47.2669 381.918C47.8202 381.905 48.3724 381.862 48.921 381.787C50.5206 381.429 52.1942 381.609 53.681 382.3C55.9777 383.584 56.6798 386.488 58.0721 388.726C58.9377 390.045 60.078 391.161 61.4151 392C62.7521 392.837 64.2543 393.377 65.819 393.58C67.1513 393.85 68.5316 393.76 69.8174 393.319L70.0435 393.176C70.1884 393.022 70.3236 392.859 70.4481 392.688V392.616C70.8527 391.118 70.1863 389.559 70.1625 388.012V387.726C70.1625 385.929 70.2815 384.156 70.3172 382.347C70.3965 379.039 70.4282 375.73 70.4124 372.423C70.4124 370.281 70.6504 367.924 69.746 365.901C68.7345 363.676 66.2355 363.629 65.2954 361.438C64.9146 360.57 64.7123 359.642 64.3434 358.761C63.7764 357.473 62.8659 356.365 61.7116 355.558C60.5573 354.753 59.2035 354.28 57.7984 354.191C53.4192 353.965 49.4684 357.5 45.1368 357.179C44.0119 357.027 42.8958 356.817 41.7929 356.548C38.2229 355.882 34.165 356.893 32.1777 359.88C31.7394 360.488 31.457 361.194 31.3554 361.937C31.2536 362.68 31.3358 363.437 31.5946 364.14Z" fill="#165069"/>
<path d="M70.8525 385.751C70.9002 385.74 70.9452 385.719 70.9848 385.69C71.0241 385.661 71.0572 385.624 71.0818 385.581C71.1063 385.539 71.1219 385.491 71.1275 385.443C71.133 385.394 71.1286 385.345 71.1143 385.298C65.1048 362.64 41.2453 359.38 35.6999 359.772C35.6514 359.775 35.6039 359.789 35.5604 359.81C35.5168 359.832 35.4777 359.861 35.4457 359.897C35.4137 359.934 35.3891 359.977 35.3735 360.022C35.358 360.068 35.3516 360.117 35.3548 360.166C35.3481 360.215 35.3519 360.266 35.3661 360.314C35.3803 360.363 35.4044 360.407 35.437 360.445C35.4695 360.483 35.5098 360.514 35.5551 360.535C35.6004 360.556 35.6497 360.569 35.6999 360.57C41.162 360.178 64.5098 363.379 70.4122 385.56C70.4508 385.639 70.5164 385.702 70.5971 385.737C70.6779 385.772 70.7684 385.777 70.8525 385.751Z" fill="white"/>
<path d="M44.3394 374.279C44.4161 374.264 44.4868 374.228 44.5417 374.171C46.7446 372.263 49.3413 370.864 52.1472 370.075C54.9528 369.285 57.8982 369.123 60.7733 369.602C60.8721 369.613 60.9712 369.585 61.0508 369.526C61.1303 369.466 61.1841 369.379 61.2017 369.281C61.2084 369.233 61.2053 369.182 61.1927 369.135C61.18 369.088 61.1582 369.043 61.1283 369.005C61.0984 368.967 61.061 368.934 61.0185 368.909C60.9759 368.886 60.9291 368.87 60.8804 368.865C57.8918 368.374 54.832 368.551 51.9192 369.379C49.0065 370.208 46.3126 371.671 44.03 373.66C43.9955 373.694 43.968 373.735 43.9493 373.781C43.9307 373.825 43.9209 373.874 43.9209 373.922C43.9209 373.971 43.9307 374.019 43.9493 374.064C43.968 374.109 43.9955 374.15 44.03 374.183C44.0718 374.22 44.1211 374.249 44.1745 374.264C44.2277 374.281 44.284 374.286 44.3394 374.279Z" fill="white"/>
<path d="M477.19 304.045L392.2 353.227C391.139 353.761 389.968 354.039 388.779 354.039C387.591 354.039 386.419 353.761 385.357 353.227L237.44 267.845C235.548 266.763 235.548 264.989 237.44 263.907L322.49 214.711C323.549 214.179 324.719 213.899 325.906 213.899C327.091 213.899 328.261 214.179 329.32 214.711L477.19 300.094C479.022 301.189 479.022 302.95 477.19 304.045Z" fill="#37474F"/>
<path d="M431.72 326.595C430.246 327.345 428.615 327.735 426.96 327.735C425.306 327.735 423.675 327.345 422.2 326.595C419.582 325.084 419.582 322.633 422.2 321.121C423.674 320.366 425.305 319.973 426.96 319.973C428.615 319.973 430.248 320.366 431.72 321.121C434.35 322.633 434.35 325.084 431.72 326.595Z" fill="#165069"/>
<path d="M392.14 353.227L477.19 304.045C478.88 303.069 479.059 301.546 477.725 300.475C478.571 301.143 479.265 301.984 479.764 302.939C480.263 303.894 480.552 304.945 480.617 306.021V309.234C480.557 310.425 480.214 311.586 479.619 312.621C479.022 313.655 478.191 314.532 477.19 315.184L392.2 364.366C391.15 364.926 389.975 365.208 388.785 365.187V354.084C389.957 354.084 391.112 353.79 392.14 353.227Z" fill="#455A64"/>
<path d="M237.44 278.96C236.442 278.307 235.612 277.429 235.019 276.394C234.425 275.36 234.085 274.2 234.026 273.01V269.797C234.088 268.719 234.378 267.666 234.877 266.708C235.374 265.751 236.07 264.909 236.917 264.24C235.585 265.335 235.727 266.845 237.44 267.809L385.298 353.192C386.352 353.752 387.531 354.036 388.726 354.013V365.116C387.531 365.138 386.352 364.856 385.298 364.294L237.44 278.96Z" fill="#165069"/>
<path d="M377.944 342.923L458.115 296.513C458.367 296.432 458.586 296.273 458.742 296.058C458.899 295.845 458.983 295.587 458.983 295.323C458.983 295.057 458.899 294.8 458.742 294.586C458.586 294.372 458.367 294.214 458.115 294.133L339.614 225.589C338.981 225.265 338.279 225.098 337.568 225.098C336.855 225.098 336.155 225.265 335.52 225.589L255.314 271.999C255.063 272.08 254.841 272.238 254.686 272.452C254.53 272.666 254.446 272.923 254.446 273.189C254.446 273.453 254.53 273.711 254.686 273.924C254.841 274.139 255.063 274.298 255.314 274.379L373.838 342.923C374.475 343.245 375.178 343.414 375.892 343.414C376.604 343.414 377.308 343.245 377.944 342.923Z" fill="#FAFAFA"/>
<path d="M267.75 274.104L306.044 296.31C306.843 296.714 307.725 296.925 308.62 296.925C309.516 296.925 310.398 296.714 311.197 296.31L378.551 257.432C378.862 257.327 379.131 257.127 379.323 256.86C379.514 256.593 379.618 256.274 379.618 255.945C379.618 255.617 379.514 255.298 379.323 255.031C379.131 254.764 378.862 254.564 378.551 254.457L340.209 232.3C339.411 231.896 338.528 231.684 337.634 231.684C336.738 231.684 335.855 231.896 335.057 232.3L267.75 271.129C267.439 271.235 267.169 271.436 266.978 271.701C266.787 271.968 266.684 272.289 266.684 272.617C266.684 272.945 266.787 273.265 266.978 273.532C267.169 273.799 267.439 273.999 267.75 274.104Z" fill="#EBEBEB"/>
<path d="M295.869 263.525L305.699 265.442C306.314 265.57 306.951 265.512 307.531 265.275L315.861 261.705C317.182 261.133 319.063 261.705 319.039 262.645L318.908 268.595C318.908 268.975 319.217 269.332 319.753 269.559L328.226 273.021C329.57 273.569 329.249 274.771 327.666 275.056L317.73 276.853C317.469 276.878 317.217 276.959 316.992 277.09C316.766 277.223 316.57 277.401 316.421 277.615L313.339 283.339C312.839 284.244 310.756 284.434 309.769 283.661L303.819 278.77C303.343 278.425 302.763 278.254 302.176 278.281L291.788 278.353C290.134 278.353 289.182 277.282 290.169 276.521L296.382 271.761C296.47 271.709 296.548 271.642 296.611 271.561C296.672 271.48 296.717 271.389 296.745 271.289C296.771 271.192 296.778 271.09 296.765 270.987C296.751 270.887 296.717 270.789 296.667 270.701L293.335 265.025C292.812 264.073 294.299 263.216 295.869 263.525Z" fill="#FAFAFA"/>
<path d="M317.73 250.983L338.817 238.809C339.231 238.566 339.696 238.421 340.175 238.388C340.654 238.356 341.135 238.435 341.577 238.619C342.244 239.012 342.09 239.726 341.245 240.214L320.17 252.387C319.755 252.628 319.289 252.77 318.812 252.803C318.333 252.835 317.854 252.759 317.408 252.578C316.743 252.185 316.897 251.471 317.73 250.983Z" fill="#FAFAFA"/>
<path d="M323.061 254.053L344.136 241.88C344.549 241.636 345.015 241.491 345.494 241.459C345.973 241.425 346.453 241.504 346.897 241.689C347.564 242.081 347.42 242.795 346.563 243.283L325.489 255.458C325.073 255.697 324.609 255.839 324.13 255.873C323.652 255.906 323.172 255.829 322.728 255.647C322.049 255.255 322.205 254.541 323.061 254.053Z" fill="#FAFAFA"/>
<path d="M328.368 257.124L349.444 244.949C349.857 244.704 350.321 244.557 350.801 244.524C351.28 244.492 351.761 244.572 352.205 244.759C352.882 245.152 352.728 245.866 351.871 246.354L330.82 258.528C330.405 258.769 329.94 258.91 329.462 258.943C328.983 258.976 328.504 258.9 328.059 258.718C327.369 258.325 327.513 257.611 328.368 257.124Z" fill="#FAFAFA"/>
<path d="M333.676 260.181L354.764 248.02C355.174 247.773 355.636 247.628 356.115 247.595C356.593 247.561 357.072 247.642 357.511 247.83C358.19 248.21 358.036 248.924 357.191 249.424L336.103 261.586C335.691 261.832 335.226 261.979 334.746 262.011C334.267 262.044 333.786 261.963 333.344 261.776C332.677 261.396 332.831 260.682 333.676 260.181Z" fill="#FAFAFA"/>
<path d="M338.996 263.252L360.07 251.09C360.483 250.843 360.948 250.698 361.427 250.664C361.908 250.632 362.389 250.712 362.831 250.899C363.498 251.281 363.354 251.995 362.498 252.494L341.423 264.656C341.01 264.903 340.544 265.048 340.065 265.082C339.586 265.114 339.104 265.034 338.662 264.847C337.96 264.465 338.139 263.751 338.996 263.252Z" fill="#FAFAFA"/>
<path d="M344.302 266.322L365.33 254.16C365.744 253.914 366.207 253.767 366.688 253.735C367.167 253.702 367.648 253.783 368.092 253.97C368.757 254.35 368.615 255.064 367.757 255.565L346.731 267.75C346.318 267.997 345.852 268.142 345.373 268.176C344.893 268.208 344.412 268.128 343.97 267.941C343.303 267.536 343.446 266.822 344.302 266.322Z" fill="#FAFAFA"/>
<path d="M315.005 301.427L316.743 302.439C317.222 302.68 317.753 302.805 318.29 302.805C318.827 302.805 319.356 302.68 319.837 302.439L360.297 279.102C361.153 278.603 361.153 277.806 360.297 277.317L358.547 276.306C358.066 276.065 357.537 275.94 357 275.94C356.463 275.94 355.934 276.065 355.453 276.306L314.993 299.642C314.805 299.706 314.644 299.827 314.529 299.987C314.413 300.149 314.352 300.341 314.354 300.539C314.355 300.736 314.419 300.928 314.535 301.088C314.653 301.247 314.818 301.366 315.005 301.427Z" fill="#E0E0E0"/>
<path d="M387.511 259.563L389.249 260.575C390.107 261.062 390.107 261.859 389.249 262.36L373.006 271.737C372.525 271.978 371.996 272.103 371.459 272.103C370.922 272.103 370.392 271.978 369.912 271.737L368.174 270.725C367.318 270.237 367.318 269.44 368.174 268.94L384.37 259.563C384.857 259.315 385.395 259.185 385.942 259.185C386.488 259.185 387.025 259.315 387.511 259.563Z" fill="#E0E0E0"/>
<path d="M325.75 307.603L364.14 329.749C364.938 330.153 365.821 330.364 366.717 330.364C367.611 330.364 368.494 330.153 369.292 329.749L436.646 290.871C436.957 290.766 437.227 290.566 437.418 290.299C437.61 290.032 437.712 289.713 437.712 289.384C437.712 289.056 437.61 288.737 437.418 288.47C437.227 288.203 436.957 288.003 436.646 287.896L398.305 265.739C397.506 265.335 396.624 265.123 395.728 265.123C394.833 265.123 393.951 265.335 393.152 265.739L325.75 304.64C325.444 304.748 325.178 304.948 324.99 305.214C324.803 305.479 324.702 305.796 324.702 306.121C324.702 306.446 324.803 306.764 324.99 307.029C325.178 307.295 325.444 307.494 325.75 307.603Z" fill="#EBEBEB"/>
<path d="M353.906 297.012L363.748 298.94C364.361 299.067 364.999 299.009 365.58 298.774L373.91 295.204C375.242 294.632 377.123 295.204 377.099 296.131L376.967 302.082C376.967 302.463 377.265 302.82 377.8 303.033L386.286 306.497C387.63 307.055 387.298 308.257 385.726 308.543L375.802 310.317C375.543 310.344 375.292 310.427 375.067 310.558C374.841 310.689 374.645 310.866 374.493 311.078L371.411 316.802C370.923 317.706 368.84 317.896 367.841 317.123L361.891 312.232C361.411 311.888 360.828 311.716 360.237 311.745L349.848 311.815C348.206 311.815 347.242 310.744 348.229 309.983L354.441 305.223C354.617 305.119 354.747 304.95 354.801 304.753C354.858 304.556 354.835 304.346 354.739 304.164L351.395 298.487C350.859 297.572 352.347 296.714 353.906 297.012Z" fill="#FAFAFA"/>
<path d="M375.79 284.482L396.865 272.307C397.278 272.064 397.744 271.92 398.223 271.886C398.702 271.854 399.182 271.933 399.626 272.118C400.304 272.51 400.15 273.224 399.292 273.712L378.217 285.885C377.802 286.126 377.338 286.268 376.859 286.302C376.38 286.334 375.901 286.257 375.457 286.076C374.85 285.684 374.934 284.97 375.79 284.482Z" fill="#FAFAFA"/>
<path d="M381.098 287.551L402.22 275.378C402.634 275.134 403.099 274.989 403.578 274.957C404.057 274.924 404.538 275.003 404.982 275.187C405.647 275.58 405.493 276.294 404.647 276.782L383.562 288.956C383.148 289.202 382.684 289.35 382.205 289.388C381.726 289.425 381.246 289.35 380.8 289.17C380.098 288.753 380.252 288.039 381.098 287.551Z" fill="#FAFAFA"/>
<path d="M386.417 290.61L407.491 278.46C407.905 278.213 408.37 278.068 408.849 278.034C409.33 278.002 409.81 278.082 410.253 278.269C410.919 278.651 410.776 279.365 409.92 279.864L388.845 292.026C388.43 292.267 387.964 292.409 387.485 292.441C387.008 292.474 386.527 292.398 386.083 292.217C385.406 291.823 385.56 291.109 386.417 290.61Z" fill="#FAFAFA"/>
<path d="M391.724 293.68L412.799 281.519C413.212 281.272 413.678 281.127 414.157 281.093C414.636 281.06 415.118 281.141 415.56 281.328C416.238 281.708 416.084 282.422 415.226 282.923L394.152 295.12C393.739 295.367 393.274 295.512 392.795 295.546C392.314 295.578 391.833 295.498 391.391 295.311C390.724 294.894 390.868 294.18 391.724 293.68Z" fill="#FAFAFA"/>
<path d="M397.031 296.751L418.119 284.589C418.529 284.343 418.993 284.196 419.47 284.163C419.948 284.131 420.427 284.21 420.868 284.398C421.545 284.779 421.391 285.493 420.546 285.992L399.459 298.155C399.047 298.402 398.581 298.547 398.102 298.58C397.622 298.612 397.141 298.533 396.699 298.345C396.032 297.964 396.186 297.25 397.031 296.751Z" fill="#FAFAFA"/>
<path d="M402.351 299.88L423.426 287.718C423.838 287.472 424.304 287.325 424.783 287.293C425.263 287.26 425.744 287.341 426.186 287.528C426.853 287.908 426.709 288.622 425.854 289.123L404.778 301.284C404.365 301.531 403.901 301.677 403.421 301.709C402.942 301.743 402.461 301.662 402.017 301.474C401.34 301.07 401.494 300.321 402.351 299.88Z" fill="#FAFAFA"/>
<path d="M373.041 334.925L374.79 335.937C375.271 336.178 375.8 336.303 376.337 336.303C376.874 336.303 377.404 336.178 377.884 335.937L418.344 312.601C418.532 312.54 418.695 312.419 418.811 312.259C418.927 312.099 418.99 311.907 418.99 311.708C418.99 311.511 418.927 311.318 418.811 311.158C418.695 310.997 418.532 310.878 418.344 310.816L416.595 309.804C416.116 309.563 415.585 309.438 415.048 309.438C414.511 309.438 413.981 309.563 413.501 309.804L373.041 333.14C372.853 333.203 372.69 333.322 372.574 333.482C372.459 333.642 372.397 333.835 372.397 334.033C372.397 334.231 372.459 334.424 372.574 334.584C372.69 334.744 372.853 334.863 373.041 334.925Z" fill="#E0E0E0"/>
<path d="M445.548 293.062L447.297 294.073C448.154 294.56 448.154 295.358 447.297 295.858L431.053 305.235C430.574 305.476 430.043 305.601 429.506 305.601C428.969 305.601 428.44 305.476 427.959 305.235L426.211 304.224C426.023 304.161 425.86 304.042 425.744 303.882C425.628 303.722 425.565 303.529 425.565 303.331C425.565 303.133 425.628 302.94 425.744 302.78C425.86 302.62 426.023 302.501 426.211 302.439L442.466 293.062C442.944 292.821 443.472 292.696 444.007 292.696C444.541 292.696 445.069 292.821 445.548 293.062Z" fill="#E0E0E0"/>
<path d="M287.123 242.986C286.798 243.146 286.439 243.228 286.076 243.228C285.713 243.228 285.355 243.146 285.03 242.986C284.906 242.943 284.799 242.862 284.723 242.755C284.648 242.649 284.607 242.522 284.607 242.391C284.607 242.261 284.648 242.133 284.723 242.026C284.799 241.919 284.906 241.84 285.03 241.796C285.355 241.637 285.713 241.553 286.076 241.553C286.439 241.553 286.798 241.637 287.123 241.796C287.707 242.118 287.707 242.653 287.123 242.986Z" fill="#165069"/>
<path d="M283.78 252.494C283.13 252.823 282.413 252.994 281.685 252.994C280.957 252.994 280.24 252.823 279.59 252.494C279.354 252.398 279.151 252.233 279.009 252.021C278.867 251.809 278.791 251.56 278.791 251.304C278.791 251.049 278.867 250.799 279.009 250.588C279.151 250.376 279.354 250.211 279.59 250.114C280.24 249.786 280.957 249.615 281.685 249.615C282.413 249.615 283.13 249.786 283.78 250.114C284.016 250.211 284.218 250.376 284.361 250.588C284.503 250.799 284.579 251.049 284.579 251.304C284.579 251.56 284.503 251.809 284.361 252.021C284.218 252.233 284.016 252.398 283.78 252.494Z" fill="#165069"/>
<path d="M286.79 248.281C286.017 247.83 286.064 247.091 286.885 246.615L300.666 238.654C301.113 238.426 301.609 238.307 302.111 238.307C302.614 238.307 303.11 238.426 303.557 238.654C304.318 239.095 304.283 239.844 303.462 240.32L289.681 248.269C289.234 248.498 288.74 248.617 288.238 248.62C287.734 248.621 287.24 248.506 286.79 248.281Z" fill="#165069"/>
<path d="M253.363 131.864V134.66L243.7 140.241L229.206 148.571L101.257 222.53C100.499 223.006 99.873 223.665 99.4365 224.446C98.9663 225.215 98.7038 226.092 98.6749 226.992V397.043C98.6749 406.29 92.1775 410.039 84.1807 405.373C76.1839 400.708 69.6746 389.511 69.6746 380.264V210.201C69.724 209.307 69.9837 208.438 70.4323 207.661C70.881 206.886 71.5061 206.227 72.2569 205.739L214.688 123.498L228.48 115.549C228.941 116.325 229.196 117.205 229.218 118.107V120.702L77.0883 208.761C76.3744 209.205 75.7816 209.818 75.3628 210.546C74.8427 211.345 74.5505 212.272 74.5179 213.224V383.049C74.5179 389.214 78.8495 396.699 84.1926 399.78C89.5357 402.862 93.8554 400.363 93.8554 394.2V224.149C93.8967 223.258 94.1478 222.39 94.5883 221.613C95.0287 220.838 95.6462 220.177 96.3901 219.686L252.613 129.484C253.063 130.2 253.321 131.019 253.363 131.864Z" fill="#E0E0E0"/>
<path d="M238.857 123.677V131.864L91.6299 216.902C90.8734 217.383 90.241 218.035 89.7841 218.806C89.3271 219.578 89.0585 220.446 89 221.34V391.391C89 394.473 86.8461 395.722 84.1805 394.175C82.7769 393.264 81.6078 392.036 80.7684 390.589C79.9289 389.141 79.4426 387.516 79.3491 385.845V215.782C79.3798 214.883 79.6378 214.008 80.0988 213.236C80.5425 212.461 81.1671 211.803 81.9195 211.32L238.131 121.13C238.583 121.904 238.833 122.78 238.857 123.677Z" fill="#E0E0E0"/>
<path d="M104.256 227.195C103.793 227.961 103.535 228.834 103.506 229.73V398.317C103.509 399.543 103.429 400.768 103.268 401.982C103.221 402.299 103.173 402.609 103.125 402.91C103.125 403.196 103.018 403.469 102.959 403.755C102.899 404.04 102.84 404.255 102.768 404.493C102.697 404.731 102.649 404.957 102.578 405.183C101.79 408.078 99.9364 410.57 97.3895 412.157C93.9266 414.144 89.2856 413.906 84.1805 410.966C73.4705 404.803 64.843 389.142 64.843 376.005V207.405C64.872 206.509 65.1301 205.637 65.5927 204.871L70.436 207.655C69.9658 208.424 69.7034 209.301 69.6744 210.201V380.252C69.6744 389.499 76.1718 400.745 84.1805 405.361C92.1892 409.979 98.6747 406.242 98.6747 397.031V226.945C98.7037 226.045 98.9661 225.166 99.4363 224.399L104.256 227.195Z" fill="#EBEBEB"/>
<path d="M94.5931 221.613C94.132 222.38 93.874 223.253 93.8434 224.149V394.2C93.8434 400.363 89.5118 402.862 84.1806 399.78C78.8494 396.699 74.5059 389.214 74.5059 383.049V213.176C74.5385 212.224 74.8307 211.298 75.3508 210.499L80.1108 213.236C79.6497 214.008 79.3917 214.883 79.3611 215.782V385.833C79.4546 387.504 79.9408 389.13 80.7804 390.576C81.6198 392.024 82.7889 393.252 84.1925 394.163C86.8581 395.71 89.012 394.461 89.012 391.379V221.34C89.0409 220.44 89.3034 219.563 89.7736 218.794L94.5931 221.613Z" fill="#EBEBEB"/>
<path d="M228.48 115.549L214.711 123.498L72.2568 205.739C71.4959 206.212 70.8692 206.871 70.4361 207.655L65.5928 204.871C66.0254 204.084 66.6522 203.42 67.4135 202.942L209.856 120.702L212.606 119.107L215.39 117.536L217.77 116.156L219.186 115.335L221.816 113.824C222.583 113.416 223.435 113.195 224.304 113.178C225.172 113.161 226.033 113.35 226.814 113.728C227.517 114.18 228.092 114.808 228.48 115.549Z" fill="#FAFAFA"/>
<path d="M262.288 135.077L248.519 143.026L224.35 156.973L106.088 225.267C105.326 225.748 104.696 226.41 104.256 227.195L99.4958 224.399C99.922 223.641 100.527 223 101.257 222.53L229.194 148.619L243.688 140.289L253.351 134.708L255.6 133.411L255.85 133.28C256.593 132.924 257.406 132.74 258.23 132.74C259.054 132.74 259.867 132.924 260.61 133.28L260.86 133.435C261.449 133.873 261.936 134.433 262.288 135.077Z" fill="#FAFAFA"/>
<path d="M238.131 121.13L81.9196 211.32C81.1671 211.803 80.5425 212.461 80.0989 213.236L75.3389 210.499C75.7577 209.771 76.3504 209.158 77.0644 208.714L229.194 120.654L231.431 119.357C232.198 118.949 233.051 118.728 233.919 118.711C234.787 118.695 235.647 118.883 236.429 119.262C237.15 119.726 237.736 120.37 238.131 121.13Z" fill="#FAFAFA"/>
<path d="M252.649 129.484L96.3901 219.686C95.6254 220.162 94.9947 220.826 94.5575 221.613L89.7261 218.817C90.1822 218.023 90.8387 217.363 91.6301 216.902L238.905 131.864L246.045 127.77C246.812 127.364 247.665 127.145 248.533 127.131C249.401 127.116 250.262 127.307 251.043 127.687C251.723 128.138 252.277 128.757 252.649 129.484Z" fill="#FAFAFA"/>
<path d="M262.99 137.635V306.222C262.99 313.136 260.61 317.98 256.767 320.122L97.1636 412.276C98.5766 411.426 99.802 410.298 100.766 408.96C101.729 407.622 102.411 406.103 102.768 404.493C102.84 404.255 102.899 404.005 102.959 403.755C103.018 403.505 103.066 403.197 103.125 402.91C103.185 402.624 103.221 402.304 103.268 401.982C103.429 400.768 103.509 399.543 103.506 398.317V229.73C103.535 228.834 103.793 227.961 104.256 227.195C104.697 226.41 105.327 225.748 106.089 225.267L224.35 156.985L248.519 143.038L262.288 135.089C262.737 135.864 262.978 136.741 262.99 137.635Z" fill="#F5F5F5"/>
<path d="M120.595 228.064L144.395 214.295C145.823 213.474 146.965 214.128 146.965 215.782V248.901C146.919 249.795 146.662 250.664 146.215 251.439C145.768 252.216 145.144 252.875 144.395 253.363L120.595 267.131C119.167 267.953 118.012 267.286 118.012 265.643V232.526C118.061 231.632 118.32 230.761 118.769 229.986C119.217 229.209 119.843 228.552 120.595 228.064Z" fill="#165069"/>
<path d="M118.012 279.781L248.531 204.43V210.011L118.012 285.362V279.781Z" fill="#2C557D"/>
<path opacity="0.4" d="M118.012 279.781L248.531 204.43V210.011L118.012 285.362V279.781Z" fill="white"/>
<path d="M119.559 295.631L145.477 280.674C146.322 280.173 147.013 280.578 147.013 281.566V333.807C146.985 334.343 146.831 334.864 146.565 335.328C146.298 335.794 145.925 336.19 145.477 336.485L119.559 351.442C118.702 351.942 118.012 351.538 118.012 350.55V298.309C118.04 297.773 118.195 297.25 118.464 296.784C118.733 296.319 119.108 295.924 119.559 295.631Z" fill="#F0F0F0"/>
<path d="M119.559 357L145.477 342.03C146.322 341.542 147.013 341.946 147.013 342.923V383.81L118.012 400.589V359.713C118.035 359.171 118.187 358.64 118.456 358.169C118.725 357.697 119.103 357.296 119.559 357Z" fill="#F0F0F0"/>
<path d="M153.403 276.08L179.309 261.121C180.166 260.634 180.856 261.027 180.856 262.014V331.034C180.827 331.571 180.673 332.092 180.403 332.558C180.134 333.023 179.76 333.418 179.309 333.711L153.403 348.67C152.546 349.158 151.856 348.765 151.856 347.778V278.757C151.887 278.222 152.043 277.7 152.312 277.235C152.581 276.77 152.955 276.374 153.403 276.08Z" fill="#F0F0F0"/>
<path d="M187.234 256.564L213.141 241.57C213.997 241.07 214.688 241.475 214.688 242.462V294.704C214.659 295.241 214.505 295.762 214.237 296.228C213.967 296.693 213.591 297.088 213.141 297.381L187.234 312.375C186.378 312.875 185.687 312.47 185.687 311.482V259.242C185.716 258.704 185.87 258.183 186.139 257.717C186.409 257.252 186.784 256.857 187.234 256.564Z" fill="#F0F0F0"/>
<path d="M221.078 237.024L246.984 222.066C247.842 221.566 248.531 221.97 248.531 222.959V291.979C248.501 292.514 248.344 293.036 248.075 293.501C247.807 293.965 247.433 294.362 246.984 294.656L221.078 309.614C220.222 310.102 219.531 309.71 219.531 308.721V239.701C219.56 239.166 219.714 238.642 219.984 238.177C220.252 237.712 220.627 237.317 221.078 237.024Z" fill="#F0F0F0"/>
<path d="M153.403 354.239L179.309 339.281C180.166 338.781 180.856 339.185 180.856 340.174V364.306L151.856 381.062V356.916C151.884 356.381 152.039 355.857 152.308 355.392C152.576 354.927 152.952 354.532 153.403 354.239Z" fill="#F0F0F0"/>
<path d="M185.64 320.633V361.522L214.641 344.778V303.891C214.641 302.902 213.95 302.51 213.094 302.998L187.187 317.956C186.737 318.249 186.362 318.644 186.093 319.109C185.824 319.574 185.669 320.098 185.64 320.633Z" fill="#F0F0F0"/>
<path d="M221.067 315.172L246.984 300.213C247.842 299.714 248.531 300.118 248.531 301.105V325.239L219.531 341.982V317.849C219.56 317.314 219.712 316.792 219.979 316.326C220.246 315.861 220.618 315.466 221.067 315.172Z" fill="#F0F0F0"/>
<path d="M158.27 357L174.513 347.623C175.371 347.123 176.06 347.527 176.06 348.516V361.76C176.033 362.297 175.877 362.819 175.609 363.284C175.34 363.749 174.965 364.145 174.513 364.437L158.27 373.791C157.412 374.279 156.723 373.886 156.723 372.899V359.725C156.744 359.18 156.895 358.648 157.164 358.173C157.434 357.7 157.812 357.297 158.27 357Z" fill="#E0E0E0"/>
<path d="M225.909 317.98L242.153 308.602C242.998 308.103 243.7 308.508 243.7 309.495V322.669C243.668 323.204 243.512 323.726 243.244 324.19C242.975 324.655 242.601 325.05 242.153 325.346L225.909 334.723C225.053 335.211 224.362 334.819 224.362 333.83V320.658C224.391 320.121 224.545 319.599 224.814 319.132C225.084 318.667 225.459 318.272 225.909 317.98Z" fill="#E0E0E0"/>
<path d="M124.391 298.428L140.634 289.039C141.491 288.551 142.181 288.956 142.181 289.931V303.117C142.15 303.653 141.994 304.175 141.726 304.638C141.457 305.104 141.083 305.5 140.634 305.795L124.391 315.171C123.546 315.66 122.844 315.266 122.844 314.279V301.07C122.878 300.539 123.036 300.025 123.305 299.566C123.573 299.108 123.945 298.717 124.391 298.428Z" fill="#E0E0E0"/>
<path d="M123.879 318.253L141.158 308.282C141.729 307.96 142.181 308.222 142.181 308.877V309.293C142.163 309.65 142.061 309.998 141.883 310.308C141.705 310.617 141.457 310.881 141.158 311.078L123.879 321.05C123.308 321.384 122.844 321.05 122.844 320.455V320.038C122.864 319.681 122.969 319.332 123.148 319.022C123.328 318.713 123.578 318.449 123.879 318.253Z" fill="#E0E0E0"/>
<path d="M123.879 323.834L141.158 313.863C141.729 313.541 142.181 313.803 142.181 314.458V314.874C142.163 315.231 142.061 315.579 141.883 315.889C141.705 316.2 141.457 316.462 141.158 316.659L123.879 326.631C123.308 326.965 122.844 326.631 122.844 326.036V325.619C122.864 325.262 122.969 324.914 123.148 324.603C123.328 324.293 123.578 324.031 123.879 323.834Z" fill="#E0E0E0"/>
<path d="M123.879 329.416L141.158 319.443C141.729 319.123 142.181 319.384 142.181 320.038V320.455C142.163 320.812 142.061 321.16 141.883 321.469C141.705 321.781 141.457 322.045 141.158 322.24L123.879 332.213C123.308 332.546 122.844 332.272 122.844 331.618V331.201C122.864 330.843 122.969 330.495 123.148 330.185C123.328 329.874 123.578 329.612 123.879 329.416Z" fill="#E0E0E0"/>
<path d="M123.879 334.997L141.158 325.024C141.729 324.704 142.181 324.965 142.181 325.619V326.06C142.163 326.417 142.061 326.765 141.883 327.075C141.705 327.386 141.457 327.648 141.158 327.845L123.879 337.817C123.308 338.151 122.844 337.876 122.844 337.222V336.77C122.866 336.415 122.971 336.068 123.151 335.76C123.331 335.453 123.58 335.191 123.879 334.997Z" fill="#E0E0E0"/>
<path d="M123.879 340.578L141.158 330.606C141.729 330.285 142.181 330.547 142.181 331.201V331.618C142.163 331.975 142.061 332.323 141.883 332.632C141.705 332.942 141.457 333.206 141.158 333.403L123.879 343.375C123.308 343.707 122.844 343.434 122.844 342.78V342.363C122.864 342.005 122.969 341.657 123.148 341.347C123.328 341.037 123.578 340.773 123.879 340.578Z" fill="#E0E0E0"/>
<path d="M158.27 278.889L174.513 269.511C175.371 269.012 176.06 269.416 176.06 270.403V283.577C176.031 284.114 175.876 284.636 175.607 285.101C175.339 285.566 174.963 285.962 174.513 286.255L158.27 295.631C157.412 296.119 156.723 295.727 156.723 294.739V281.566C156.75 281.029 156.906 280.507 157.174 280.041C157.443 279.575 157.818 279.18 158.27 278.889Z" fill="#E0E0E0"/>
<path d="M157.71 298.69L174.99 288.718C175.56 288.384 176.025 288.647 176.025 289.313V289.718C176.006 290.076 175.902 290.424 175.722 290.734C175.542 291.045 175.29 291.307 174.99 291.503L157.71 301.474C157.152 301.808 156.688 301.474 156.688 300.879V300.475C156.706 300.118 156.807 299.77 156.985 299.46C157.164 299.149 157.411 298.887 157.71 298.69Z" fill="#E0E0E0"/>
<path d="M157.71 304.307L174.99 294.334C175.56 294.002 176.025 294.263 176.025 294.929V295.334C176.006 295.692 175.902 296.04 175.722 296.351C175.542 296.661 175.29 296.925 174.99 297.119L157.71 307.092C157.152 307.424 156.688 307.151 156.688 306.497V306.092C156.706 305.735 156.807 305.388 156.985 305.076C157.164 304.767 157.411 304.503 157.71 304.307Z" fill="#E0E0E0"/>
<path d="M157.71 309.888L174.99 299.88C175.56 299.547 176.025 299.808 176.025 300.475V300.879C176.006 301.238 175.902 301.586 175.722 301.897C175.542 302.207 175.29 302.471 174.99 302.664L157.71 312.637C157.152 312.97 156.688 312.697 156.688 312.042V311.637C156.711 311.286 156.816 310.946 156.993 310.642C157.172 310.338 157.416 310.08 157.71 309.888Z" fill="#E0E0E0"/>
<path d="M157.71 315.469L174.99 305.497C175.56 305.163 176.025 305.426 176.025 306.092V306.497C176.006 306.855 175.902 307.203 175.722 307.513C175.542 307.824 175.29 308.086 174.99 308.282L157.71 318.253C157.152 318.587 156.688 318.313 156.688 317.658V317.254C156.706 316.897 156.807 316.549 156.985 316.239C157.164 315.928 157.411 315.666 157.71 315.469Z" fill="#E0E0E0"/>
<path d="M157.71 321.05L174.99 311.078C175.56 310.744 176.025 311.007 176.025 311.673V312.078C176.006 312.436 175.902 312.784 175.722 313.094C175.542 313.405 175.29 313.667 174.99 313.863L157.71 323.834C157.152 324.168 156.688 323.894 156.688 323.239V322.835C156.706 322.478 156.807 322.13 156.985 321.82C157.164 321.511 157.411 321.247 157.71 321.05Z" fill="#E0E0E0"/>
<path d="M157.71 326.631L174.99 316.659C175.56 316.326 176.025 316.599 176.025 317.254V317.658C176.007 318.017 175.903 318.366 175.723 318.677C175.543 318.987 175.292 319.25 174.99 319.443L157.71 329.416C157.152 329.749 156.688 329.487 156.688 328.821V328.44C156.705 328.08 156.807 327.727 156.984 327.413C157.162 327.1 157.411 326.832 157.71 326.631Z" fill="#E0E0E0"/>
<path d="M157.71 332.213L174.99 322.24C175.56 321.907 176.025 322.18 176.025 322.835V323.239C176.007 323.598 175.903 323.947 175.723 324.258C175.543 324.568 175.292 324.832 174.99 325.024L157.71 334.997C157.152 335.33 156.688 335.069 156.688 334.402V333.998C156.708 333.641 156.812 333.295 156.989 332.985C157.167 332.675 157.414 332.41 157.71 332.213Z" fill="#E0E0E0"/>
<path d="M157.71 337.794L174.99 327.821C175.56 327.488 176.025 327.761 176.025 328.416V328.821C176.007 329.18 175.903 329.528 175.723 329.839C175.543 330.15 175.292 330.413 174.99 330.606L157.71 340.578C157.152 340.911 156.688 340.65 156.688 339.983V339.579C156.708 339.222 156.812 338.875 156.989 338.566C157.167 338.256 157.414 337.992 157.71 337.794Z" fill="#E0E0E0"/>
<path d="M124.391 359.832L140.634 350.443C141.491 349.955 142.181 350.36 142.181 351.335V364.521C142.152 365.057 141.997 365.579 141.728 366.044C141.459 366.509 141.085 366.904 140.634 367.199L124.391 376.576C123.546 377.064 122.844 376.67 122.844 375.683V362.509C122.873 361.974 123.028 361.452 123.297 360.987C123.566 360.521 123.941 360.126 124.391 359.832Z" fill="#E0E0E0"/>
<path d="M123.879 379.61L141.158 369.638C141.729 369.317 142.181 369.579 142.181 370.233V370.65C142.163 371.007 142.061 371.355 141.883 371.664C141.705 371.974 141.457 372.238 141.158 372.435L123.879 382.407C123.308 382.739 122.844 382.466 122.844 381.812V381.395C122.864 381.037 122.969 380.689 123.148 380.379C123.328 380.069 123.578 379.805 123.879 379.61Z" fill="#E0E0E0"/>
<path d="M123.879 385.238L141.158 375.266C141.729 374.945 142.181 375.207 142.181 375.861V376.278C142.163 376.635 142.061 376.983 141.883 377.293C141.705 377.604 141.457 377.866 141.158 378.063L123.879 388.035C123.308 388.369 122.844 388.094 122.844 387.44V387.023C122.864 386.666 122.969 386.318 123.148 386.007C123.328 385.697 123.578 385.435 123.879 385.238Z" fill="#E0E0E0"/>
<path d="M123.879 390.831L141.158 380.8C141.729 380.478 142.181 380.741 142.181 381.395V381.812C142.163 382.169 142.061 382.516 141.883 382.826C141.705 383.137 141.457 383.4 141.158 383.597L123.879 393.568C123.308 393.902 122.844 393.628 122.844 392.973V392.569C122.869 392.219 122.975 391.879 123.155 391.577C123.335 391.275 123.583 391.02 123.879 390.831Z" fill="#E0E0E0"/>
<path d="M192.066 259.348L208.31 249.972C209.167 249.484 209.857 249.876 209.857 250.864V264.037C209.829 264.574 209.673 265.097 209.405 265.562C209.136 266.028 208.761 266.423 208.31 266.714L192.066 276.08C191.221 276.568 190.519 276.164 190.519 275.188V262.026C190.551 261.49 190.708 260.97 190.977 260.505C191.245 260.041 191.619 259.644 192.066 259.348Z" fill="#E0E0E0"/>
<path d="M191.59 279.186L208.87 269.213C209.428 268.893 209.892 269.213 209.892 269.808V270.225C209.872 270.582 209.768 270.928 209.591 271.238C209.413 271.547 209.166 271.813 208.87 272.01L191.59 282.03C191.02 282.352 190.554 282.03 190.554 281.435V281.019C190.568 280.652 190.669 280.295 190.849 279.977C191.029 279.658 191.283 279.386 191.59 279.186Z" fill="#E0E0E0"/>
<path d="M191.59 284.767L208.87 274.795C209.428 274.474 209.892 274.795 209.892 275.39V275.807C209.872 276.162 209.768 276.509 209.591 276.818C209.413 277.128 209.166 277.394 208.87 277.592L191.59 287.564C191.02 287.885 190.554 287.564 190.554 286.969V286.552C190.576 286.194 190.679 285.846 190.859 285.536C191.039 285.226 191.29 284.962 191.59 284.767Z" fill="#E0E0E0"/>
<path d="M191.59 290.36L208.87 280.388C209.428 280.067 209.892 280.329 209.892 280.983V281.4C209.872 281.755 209.768 282.102 209.591 282.411C209.413 282.721 209.166 282.987 208.87 283.185L191.59 293.144C191.02 293.466 190.554 293.144 190.554 292.549V292.133C190.577 291.777 190.682 291.431 190.862 291.124C191.042 290.816 191.291 290.554 191.59 290.36Z" fill="#E0E0E0"/>
<path d="M191.59 295.929L208.87 285.957C209.428 285.635 209.892 285.898 209.892 286.552V286.969C209.872 287.326 209.768 287.672 209.591 287.982C209.413 288.291 209.166 288.555 208.87 288.754L191.59 298.69C191.02 299.012 190.554 298.75 190.554 298.095V297.679C190.58 297.326 190.687 296.986 190.867 296.682C191.047 296.379 191.294 296.121 191.59 295.929Z" fill="#E0E0E0"/>
<path d="M191.59 301.511L208.833 291.55C209.393 291.228 209.857 291.491 209.857 292.145V292.562C209.835 292.919 209.733 293.265 209.555 293.575C209.378 293.884 209.13 294.148 208.833 294.347L191.59 304.307C191.02 304.628 190.554 304.367 190.554 303.712V303.296C190.576 302.937 190.679 302.59 190.859 302.28C191.039 301.969 191.29 301.706 191.59 301.511Z" fill="#E0E0E0"/>
<path d="M225.909 239.82L242.153 230.444C242.998 229.943 243.7 230.349 243.7 231.336V244.51C243.668 245.045 243.512 245.566 243.244 246.031C242.975 246.496 242.601 246.891 242.153 247.187L225.909 256.564C225.053 257.052 224.362 256.659 224.362 255.672V242.498C224.391 241.962 224.545 241.439 224.814 240.974C225.084 240.508 225.459 240.113 225.909 239.82Z" fill="#E0E0E0"/>
<path d="M225.386 259.646L242.665 249.674C243.236 249.352 243.7 249.615 243.7 250.269V250.686C243.68 251.043 243.575 251.392 243.396 251.702C243.216 252.011 242.966 252.275 242.665 252.471L225.386 262.442C224.826 262.776 224.362 262.502 224.362 261.847V261.431C224.384 261.075 224.487 260.727 224.664 260.418C224.841 260.108 225.088 259.844 225.386 259.646Z" fill="#E0E0E0"/>
<path d="M225.386 265.239L242.665 255.255C243.236 254.933 243.7 255.196 243.7 255.85V256.267C243.68 256.625 243.575 256.973 243.396 257.283C243.216 257.592 242.966 257.856 242.665 258.052L225.386 268.023C224.826 268.357 224.362 268.083 224.362 267.428V267.024C224.381 266.667 224.483 266.319 224.661 266.009C224.838 265.7 225.087 265.436 225.386 265.239Z" fill="#E0E0E0"/>
<path d="M225.386 270.82L242.665 260.836C243.236 260.515 243.7 260.776 243.7 261.431V261.8C243.68 262.159 243.575 262.506 243.396 262.816C243.216 263.126 242.966 263.39 242.665 263.585L225.386 273.557C224.826 273.891 224.362 273.616 224.362 272.962V272.557C224.388 272.21 224.494 271.871 224.67 271.569C224.849 271.268 225.093 271.012 225.386 270.82Z" fill="#E0E0E0"/>
<path d="M225.386 276.402L242.665 266.417C243.236 266.096 243.7 266.417 243.7 267.012V267.428C243.68 267.787 243.575 268.134 243.396 268.444C243.216 268.755 242.966 269.018 242.665 269.213L225.386 279.186C224.826 279.519 224.362 279.186 224.362 278.591V278.187C224.381 277.83 224.483 277.482 224.661 277.171C224.838 276.861 225.087 276.597 225.386 276.402Z" fill="#E0E0E0"/>
<path d="M225.386 282.03L242.665 272.046C243.236 271.724 243.7 272.046 243.7 272.641V273.058C243.68 273.415 243.575 273.764 243.396 274.074C243.216 274.383 242.966 274.647 242.665 274.843L225.386 284.767C224.826 285.1 224.362 284.767 224.362 284.172V283.768C224.388 283.418 224.494 283.08 224.67 282.779C224.849 282.477 225.093 282.221 225.386 282.03Z" fill="#E0E0E0"/>
<path d="M225.386 287.563L242.665 277.592C243.236 277.258 243.7 277.52 243.7 278.187V278.591C243.68 278.95 243.576 279.298 243.396 279.607C243.216 279.919 242.966 280.181 242.665 280.376L225.386 290.36C224.826 290.693 224.362 290.36 224.362 289.765V289.361C224.381 289.002 224.481 288.651 224.66 288.34C224.837 288.027 225.085 287.762 225.386 287.563Z" fill="#E0E0E0"/>
<path d="M225.386 293.144L242.665 283.22C243.236 282.887 243.7 283.148 243.7 283.815V284.219C243.68 284.578 243.576 284.926 243.396 285.237C243.216 285.547 242.966 285.811 242.665 286.004L225.386 295.977C224.826 296.31 224.362 295.977 224.362 295.382V294.977C224.375 294.612 224.474 294.255 224.651 293.936C224.829 293.617 225.081 293.346 225.386 293.144Z" fill="#E0E0E0"/>
<path d="M225.386 298.69L242.665 288.718C243.236 288.384 243.7 288.647 243.7 289.313V289.718C243.68 290.076 243.576 290.424 243.396 290.734C243.216 291.045 242.966 291.307 242.665 291.503L225.386 301.474C224.826 301.808 224.362 301.546 224.362 300.879V300.475C224.382 300.118 224.484 299.77 224.661 299.46C224.84 299.151 225.087 298.887 225.386 298.69Z" fill="#E0E0E0"/>
<path d="M192.066 320.752L208.31 311.376C209.167 310.887 209.857 311.28 209.857 312.268V325.441C209.829 325.978 209.673 326.501 209.405 326.966C209.136 327.432 208.761 327.827 208.31 328.118L192.066 337.508C191.221 337.995 190.519 337.591 190.519 336.616V323.43C190.551 322.894 190.708 322.374 190.977 321.909C191.245 321.445 191.619 321.048 192.066 320.752Z" fill="#E0E0E0"/>
<path d="M191.59 340.59L208.87 330.617C209.428 330.297 209.892 330.558 209.892 331.212V331.629C209.872 331.986 209.768 332.332 209.591 332.642C209.413 332.951 209.166 333.217 208.87 333.414L191.59 343.387C191.02 343.707 190.554 343.446 190.554 342.792V342.375C190.576 342.017 190.679 341.669 190.859 341.359C191.039 341.049 191.29 340.786 191.59 340.59Z" fill="#E0E0E0"/>
<path d="M191.59 346.171L208.87 336.199C209.428 335.877 209.892 336.199 209.892 336.794V337.211C209.872 337.566 209.768 337.913 209.591 338.222C209.413 338.532 209.166 338.798 208.87 338.996L191.59 348.967C191.02 349.289 190.554 349.027 190.554 348.372V347.956C190.576 347.597 190.679 347.25 190.859 346.94C191.039 346.63 191.29 346.366 191.59 346.171Z" fill="#E0E0E0"/>
<path d="M191.59 351.752L208.87 341.78C209.428 341.458 209.892 341.78 209.892 342.375V342.792C209.872 343.147 209.768 343.495 209.591 343.805C209.413 344.114 209.166 344.378 208.87 344.577L191.59 354.548C191.02 354.87 190.554 354.608 190.554 353.953V353.537C190.576 353.18 190.679 352.83 190.859 352.521C191.039 352.211 191.29 351.947 191.59 351.752Z" fill="#E0E0E0"/>
<path d="M157.437 242.832C157.199 242.752 157.08 242.527 157.08 242.153C157.094 241.791 157.167 241.433 157.294 241.094L158.58 237.001C158.661 236.631 158.847 236.293 159.115 236.024C159.202 235.977 159.301 235.951 159.401 235.951C159.5 235.951 159.599 235.977 159.686 236.024C160.348 236.302 161.068 236.407 161.782 236.332C162.495 236.258 163.178 236.004 163.768 235.596C164.832 234.976 165.666 234.029 166.148 232.895C166.704 231.504 166.968 230.013 166.922 228.515V204.514C166.899 203.821 167.026 203.131 167.29 202.491C167.575 201.9 168.043 201.415 168.623 201.11L171.265 199.587C171.86 199.241 172.288 199.194 172.538 199.456C172.852 199.929 172.988 200.498 172.919 201.063V225.148C172.962 228.527 172.246 231.874 170.825 234.941C169.529 237.765 167.387 240.114 164.696 241.665C161.832 243.323 159.413 243.712 157.437 242.832Z" fill="#165069"/>
<path d="M178.869 228.373C176.735 226.184 175.668 221.99 175.668 215.794C175.546 210.204 176.639 204.654 178.869 199.528C180.77 195.142 184.017 191.474 188.139 189.056C192.173 186.676 195.279 186.676 197.386 188.841C199.491 191.007 200.587 195.207 200.587 201.407C200.707 206.997 199.616 212.548 197.386 217.675C195.488 222.052 192.251 225.716 188.139 228.135C184.093 230.468 181.004 230.547 178.869 228.373ZM193.053 215.474C194.264 212.037 194.829 208.406 194.719 204.764C194.719 200.471 194.164 197.552 193.053 196.005C191.947 194.458 190.316 194.315 188.139 195.564C185.831 196.98 184.082 199.148 183.188 201.705C181.98 205.142 181.42 208.773 181.534 212.415C181.534 216.699 182.082 219.627 183.188 221.161C184.296 222.696 185.95 222.852 188.139 221.578C190.438 220.177 192.176 218.019 193.053 215.474Z" fill="#165069"/>
<path d="M203.894 217.639C203.58 217.18 203.446 216.621 203.514 216.069V183.426C203.495 182.729 203.624 182.035 203.894 181.391C204.141 180.839 204.558 180.381 205.084 180.082L215.556 174.025C218.191 172.51 220.174 172.304 221.506 173.407C222.84 174.509 223.494 176.691 223.47 179.952C223.471 181.676 223.201 183.391 222.673 185.033C222.21 186.555 221.464 187.977 220.472 189.222C222.922 189.056 224.149 191.119 224.149 195.41C224.147 197.516 223.831 199.61 223.209 201.621C222.582 203.652 221.612 205.56 220.341 207.263C219.064 208.976 217.442 210.403 215.581 211.451L205.109 217.508C204.549 217.83 204.144 217.877 203.894 217.639ZM214.604 189.746C215.559 189.187 216.33 188.359 216.818 187.366C217.375 186.23 217.648 184.976 217.616 183.712C217.616 182.213 217.366 181.332 216.877 180.915C216.389 180.499 215.628 180.677 214.604 181.261L209.44 184.259V192.78L214.604 189.746ZM215.176 205.049C216.238 204.45 217.076 203.517 217.556 202.395C218.081 201.186 218.345 199.88 218.33 198.564C218.33 196.992 218.032 195.981 217.437 195.541C216.842 195.101 215.997 195.184 214.926 195.802L209.44 198.956V208.369L215.176 205.049Z" fill="#165069"/>
<path d="M229.444 203.371C228.086 203.769 226.636 203.71 225.314 203.205C225.159 203.136 225.026 203.025 224.93 202.884C224.835 202.742 224.783 202.578 224.779 202.407C224.794 202.111 224.855 201.818 224.957 201.539L226.433 197.111C226.494 196.794 226.657 196.506 226.898 196.291C226.98 196.246 227.072 196.223 227.165 196.223C227.258 196.223 227.351 196.246 227.433 196.291C228.424 196.556 229.459 196.596 230.468 196.41C231.688 196.19 232.862 195.755 233.93 195.125C235.17 194.457 236.227 193.497 237.013 192.328C237.701 191.184 238.047 189.866 238.012 188.531C238.072 187.785 237.902 187.038 237.524 186.389C237.176 185.934 236.664 185.635 236.096 185.556C235.13 185.428 234.155 185.364 233.181 185.367C231.873 185.397 230.567 185.245 229.301 184.914C228.207 184.581 227.278 183.85 226.695 182.868C225.915 181.408 225.56 179.759 225.671 178.108C225.629 174.799 226.483 171.542 228.147 168.683C229.696 165.968 231.939 163.714 234.644 162.15C238.214 160.09 240.916 159.555 242.795 160.519C242.946 160.595 243.073 160.71 243.167 160.848C243.26 160.987 243.317 161.149 243.331 161.317C243.315 161.613 243.256 161.906 243.152 162.185L241.689 166.612C241.63 166.927 241.466 167.212 241.225 167.421C241.143 167.468 241.051 167.493 240.957 167.493C240.864 167.493 240.771 167.468 240.69 167.421C239.237 166.794 237.477 167.076 235.406 168.266C234.212 168.881 233.216 169.821 232.532 170.976C231.847 172.132 231.504 173.456 231.539 174.799C231.484 175.519 231.641 176.237 231.991 176.869C232.264 177.292 232.691 177.589 233.181 177.702C233.997 177.85 234.827 177.919 235.655 177.905H236.656C238.047 177.911 239.431 178.123 240.761 178.535C241.777 178.906 242.607 179.663 243.07 180.642C243.689 182.149 243.961 183.776 243.866 185.402C243.869 188.549 243.048 191.642 241.486 194.374C239.892 197.207 237.544 199.542 234.703 201.122C233.078 202.143 231.304 202.901 229.444 203.371Z" fill="#165069"/>
<path d="M378.147 88.8571L373.315 86.0606C372.964 85.8975 372.575 85.8313 372.191 85.8689C371.806 85.9066 371.437 86.0467 371.126 86.2748L309.638 121.856C308.739 122.444 307.992 123.235 307.453 124.165C306.916 125.095 306.605 126.138 306.544 127.211V253.946C306.503 254.329 306.565 254.717 306.724 255.069C306.883 255.42 307.133 255.722 307.449 255.945L312.209 258.729H312.28C312.622 258.868 312.993 258.917 313.359 258.874C313.725 258.83 314.075 258.694 314.374 258.48L330.617 249.102V258.872C330.617 260.598 330.892 261.597 331.343 261.872L336.103 264.644C336.651 264.941 337.449 264.18 338.341 262.264L349.86 237.869L375.767 222.828C376.666 222.239 377.413 221.448 377.95 220.518C378.487 219.587 378.8 218.545 378.861 217.473V90.8444C378.919 90.4797 378.885 90.1059 378.76 89.7584C378.635 89.4107 378.425 89.1006 378.147 88.8571Z" fill="#165069"/>
<path opacity="0.4" d="M378.028 88.7858C377.685 88.6636 377.319 88.6245 376.959 88.6721C376.598 88.7197 376.255 88.8526 375.956 89.0595L314.458 124.652C313.565 125.208 312.827 125.982 312.316 126.901L307.484 124.105C307.992 123.183 308.73 122.408 309.626 121.856L371.114 86.263C371.527 86.0093 371.997 85.866 372.482 85.8465C372.769 85.8411 373.051 85.9109 373.303 86.0488L378.028 88.7858Z" fill="white"/>
<path opacity="0.2" d="M331.427 261.919C330.986 261.646 330.713 260.645 330.713 258.92V249.162L335.58 246.33V261.681C335.58 263.323 335.83 264.323 336.222 264.656L331.427 261.919Z" fill="black"/>
<path opacity="0.1" d="M312.303 258.741L307.472 255.957C307.163 255.731 306.919 255.43 306.762 255.081C306.607 254.733 306.543 254.35 306.579 253.97V127.211C306.623 126.111 306.951 125.041 307.531 124.105L312.363 126.902C311.786 127.838 311.461 128.908 311.423 130.007V256.743C311.379 257.124 311.437 257.51 311.591 257.862C311.746 258.213 311.992 258.517 312.303 258.741Z" fill="black"/>
<path d="M323.608 130.519L366.793 105.529C368.221 104.708 369.376 105.374 369.376 107.017V134.47C369.327 135.366 369.068 136.238 368.619 137.016C368.171 137.793 367.545 138.454 366.793 138.944L323.608 163.935C322.193 164.755 321.038 164.089 321.038 162.447V134.982C321.088 134.089 321.346 133.219 321.791 132.444C322.238 131.669 322.861 131.01 323.608 130.519Z" fill="white"/>
<path d="M369.376 145.882C369.313 146.749 369.046 147.589 368.598 148.333C368.149 149.078 367.532 149.706 366.793 150.166L323.608 175.096C322.193 175.917 321.038 175.334 321.038 173.787C321.103 172.924 321.369 172.088 321.816 171.346C322.261 170.603 322.876 169.976 323.608 169.515L366.793 144.585C368.221 143.764 369.376 144.347 369.376 145.882Z" fill="white"/>
<path d="M369.376 157.08C369.313 157.947 369.046 158.787 368.598 159.532C368.149 160.276 367.532 160.903 366.793 161.364L323.608 186.354C322.193 187.175 321.038 186.592 321.038 185.045C321.103 184.182 321.369 183.345 321.816 182.602C322.261 181.861 322.876 181.234 323.608 180.773L366.793 155.783C368.221 154.926 369.376 155.509 369.376 157.08Z" fill="white"/>
<path d="M369.376 168.207C369.313 169.073 369.046 169.914 368.598 170.658C368.149 171.403 367.532 172.03 366.793 172.491L323.608 197.481C322.193 198.301 321.038 197.719 321.038 196.172C321.103 195.308 321.369 194.472 321.816 193.729C322.261 192.988 322.876 192.36 323.608 191.9L366.793 166.91C368.221 166.089 369.376 166.672 369.376 168.207Z" fill="white"/>
<path d="M369.376 179.368C369.313 180.236 369.046 181.075 368.598 181.82C368.149 182.564 367.532 183.193 366.793 183.652L323.608 208.583C322.193 209.405 321.038 208.821 321.038 207.274C321.103 206.41 321.369 205.574 321.816 204.833C322.261 204.09 322.876 203.464 323.608 203.002L366.793 178.012C368.221 177.31 369.376 177.833 369.376 179.368Z" fill="white"/>
<path d="M321.038 218.449C321.038 219.984 322.228 220.567 323.608 219.746L328.13 217.14C328.864 216.678 329.477 216.051 329.924 215.309C330.37 214.568 330.637 213.73 330.701 212.867C330.701 211.32 329.511 210.737 328.13 211.558L323.608 214.165C322.874 214.627 322.26 215.256 321.813 216C321.366 216.743 321.1 217.582 321.038 218.449Z" fill="white"/>
<path d="M337.246 209.107C337.246 210.642 338.436 211.225 339.829 210.404L366.793 194.815C367.532 194.354 368.149 193.726 368.598 192.981C369.047 192.238 369.314 191.398 369.376 190.531C369.376 188.996 368.186 188.412 366.793 189.234L339.829 204.823C339.091 205.283 338.473 205.911 338.024 206.656C337.576 207.4 337.309 208.239 337.246 209.107Z" fill="white"/>
<path d="M321.038 229.67C321.038 231.205 322.228 231.788 323.608 230.967L328.13 228.361C328.864 227.9 329.477 227.273 329.924 226.53C330.37 225.789 330.637 224.953 330.701 224.089C330.701 222.542 329.511 221.959 328.13 222.78L323.608 225.386C322.874 225.848 322.26 226.477 321.813 227.221C321.366 227.966 321.1 228.805 321.038 229.67Z" fill="white"/>
<path d="M337.246 220.269C337.246 221.804 338.436 222.387 339.829 221.566L366.793 205.977C367.532 205.516 368.149 204.889 368.598 204.144C369.047 203.4 369.314 202.559 369.376 201.693C369.376 200.158 368.186 199.575 366.793 200.396L339.829 215.985C339.091 216.446 338.473 217.073 338.024 217.817C337.576 218.562 337.309 219.402 337.246 220.269Z" fill="white"/>
<path d="M321.038 240.772C321.038 242.308 322.228 242.891 323.608 242.07L328.13 239.463C328.864 239.002 329.477 238.375 329.924 237.634C330.37 236.891 330.637 236.055 330.701 235.191C330.701 233.644 329.511 233.062 328.13 233.882L323.608 236.488C322.874 236.952 322.26 237.58 321.813 238.323C321.366 239.068 321.1 239.907 321.038 240.772Z" fill="white"/>
<path d="M337.246 231.431C337.246 232.967 338.436 233.55 339.829 232.729L366.793 217.14C367.53 216.681 368.146 216.054 368.595 215.312C369.044 214.569 369.312 213.732 369.376 212.867C369.376 211.32 368.186 210.737 366.793 211.558L339.829 227.147C339.091 227.607 338.473 228.236 338.024 228.98C337.576 229.725 337.309 230.564 337.246 231.431Z" fill="white"/>
<path d="M436.182 122.272L431.422 119.476C431.071 119.313 430.684 119.246 430.298 119.284C429.914 119.322 429.546 119.462 429.233 119.69L367.71 155.258C366.811 155.847 366.064 156.639 365.525 157.568C364.988 158.499 364.677 159.541 364.616 160.613V287.348C364.575 287.733 364.637 288.12 364.796 288.471C364.955 288.824 365.205 289.126 365.521 289.349L370.34 292.133H370.4C370.743 292.272 371.117 292.322 371.485 292.278C371.852 292.235 372.205 292.099 372.505 291.883L388.749 282.506V292.276C388.749 294.002 389.023 295.001 389.463 295.274L394.223 298.048H394.282C394.83 298.345 395.628 297.582 396.508 295.668L408.039 271.273L433.946 256.23C434.844 255.643 435.592 254.851 436.129 253.922C436.668 252.991 436.979 251.947 437.04 250.875V124.26C437.083 123.882 437.026 123.501 436.875 123.152C436.726 122.803 436.486 122.5 436.182 122.272Z" fill="#165069"/>
<path opacity="0.4" d="M436.051 122.201C435.709 122.079 435.343 122.04 434.983 122.088C434.623 122.135 434.28 122.268 433.981 122.475L372.47 158.067C371.578 158.624 370.839 159.397 370.328 160.317L365.496 157.521C366.009 156.601 366.746 155.827 367.638 155.271L429.138 119.678C429.55 119.422 430.022 119.279 430.507 119.262C430.789 119.258 431.068 119.328 431.316 119.464L436.051 122.201Z" fill="white"/>
<path opacity="0.2" d="M389.452 295.334C389.011 295.061 388.738 294.061 388.738 292.336V282.578L393.568 279.781V295.12C393.568 296.762 393.818 297.762 394.222 298.095L389.452 295.334Z" fill="black"/>
<path opacity="0.1" d="M370.328 292.157L365.508 289.373C365.199 289.149 364.953 288.847 364.796 288.499C364.639 288.149 364.578 287.765 364.616 287.385V160.65C364.654 159.55 364.979 158.481 365.556 157.544L370.387 160.34C369.811 161.277 369.486 162.347 369.448 163.447V290.182C369.407 290.56 369.468 290.941 369.622 291.288C369.776 291.635 370.02 291.934 370.328 292.157Z" fill="black"/>
<path d="M381.645 163.935L424.83 138.944C426.246 138.123 427.401 138.79 427.401 140.432V167.956C427.352 168.852 427.094 169.723 426.649 170.5C426.202 171.278 425.579 171.938 424.83 172.431L381.645 197.421C380.217 198.242 379.062 197.575 379.062 195.934V168.397C379.111 167.502 379.37 166.632 379.819 165.857C380.268 165.08 380.893 164.423 381.645 163.935Z" fill="white"/>
<path d="M427.401 179.298C427.338 180.163 427.073 181.002 426.626 181.747C426.18 182.49 425.564 183.118 424.83 183.582L381.645 208.512C380.217 209.333 379.062 208.75 379.062 207.203C379.128 206.338 379.395 205.501 379.843 204.758C380.292 204.016 380.91 203.389 381.645 202.93L424.83 178C426.246 177.179 427.401 177.762 427.401 179.298Z" fill="white"/>
<path d="M427.401 190.459C427.338 191.324 427.073 192.164 426.626 192.908C426.18 193.653 425.564 194.281 424.83 194.743L381.645 219.674C380.217 220.495 379.062 219.912 379.062 218.365C379.128 217.5 379.395 216.662 379.843 215.921C380.292 215.178 380.91 214.552 381.645 214.093L424.83 189.21C426.246 188.342 427.401 188.925 427.401 190.459Z" fill="white"/>
<path d="M427.401 201.621C427.332 202.482 427.065 203.313 426.618 204.05C426.173 204.788 425.559 205.411 424.83 205.87L381.645 230.86C380.217 231.681 379.062 231.098 379.062 229.551C379.128 228.686 379.395 227.848 379.843 227.107C380.292 226.364 380.91 225.738 381.645 225.279L424.83 200.324C426.246 199.504 427.401 200.086 427.401 201.621Z" fill="white"/>
<path d="M427.401 212.784C427.338 213.649 427.073 214.488 426.626 215.233C426.18 215.977 425.564 216.606 424.83 217.068L381.645 242.058C380.217 242.879 379.062 242.296 379.062 240.749C379.128 239.884 379.395 239.047 379.843 238.305C380.292 237.562 380.91 236.937 381.645 236.477L424.83 211.487C426.246 210.63 427.401 211.249 427.401 212.784Z" fill="white"/>
<path d="M379.062 251.864C379.062 253.398 380.252 253.981 381.645 253.16L386.155 250.555C386.89 250.095 387.508 249.47 387.957 248.727C388.405 247.985 388.672 247.148 388.738 246.283C388.738 244.736 387.548 244.153 386.155 244.974L381.645 247.58C380.908 248.04 380.289 248.667 379.84 249.412C379.392 250.156 379.125 250.997 379.062 251.864Z" fill="white"/>
<path d="M395.283 242.522C395.283 244.057 396.473 244.64 397.864 243.819L424.83 228.23C425.564 227.768 426.18 227.139 426.626 226.394C427.073 225.65 427.338 224.812 427.401 223.946C427.401 222.411 426.211 221.828 424.83 222.649L397.852 238.238C397.118 238.7 396.504 239.329 396.056 240.073C395.609 240.818 395.346 241.657 395.283 242.522Z" fill="white"/>
<path d="M379.062 262.99C379.062 264.525 380.252 265.108 381.645 264.287L386.155 261.681C386.89 261.222 387.508 260.596 387.957 259.853C388.405 259.112 388.672 258.274 388.738 257.409C388.738 255.862 387.548 255.279 386.155 256.1L381.645 258.706C380.908 259.167 380.289 259.794 379.84 260.538C379.392 261.283 379.125 262.123 379.062 262.99Z" fill="white"/>
<path d="M395.283 253.684C395.283 255.22 396.473 255.803 397.864 254.982L424.83 239.393C425.564 238.929 426.18 238.301 426.626 237.558C427.073 236.813 427.338 235.974 427.401 235.109C427.401 233.573 426.211 232.99 424.83 233.811L397.852 249.4C397.118 249.863 396.504 250.492 396.056 251.235C395.609 251.979 395.346 252.819 395.283 253.684Z" fill="white"/>
<path d="M379.062 274.188C379.062 275.723 380.252 276.306 381.645 275.485L386.155 272.879C386.89 272.42 387.508 271.793 387.957 271.051C388.405 270.308 388.672 269.471 388.738 268.607C388.738 267.06 387.548 266.476 386.155 267.298L381.645 269.904C380.908 270.365 380.289 270.992 379.84 271.736C379.392 272.481 379.125 273.322 379.062 274.188Z" fill="white"/>
<path d="M395.283 264.847C395.283 266.382 396.473 266.964 397.864 266.144L424.83 250.555C425.562 250.094 426.177 249.467 426.624 248.724C427.07 247.982 427.337 247.146 427.401 246.283C427.401 244.736 426.211 244.153 424.83 244.974L397.852 260.61C397.124 261.068 396.513 261.689 396.067 262.424C395.62 263.159 395.352 263.989 395.283 264.847Z" fill="white"/>
<path d="M499.062 73.1487L492.66 69.4835H492.6C489.78 67.9008 485.912 68.1388 481.628 70.6021C473.001 75.5882 466.016 87.7024 466.016 97.6627C466.016 102.625 467.754 106.124 470.573 107.754L476.357 111.062L477.738 108.682C479.314 108.337 480.826 107.751 482.223 106.945C490.84 101.97 497.836 89.8563 497.836 79.896C497.832 78.5525 497.669 77.2144 497.348 75.9095L499.062 73.1487Z" fill="#2C557D"/>
<path d="M466.051 97.5801C466.051 102.554 467.789 106.053 470.61 107.683L476.392 110.991L477.773 108.683C479.347 108.327 480.859 107.738 482.26 106.933C487.189 103.83 491.194 99.4566 493.85 94.2719L471.24 81.1819C468.064 86.0803 466.271 91.7462 466.051 97.5801Z" fill="#263238"/>
<path d="M499.074 73.1493L492.72 69.4841H492.66C489.839 67.8895 485.972 68.1275 481.688 70.6027C477.401 73.2419 473.815 76.8798 471.24 81.2056L493.85 94.2956C496.311 89.9259 497.682 85.0277 497.849 80.0156C497.844 78.6721 497.679 77.334 497.36 76.0291L499.074 73.1493Z" fill="#455A64"/>
<path d="M487.697 74.0419C479.082 79.0161 472.085 91.1303 472.085 101.15C472.085 111.17 479.082 115.145 487.697 110.158C496.314 105.172 503.37 93.0105 503.37 83.0502C503.37 73.0899 496.325 69.0201 487.697 74.0419Z" fill="#165069"/>
<path d="M488.84 82.2886C489.302 82.1274 489.799 82.0905 490.28 82.1814C490.672 82.2724 491.034 82.4654 491.327 82.7407C491.61 83.017 491.827 83.3551 491.958 83.7284C492.108 84.1086 492.196 84.5103 492.219 84.9185C492.228 85.1171 492.182 85.3144 492.089 85.4896C492.016 85.646 491.902 85.7783 491.755 85.8705L490.565 86.5488C490.375 86.6678 490.233 86.6916 490.137 86.6321C490.021 86.5574 489.929 86.4497 489.876 86.3227C489.793 86.169 489.682 86.0332 489.546 85.9229C489.412 85.8126 489.256 85.7301 489.09 85.6801C488.824 85.6418 488.553 85.6578 488.294 85.7273C488.033 85.7969 487.79 85.9185 487.578 86.0847C487.276 86.2546 486.995 86.4626 486.745 86.7034C486.484 86.9445 486.252 87.2162 486.055 87.5126C485.859 87.7992 485.703 88.1115 485.592 88.4409C485.483 88.755 485.427 89.0845 485.425 89.4166C485.399 89.7187 485.467 90.0214 485.615 90.2854C485.685 90.3773 485.775 90.4521 485.878 90.5037C485.981 90.5554 486.095 90.5824 486.21 90.5829C486.567 90.5987 486.924 90.5627 487.27 90.4757L488.84 90.1069C489.395 89.9602 489.969 89.896 490.542 89.9164C490.974 89.9241 491.394 90.0747 491.732 90.3449C492.053 90.6355 492.277 91.0177 492.375 91.4397C492.509 92.0209 492.573 92.6162 492.565 93.2128C492.556 93.8833 492.468 94.5503 492.303 95.2001C492.129 95.891 491.882 96.5614 491.565 97.1992C491.237 97.8559 490.838 98.4744 490.375 99.0438C489.917 99.6174 489.394 100.137 488.817 100.591V102.34C488.812 102.535 488.763 102.726 488.673 102.899C488.612 103.059 488.506 103.196 488.364 103.292L486.995 104.077C486.951 104.118 486.895 104.14 486.835 104.14C486.776 104.14 486.718 104.118 486.675 104.077C486.626 104.022 486.591 103.958 486.568 103.888C486.545 103.819 486.538 103.746 486.544 103.673V101.912C486.089 102.071 485.608 102.144 485.128 102.126C484.704 102.107 484.293 101.976 483.938 101.745C483.59 101.495 483.315 101.159 483.14 100.769C482.923 100.262 482.809 99.7152 482.807 99.1627C482.795 98.9638 482.841 98.7659 482.937 98.5916C483.006 98.433 483.117 98.2969 483.259 98.1989L484.449 97.5206C484.64 97.4135 484.782 97.3778 484.89 97.4254C485.007 97.5006 485.096 97.6141 485.139 97.7466C485.222 97.9235 485.319 98.0945 485.425 98.2584C485.537 98.4135 485.695 98.5299 485.877 98.5916C486.112 98.6463 486.356 98.6463 486.591 98.5916C486.971 98.5034 487.334 98.3503 487.662 98.1393C488.005 97.9406 488.332 97.7137 488.638 97.4611C488.94 97.2055 489.217 96.9184 489.459 96.6043C489.693 96.2932 489.885 95.9533 490.03 95.5927C490.175 95.2379 490.248 94.8575 490.245 94.4741C490.262 94.3321 490.249 94.1879 490.208 94.0509C490.167 93.9138 490.098 93.7864 490.007 93.6769C489.906 93.5977 489.792 93.5389 489.67 93.5043C489.548 93.4695 489.419 93.4594 489.293 93.4746C488.89 93.4967 488.492 93.5604 488.103 93.6649C487.627 93.7839 487.091 93.891 486.472 94.01C485.988 94.124 485.491 94.1602 484.997 94.1172C484.612 94.0911 484.246 93.9359 483.961 93.6769C483.662 93.3679 483.45 92.9865 483.343 92.5702C483.195 91.9507 483.126 91.3149 483.14 90.6781C483.138 89.9991 483.227 89.3231 483.402 88.667C483.567 87.9993 483.799 87.3496 484.092 86.7273C484.383 86.1065 484.742 85.5199 485.163 84.9779C485.566 84.4498 486.02 83.9634 486.519 83.5262V81.7769C486.524 81.5834 486.57 81.3932 486.65 81.2176C486.719 81.059 486.83 80.923 486.972 80.8249L488.341 80.0394C488.382 80.0001 488.437 79.9783 488.495 79.9783C488.553 79.9783 488.608 80.0001 488.649 80.0394C488.701 80.0925 488.741 80.1562 488.765 80.226C488.791 80.2959 488.8 80.3704 488.792 80.4441L488.84 82.2886Z" fill="#FAFAFA"/>
<path d="M499.062 189.591L492.66 185.925H492.6C489.78 184.331 485.912 184.569 481.628 187.044C473.001 192.019 466.016 204.132 466.016 214.093C466.016 219.067 467.754 222.554 470.573 224.196L476.357 227.493L477.738 225.183C479.312 224.832 480.824 224.246 482.223 223.447C490.84 218.46 497.836 206.346 497.836 196.385C497.83 195.043 497.667 193.705 497.348 192.399L499.062 189.591Z" fill="#2C557D"/>
<path d="M466.051 214.069C466.051 219.044 467.789 222.53 470.61 224.172L476.392 227.469L477.773 225.16C479.347 224.805 480.859 224.214 482.26 223.41C487.194 220.303 491.198 215.919 493.85 210.725L471.24 197.635C468.061 202.546 466.268 208.224 466.051 214.069Z" fill="#263238"/>
<path d="M499.074 189.591L492.72 185.925H492.66C489.839 184.331 485.972 184.569 481.688 187.044C477.407 189.694 473.831 193.34 471.264 197.671L493.874 210.761C496.355 206.352 497.731 201.408 497.884 196.35C497.879 195.006 497.714 193.668 497.396 192.364L499.074 189.591Z" fill="#455A64"/>
<path d="M487.697 190.484C479.082 195.457 472.085 207.571 472.085 217.532C472.085 227.493 479.082 231.527 487.697 226.552C496.314 221.578 503.37 209.44 503.37 199.503C503.37 189.567 496.325 185.509 487.697 190.484Z" fill="#165069"/>
<path d="M495.647 212.07L479.761 221.245C479.57 221.352 479.426 221.245 479.426 220.924V206.834C479.423 206.697 479.451 206.561 479.509 206.438C479.567 206.314 479.654 206.204 479.761 206.12L495.647 196.945C495.826 196.838 495.98 196.945 495.98 197.267V211.368C495.981 211.503 495.952 211.635 495.896 211.758C495.838 211.88 495.752 211.986 495.647 212.07Z" fill="#FAFAFA"/>
<path d="M490.828 200.658C490.649 200.765 490.493 200.658 490.493 200.337V198.195L484.913 201.42V203.562C484.916 203.699 484.885 203.835 484.826 203.96C484.765 204.084 484.678 204.192 484.568 204.276C484.389 204.383 484.235 204.276 484.235 203.954V201.289C484.232 201.154 484.261 201.02 484.319 200.898C484.377 200.777 484.463 200.671 484.568 200.587L490.828 197.017C491.018 196.91 491.16 197.017 491.16 197.337V199.92C491.169 200.06 491.145 200.202 491.087 200.33C491.029 200.46 490.939 200.571 490.828 200.658Z" fill="#FAFAFA"/>
<path d="M490.828 198.004L484.568 201.574C484.389 201.681 484.235 201.574 484.235 201.253V200.063C484.234 199.926 484.263 199.792 484.321 199.668C484.379 199.545 484.463 199.435 484.568 199.349L490.828 195.779C491.018 195.671 491.16 195.779 491.16 196.1V197.29C491.165 197.427 491.136 197.563 491.078 197.687C491.02 197.81 490.934 197.92 490.828 198.004Z" fill="#FAFAFA"/>
<path d="M489.97 206.798L485.425 209.416C485.294 209.5 485.187 209.416 485.187 209.178V208.322C485.184 208.224 485.206 208.126 485.247 208.038C485.288 207.949 485.349 207.872 485.425 207.809L489.97 205.191C490.114 205.109 490.22 205.191 490.22 205.418V206.274C490.223 206.375 490.202 206.476 490.158 206.566C490.115 206.657 490.051 206.737 489.97 206.798Z" fill="#165069"/>
<path d="M499.062 131.376L492.66 127.699H492.6C489.78 126.104 485.912 126.342 481.628 128.818C473.001 133.804 466.016 145.906 466.016 155.866C466.016 160.841 467.754 164.339 470.573 165.97L476.357 169.265L477.738 166.957C479.314 166.612 480.826 166.025 482.223 165.219C490.84 160.234 497.836 148.131 497.836 138.171C497.832 136.824 497.669 135.482 497.348 134.173L499.062 131.376Z" fill="#2C557D"/>
<path d="M466.051 155.89C466.051 160.864 467.789 164.363 470.61 165.993L476.392 169.29L477.773 166.981C479.349 166.635 480.862 166.049 482.26 165.244C487.201 162.118 491.206 157.713 493.85 152.498L471.24 139.408C468.053 144.332 466.26 150.028 466.051 155.89Z" fill="#263238"/>
<path d="M499.074 131.376L492.72 127.699H492.66C489.839 126.116 485.972 126.342 481.688 128.817C477.407 131.466 473.831 135.112 471.264 139.444L493.874 152.534C496.341 148.146 497.713 143.227 497.872 138.195C497.867 136.847 497.704 135.505 497.385 134.196L499.074 131.376Z" fill="#455A64"/>
<path d="M487.697 132.257C479.082 137.243 472.085 149.345 472.085 159.306C472.085 169.265 479.082 173.311 487.697 168.326C496.314 163.34 503.37 151.237 503.37 141.277C503.37 131.317 496.325 127.33 487.697 132.257Z" fill="#165069"/>
<path d="M481.95 148.107C481.95 145.846 483.14 143.347 484.615 142.467C486.091 141.586 487.281 142.764 487.281 145.037C487.281 147.31 486.091 149.797 484.615 150.678C483.14 151.558 481.95 150.38 481.95 148.107Z" fill="white"/>
<path d="M489.375 159.532L479.57 165.196L480.093 158.674C480.319 155.902 481.784 153.058 483.521 152.058L485.413 150.963C487.151 149.964 488.614 151.106 488.84 153.629L489.375 159.532Z" fill="white"/>
<path d="M488.423 141.312C488.423 139.051 489.613 136.552 491.089 135.672C492.565 134.791 493.755 135.969 493.755 138.242C493.755 140.515 492.565 143.002 491.089 143.883C489.613 144.763 488.423 143.585 488.423 141.312Z" fill="white"/>
<path d="M495.826 152.736L489.816 156.212L489.541 153.093C489.34 150.904 488.351 149.523 487.042 149.523C487.503 147.817 488.542 146.324 489.982 145.299L491.874 144.216C493.612 143.205 495.075 144.347 495.302 146.87L495.826 152.736Z" fill="white"/>
<path d="M336.175 374.636C336.175 367.258 331.296 359.88 321.538 354.251C302.034 342.982 270.368 342.982 250.899 354.251C241.141 359.88 236.262 367.258 236.262 374.636V388.237C236.262 395.615 241.141 402.993 250.899 408.634C270.403 419.891 302.069 419.891 321.538 408.634C331.296 402.993 336.175 395.615 336.175 388.237V374.636ZM253.316 358.428C262.026 353.395 273.712 350.633 286.219 350.633C298.725 350.633 310.411 353.395 319.123 358.428C327 362.974 331.343 368.734 331.343 374.636C331.343 380.538 327 386.298 319.123 390.843C310.411 395.878 298.69 398.65 286.219 398.65C273.747 398.65 262.026 395.878 253.316 390.843C245.437 386.298 241.094 380.538 241.094 374.636C241.094 368.734 245.437 362.95 253.316 358.428Z" fill="#165069"/>
<path opacity="0.3" d="M250.887 395.08C270.403 406.338 302.057 406.338 321.538 395.08C341.019 383.822 341.042 365.556 321.538 354.298C302.034 343.042 270.368 343.03 250.887 354.298C231.408 365.568 231.383 383.775 250.887 395.08ZM241.094 374.684C241.094 368.734 245.425 363.022 253.304 358.475C262.014 353.442 273.712 350.681 286.219 350.681C298.725 350.681 310.411 353.442 319.123 358.475C327 363.022 331.331 368.781 331.331 374.684C331.331 380.585 327 386.346 319.123 390.891C310.411 395.878 298.69 398.65 286.219 398.65C273.747 398.65 262.014 395.878 253.304 390.843C245.425 386.298 241.094 380.538 241.094 374.636V374.684Z" fill="white"/>
<path d="M241.094 374.636C241.123 377.039 241.797 379.389 243.045 381.442C245.021 378.016 248.507 374.791 253.316 372.029C262.014 366.996 273.712 364.224 286.219 364.224C298.725 364.224 310.411 366.996 319.123 372.029C323.302 374.231 326.843 377.473 329.404 381.442C330.645 379.386 331.314 377.036 331.343 374.636C331.343 368.686 327 362.974 319.123 358.428C310.411 353.406 298.725 350.634 286.219 350.634C273.712 350.634 262.014 353.406 253.316 358.428C245.425 362.95 241.094 368.734 241.094 374.636Z" fill="#165069"/>
<path opacity="0.1" d="M241.094 374.636C241.123 377.039 241.797 379.389 243.045 381.442C245.021 378.016 248.507 374.791 253.316 372.029C262.014 366.996 273.712 364.224 286.219 364.224C298.725 364.224 310.411 366.996 319.123 372.029C323.302 374.231 326.843 377.473 329.404 381.442C330.645 379.386 331.314 377.036 331.343 374.636C331.343 368.686 327 362.974 319.123 358.428C310.411 353.406 298.725 350.634 286.219 350.634C273.712 350.634 262.014 353.406 253.316 358.428C245.425 362.95 241.094 368.734 241.094 374.636Z" fill="#165069"/>
<path opacity="0.4" d="M253.304 364.581C262.014 359.558 273.712 356.786 286.219 356.786C298.725 356.786 310.411 359.558 319.123 364.581C325.619 368.34 329.702 372.911 330.939 377.671C329.749 382.431 325.619 387.047 319.123 390.761C310.411 395.878 298.69 398.65 286.219 398.65C273.747 398.65 262.014 395.878 253.304 390.843C246.806 387.095 242.725 382.513 241.498 377.753C242.76 372.911 246.806 368.34 253.304 364.581Z" fill="white"/>
<path opacity="0.1" d="M274.449 402.672V416.262C266.186 415.238 258.193 412.649 250.899 408.634C241.141 402.993 236.262 395.615 236.262 388.237V374.636C236.267 373.132 236.467 371.637 236.857 370.185C234.477 378.968 239.166 388.262 250.887 395.033C258.186 399.053 266.182 401.646 274.449 402.672Z" fill="#165069"/>
<path d="M252.375 403.683C252.313 402.47 251.967 401.288 251.365 400.234C250.76 399.179 249.917 398.282 248.901 397.614C248.55 397.358 248.136 397.198 247.705 397.152C247.271 397.106 246.833 397.175 246.437 397.353L229.67 406.98C229.31 407.226 229.025 407.564 228.843 407.961C228.663 408.358 228.594 408.797 228.646 409.229C228.698 410.439 229.034 411.618 229.624 412.675C230.216 413.731 231.046 414.633 232.05 415.31C232.402 415.569 232.819 415.728 233.254 415.772C233.688 415.817 234.128 415.743 234.525 415.56L251.34 405.968C251.7 405.714 251.987 405.369 252.169 404.968C252.35 404.565 252.422 404.122 252.375 403.683Z" fill="#37474F"/>
<path d="M251.34 405.956C251.699 405.703 251.984 405.36 252.166 404.96C252.347 404.56 252.42 404.121 252.375 403.683C252.361 402.78 252.162 401.89 251.792 401.065L230.099 413.465C230.619 414.204 231.283 414.832 232.05 415.31C232.402 415.569 232.819 415.728 233.254 415.772C233.688 415.817 234.128 415.743 234.525 415.56L251.34 405.968V405.956Z" fill="#263238"/>
<path d="M234.882 415.31C234.805 413.728 234.355 412.187 233.569 410.811C232.784 409.436 231.684 408.266 230.36 407.397C229.908 407.069 229.379 406.863 228.823 406.803C228.268 406.742 227.706 406.827 227.195 407.052L171.419 436.802L179.749 451.51L233.585 418.19C234.033 417.864 234.389 417.428 234.616 416.923C234.845 416.418 234.936 415.861 234.882 415.31Z" fill="#165069"/>
<path opacity="0.1" d="M179.69 451.498L233.525 418.178C233.992 417.853 234.363 417.409 234.599 416.892C234.836 416.375 234.929 415.804 234.871 415.238C234.802 413.545 234.28 411.902 233.359 410.478L175.406 443.87L179.69 451.498Z" fill="#165069"/>
<path d="M175.49 451.01C173.751 449.87 172.306 448.337 171.273 446.534C170.239 444.731 169.645 442.709 169.54 440.633C169.54 436.825 172.228 435.29 175.49 437.206C177.228 438.343 178.673 439.874 179.707 441.676C180.74 443.476 181.335 445.496 181.44 447.571C181.463 451.439 178.785 452.974 175.49 451.01Z" fill="#165069"/>
<g opacity="0.2">
<path opacity="0.2" d="M175.49 451.01C173.751 449.87 172.306 448.337 171.273 446.534C170.239 444.731 169.645 442.709 169.54 440.633C169.54 436.825 172.228 435.29 175.49 437.206C177.228 438.343 178.673 439.874 179.707 441.676C180.74 443.476 181.335 445.496 181.44 447.571C181.463 451.439 178.785 452.974 175.49 451.01Z" fill="#165069"/>
</g>
<path d="M504.238 319.587C504.845 296.977 503.048 291.538 497.016 287.385L494.636 300.475C494.636 300.475 497.385 315.945 497.087 321.074C496.837 325.596 496.396 331.261 495.325 334.913C495.13 335.557 494.706 336.106 494.135 336.46C492.889 337.348 491.774 338.41 490.828 339.614C489.923 340.566 489.149 340.804 489.268 341.101C489.442 341.434 489.735 341.689 490.088 341.814C490.44 341.939 490.828 341.928 491.173 341.78C491.944 341.474 492.675 341.074 493.35 340.59C492.817 341.977 492.067 343.271 491.125 344.421C488.971 347.051 488.876 348.67 493.22 348.717C495.945 348.717 498.122 347.064 500.169 341.066C500.96 338.868 501.6 336.616 502.085 334.331C503.103 329.464 503.823 324.54 504.238 319.587Z" fill="#FFA8A7"/>
<path d="M491.946 285.672C493.797 285.341 495.705 285.62 497.383 286.468C499.062 287.315 500.419 288.686 501.252 290.372C503.774 294.882 504.394 302.652 504.679 310.376C504.679 310.376 499.669 314.576 493.647 312.518L491.946 285.672Z" fill="#165069"/>
<path d="M500.407 410.146C500.859 410.324 500.978 411.192 501.05 412.918C501.05 414.227 501.371 416.488 499.86 416.976C498.348 417.464 496.076 417.19 495.1 415.964C493.91 414.417 493.041 413.073 491.292 411.204C489.769 409.574 488.126 408.051 487.519 405.766C486.96 403.695 487.424 402.803 488.828 402.196C490.768 401.375 493.815 404.077 495.337 404.493C496.622 404.85 499.943 409.979 500.407 410.146Z" fill="#165069"/>
<path d="M500.407 408.551V410.669C499.611 411.18 498.689 411.464 497.744 411.488C496.798 411.514 495.862 411.279 495.04 410.812C494.946 410.609 494.48 407.778 494.48 407.778L500.407 408.551Z" fill="#165069"/>
<path d="M483.199 422.45C483.575 423.587 483.889 424.743 484.139 425.913C484.402 427.198 484.781 429.34 484.33 430.304C483.878 431.268 482.128 431.898 479.404 431.875C477.143 432.152 474.967 432.91 473.025 434.1C470.492 435.175 467.734 435.613 464.992 435.374C462.612 435.099 460.066 433.695 459.673 432.696C459.28 431.697 459.804 430.649 465.504 428.221C465.504 428.221 473.429 425.639 476.214 422.593L483.199 422.45Z" fill="#165069"/>
<path d="M483.199 420.07V422.545C483.199 423.449 482.153 424.795 479.391 424.687C477.463 424.616 476.107 424.104 476.191 422.509V420.213L483.199 420.07Z" fill="#165069"/>
<path d="M501.788 380.371C501.315 376.609 500.474 372.902 499.277 369.304C499.277 369.304 500.038 359.784 500.395 350.717C500.787 340.947 500.395 328.654 500.561 326.214C500.561 326.214 469.026 319.837 468.431 331.142C467.836 342.447 469.621 371.196 470.05 376.159C470.479 381.122 471.24 385.5 472.299 393.545C473.358 401.59 476.154 420.236 476.154 420.236C477.245 420.792 478.455 421.069 479.677 421.045C480.9 421.019 482.098 420.692 483.164 420.094C483.164 420.094 485.389 397.484 485.151 391.783C484.972 387.539 484.245 383.334 482.986 379.277C482.986 379.277 483.581 369.959 484.104 361.855C484.627 353.752 485.198 349.86 485.294 346.385L485.972 346.052C485.972 346.052 486.663 360.034 487.043 364.997C487.424 369.959 488.233 374.719 489.638 383.929C490.887 391.926 494.588 408.849 494.588 408.849C498.158 410.8 500.348 408.599 500.348 408.599C500.348 408.599 502.751 387.31 501.788 380.371Z" fill="#165069"/>
<path d="M485.354 346.29C485.354 346.29 493.005 342.517 496.837 339.15C496.837 339.15 493.267 344.16 488.614 346.374C488.614 346.374 486.948 363.748 486.96 363.402L485.996 346.29H485.354Z" fill="#165069"/>
<path d="M478.546 282.09L480.415 292.359L489.685 291.681L487.746 280.042L478.546 282.09Z" fill="#165069"/>
<path d="M499.49 290.931C498.563 288.134 495.028 285.1 491.482 285.754C486.231 286.656 481.056 287.953 476 289.634C472.752 290.824 469.8 293.597 469.527 304.271C469.527 304.271 468.443 329.166 468.419 334.021C475.193 336.678 482.569 337.408 489.732 336.128C499.49 333.998 500.668 329.952 500.668 329.952C500.668 329.952 500.787 312.102 500.502 304.318C500.204 297.714 500.122 292.847 499.49 290.931Z" fill="#F5F5F5"/>
<path d="M471.383 269.594C471.383 269.594 469.003 273.343 469.324 273.7C469.646 274.057 471.406 274.342 471.406 274.342L471.383 269.594Z" fill="#FFA8A7"/>
<path d="M477.916 259.217C473.013 260.407 471.644 262.573 471.347 270.403C471.049 278.603 471.942 281.113 473.05 282.233C473.786 282.958 477.81 283.006 479.843 282.399C482.379 281.638 488.079 279.471 490.684 275.259C493.743 270.344 494.433 263.763 490.97 261.145C486.115 257.504 479.915 258.753 477.916 259.217Z" fill="#FFA8A7"/>
<path d="M471.406 261.265C472.534 262.906 474.125 264.174 475.975 264.906C476.917 265.977 476.392 270.154 478.047 270.856C478.047 270.856 478.761 267.81 481.32 268.131C483.878 268.452 484.305 271.701 482.736 273.747C481.164 275.795 479.642 275.044 479.642 275.044C479.642 275.044 479.82 279.365 481.796 281.768C483.848 282.167 485.965 282.07 487.972 281.482C490.423 280.9 493.838 277.734 495.231 274.438C498.181 267.477 498.253 261.265 493.803 259.504C493.255 256.326 490.721 254.958 487.853 254.375C481.677 253.101 477.701 256.956 472.953 256.611C470.228 256.386 469.717 258.373 471.406 261.265Z" fill="#165069"/>
<path d="M493.91 260.526L496.813 258.718C496.701 258.512 496.549 258.332 496.366 258.187C496.183 258.042 495.971 257.937 495.745 257.878C495.519 257.818 495.283 257.804 495.052 257.839C494.82 257.874 494.599 257.957 494.401 258.08C494.202 258.204 494.032 258.366 493.897 258.558C493.765 258.75 493.673 258.968 493.626 259.197C493.58 259.426 493.581 259.663 493.63 259.891C493.679 260.12 493.774 260.335 493.91 260.526Z" fill="#165069"/>
<path d="M436.73 308.126C438.253 308.805 456.222 322.086 459.03 320.539C461.839 318.992 476.203 302.188 476.203 302.188C477.416 300.312 478.063 298.124 478.063 295.887C478.063 293.652 477.416 291.463 476.203 289.587C473.394 290.194 470.9 291.796 469.182 294.096C466.802 297.738 456.353 310.756 456.353 310.756C453.782 309.472 451.213 308.163 448.665 306.842C446.56 305.746 444.441 304.664 442.383 303.485C441.801 303.224 441.258 302.889 440.764 302.486C439.74 301.487 439.919 299.047 439.943 297.726C439.935 297.109 439.963 296.495 440.027 295.881C440.122 295.12 440.265 293.276 438.896 293.858C438.64 293.987 438.42 294.174 438.253 294.406C438.038 294.685 437.873 294.998 437.766 295.334C437.504 296.132 437.587 297.012 437.36 297.81C437.333 297.932 437.27 298.043 437.182 298.13C437.124 298.182 437.057 298.22 436.982 298.241C436.909 298.264 436.831 298.272 436.754 298.261C434.779 298.202 432.898 295.43 431.994 293.954C431.665 293.253 431.145 292.659 430.495 292.24C429.921 292.067 429.308 292.09 428.749 292.307C428.191 292.522 427.721 292.917 427.413 293.43C426.557 294.714 426.205 296.27 426.424 297.798C426.601 299.872 427.518 301.816 429.007 303.272C431.282 305.324 433.895 306.967 436.73 308.126Z" fill="#FFA8A7"/>
<path d="M477.81 289.051C475.834 289.277 473.05 288.908 469.17 293.085C466.038 296.661 463.118 300.416 460.423 304.33C460.934 306.385 462.027 308.25 463.569 309.702C465.112 311.153 467.04 312.131 469.123 312.518C469.123 312.518 475.916 305.545 477.81 301.712C479.701 297.881 480.153 291.645 477.81 289.051Z" fill="#165069"/>
</svg>
