<svg width="550" height="578" viewBox="0 0 550 578" fill="none" xmlns="http://www.w3.org/2000/svg">
<path d="M275 552.487C418.124 552.487 534.149 482.089 534.149 395.248C534.149 308.407 418.124 238.009 275 238.009C131.876 238.009 15.851 308.407 15.851 395.248C15.851 482.089 131.876 552.487 275 552.487Z" fill="#F0F0F0"/>
<path d="M221.375 514.397C270.729 514.397 310.739 490.123 310.739 460.181C310.739 430.238 270.729 405.964 221.375 405.964C172.021 405.964 132.011 430.238 132.011 460.181C132.011 490.123 172.021 514.397 221.375 514.397Z" fill="#E0E0E0"/>
<path d="M475.508 392.346L465.025 385.988C465.025 385.988 462.462 362.406 464.167 344.141C466.565 318.478 482.339 287.59 501.149 294.849C519.959 302.109 492.525 328.235 486.42 350.002C480.315 371.77 475.508 392.346 475.508 392.346Z" fill="#2B879B" fill-opacity="0.84"/>
<path opacity="0.15" d="M475.508 392.346L465.025 385.988C465.025 385.988 462.462 362.406 464.167 344.141C466.565 318.478 482.339 287.59 501.149 294.849C519.959 302.109 492.525 328.235 486.42 350.002C480.315 371.77 475.508 392.346 475.508 392.346Z" fill="black"/>
<path d="M469.997 389.676C470.164 389.667 470.322 389.589 470.435 389.46C470.548 389.33 470.608 389.158 470.602 388.982C468.765 331.957 495.781 303.265 496.045 302.988C496.165 302.862 496.232 302.691 496.232 302.514C496.232 302.336 496.165 302.165 496.045 302.04C495.987 301.978 495.917 301.929 495.841 301.895C495.764 301.862 495.682 301.844 495.6 301.844C495.517 301.844 495.435 301.862 495.358 301.895C495.282 301.929 495.212 301.978 495.154 302.04C494.868 302.317 467.467 331.425 469.326 389.029C469.329 389.118 469.349 389.205 469.384 389.286C469.419 389.367 469.47 389.44 469.532 389.5C469.595 389.561 469.668 389.607 469.748 389.637C469.828 389.668 469.912 389.681 469.997 389.676V389.676Z" fill="#1B2936"/>
<path d="M482.097 396.311L474.639 391.792C474.639 391.792 473.363 375.608 480.92 355.956C487.52 338.847 503.8 324.639 512.006 327.622C520.212 330.604 520.003 336.72 515.999 343.135C511.995 349.551 487.674 364.822 482.097 396.311Z" fill="#2B879B" fill-opacity="0.84"/>
<path d="M478.159 394.601C478.327 394.598 478.488 394.526 478.607 394.401C478.726 394.276 478.794 394.107 478.797 393.93C478.643 357.863 510.862 333.494 511.192 333.252C511.261 333.202 511.319 333.138 511.364 333.065C511.409 332.991 511.439 332.908 511.452 332.821C511.465 332.735 511.462 332.647 511.442 332.562C511.422 332.477 511.385 332.397 511.335 332.327C511.238 332.184 511.091 332.087 510.927 332.057C510.762 332.027 510.593 332.066 510.455 332.165C510.125 332.408 477.378 357.192 477.521 393.93C477.521 394.108 477.588 394.278 477.708 394.404C477.828 394.53 477.99 394.601 478.159 394.601V394.601Z" fill="#1B2936"/>
<path d="M87.626 378.185L97.306 371.319C97.306 371.319 101.563 344.731 97.603 321.275C92.037 288.376 70.4 277.44 62.7 280.908C55 284.376 53.35 294.167 67.727 312.941C76.252 323.981 87.329 347.551 87.626 378.185Z" fill="#2B879B" fill-opacity="0.84"/>
<g opacity="0.15">
<path d="M87.626 378.185L97.306 371.319C97.306 371.319 101.563 344.731 97.603 321.275C92.037 288.376 70.4 277.44 62.7 280.908C55 284.376 53.35 294.167 67.727 312.941C76.252 323.981 87.329 347.551 87.626 378.185Z" fill="black"/>
</g>
<path d="M90.948 365.007H90.849C90.7501 365 90.6536 364.972 90.5659 364.924C90.4782 364.875 90.4012 364.808 90.3399 364.726C90.2787 364.644 90.2346 364.55 90.2104 364.449C90.1863 364.348 90.1828 364.242 90.2 364.14C93.698 333.171 81.257 299.554 67.716 286.179C67.5857 286.041 67.5126 285.854 67.5126 285.659C67.5126 285.464 67.5857 285.277 67.716 285.139C67.7805 285.07 67.8575 285.015 67.9425 284.977C68.0275 284.94 68.1188 284.92 68.211 284.92C68.3032 284.92 68.3944 284.94 68.4794 284.977C68.5644 285.015 68.6415 285.07 68.706 285.139C82.5 298.757 95.172 332.928 91.63 364.348C91.6092 364.525 91.5292 364.689 91.4043 364.809C91.2793 364.93 91.1176 365 90.948 365.007V365.007Z" fill="#1B2936"/>
<path d="M62.282 396.15C60.742 397.121 56.254 393.618 55.011 392.774C52.8807 391.312 51.1454 389.298 49.973 386.925C48.6577 384.234 48.1696 381.18 48.576 378.185C48.8013 376.622 49.1284 375.077 49.555 373.561C49.94 372.047 50.325 370.533 50.655 369.007C51.1428 367.522 51.3302 365.947 51.205 364.383C50.776 361.296 48.125 359.181 45.705 357.366C43.043 355.343 40.205 352.672 40.205 348.95C40.3407 346.025 41.4058 343.233 43.23 341.02C44.88 338.708 46.86 336.697 48.345 334.28C49.5062 332.606 50.0989 330.571 50.028 328.5C49.8368 327.224 49.4028 326.001 48.752 324.905C47.454 322.501 45.771 320.281 44.858 317.727C43.945 315.172 44.011 311.889 45.958 309.981C47.509 308.421 49.874 308.166 52.019 308.27C54.0402 308.482 55.9928 309.157 57.739 310.247C63.426 313.426 66.77 320.362 72.787 322.778C75.108 323.703 77.638 323.865 80.047 324.489C82.456 325.113 84.942 326.35 86.097 328.651C88.374 333.217 84.403 338.974 86.031 343.817C87.483 348.118 91.531 349.69 93.819 353.539C94.7476 355.249 95.133 357.225 94.919 359.181C94.7899 362.482 94.0852 365.73 92.84 368.764C91.4078 371.91 89.7914 374.96 88 377.896C88 377.896 62.513 395.999 62.282 396.15Z" fill="#2B879B" fill-opacity="0.84"/>
<path d="M77.154 386.566C77.0615 386.565 76.9703 386.544 76.8854 386.506C76.8005 386.467 76.7237 386.411 76.6594 386.342C76.595 386.272 76.5444 386.189 76.5103 386.099C76.4763 386.009 76.4595 385.912 76.461 385.815C77.077 356.545 63.371 324.547 53.669 315.299C53.5311 315.168 53.4479 314.986 53.4376 314.791C53.4273 314.596 53.4907 314.405 53.614 314.259C53.6785 314.189 53.7555 314.134 53.8405 314.097C53.9255 314.059 54.0168 314.04 54.109 314.04C54.2012 314.04 54.2925 314.059 54.3775 314.097C54.4624 314.134 54.5395 314.189 54.604 314.259C64.504 323.622 78.485 356.175 77.858 385.85C77.8566 385.945 77.8372 386.04 77.8011 386.128C77.7649 386.215 77.7126 386.295 77.6473 386.361C77.5819 386.428 77.5047 386.48 77.42 386.515C77.3354 386.551 77.245 386.568 77.154 386.566V386.566Z" fill="#1B2936"/>
<path d="M72.017 350.904C71.952 350.921 71.884 350.921 71.819 350.904C62.821 348.176 51.667 347.898 51.557 347.887C51.465 347.885 51.3743 347.864 51.29 347.826C51.2057 347.787 51.1296 347.731 51.0662 347.661C51.0027 347.591 50.9531 347.509 50.9203 347.418C50.8875 347.328 50.8721 347.232 50.875 347.135C50.8733 347.038 50.8908 346.941 50.9266 346.851C50.9624 346.761 51.0155 346.679 51.0827 346.612C51.1499 346.545 51.2297 346.493 51.3171 346.459C51.4044 346.426 51.4973 346.412 51.59 346.419C51.7 346.419 63.03 346.708 72.204 349.482C72.3813 349.538 72.5303 349.666 72.6189 349.836C72.7074 350.007 72.7283 350.208 72.677 350.395C72.6342 350.544 72.5467 350.673 72.4277 350.765C72.3087 350.857 72.1646 350.905 72.017 350.904V350.904Z" fill="#1B2936"/>
<path d="M331.276 358.059L327.107 355.528C326.412 355.054 325.834 354.414 325.419 353.661C325.005 352.907 324.765 352.062 324.72 351.193V169.1C324.765 168.232 325.004 167.388 325.417 166.635C325.829 165.882 326.405 165.241 327.096 164.765L442.981 94.4568C443.719 94.0637 444.535 93.8589 445.363 93.8589C446.19 93.8589 447.006 94.0637 447.744 94.4568L451.913 96.9884C452.608 97.4624 453.186 98.102 453.601 98.8554C454.016 99.6087 454.255 100.454 454.3 101.323V283.416C454.255 284.284 454.016 285.128 453.603 285.881C453.191 286.634 452.615 287.275 451.924 287.751L336.039 358.071C335.301 358.465 334.484 358.669 333.656 358.667C332.828 358.665 332.013 358.457 331.276 358.059V358.059Z" fill="#195295"/>
<path d="M454.3 100.919C454.135 99.6241 453.134 99.1501 451.935 99.8784L336.039 170.198C335.338 170.66 334.759 171.3 334.356 172.059L325.413 166.637C325.813 165.873 326.392 165.228 327.096 164.765L442.981 94.4568C443.719 94.0637 444.535 93.8589 445.362 93.8589C446.19 93.8589 447.006 94.0637 447.744 94.4568L451.913 96.9884C452.557 97.424 453.104 98.0008 453.516 98.6792C453.928 99.3576 454.195 100.122 454.3 100.919V100.919Z" fill="#195295"/>
<path d="M335.632 358.268C334.928 358.567 334.171 358.705 333.412 358.671C332.653 358.637 331.909 358.433 331.232 358.071L327.052 355.528C326.361 355.051 325.785 354.411 325.373 353.658C324.96 352.905 324.721 352.06 324.676 351.193V169.1C324.704 168.23 324.943 167.383 325.369 166.637L334.312 172.059C333.877 172.806 333.635 173.658 333.608 174.533V356.626C333.652 358.06 334.51 358.718 335.632 358.268Z" fill="#263238"/>
<path d="M333.652 174.556V356.626C333.652 358.221 334.752 358.869 336.039 358.071L451.924 287.751C452.615 287.275 453.191 286.634 453.603 285.881C454.016 285.128 454.255 284.284 454.3 283.416V101.323C454.3 99.7281 453.2 99.0807 451.924 99.8784L336.039 170.198C335.341 170.674 334.761 171.317 334.346 172.075C333.931 172.833 333.693 173.683 333.652 174.556V174.556Z" fill="#37474F"/>
<path d="M306.592 243.916C305.096 242.98 298.155 238.83 297.792 238.61C297.509 238.433 297.268 238.191 297.086 237.902C296.904 237.614 296.786 237.286 296.74 236.943C296.695 236.6 296.723 236.251 296.823 235.921C296.924 235.592 297.093 235.29 297.319 235.038L324.72 204.15L333.652 209.537L306.262 240.448C306.047 240.689 305.883 240.975 305.782 241.288C305.681 241.601 305.645 241.932 305.677 242.261C305.708 242.59 305.806 242.907 305.964 243.193C306.121 243.478 306.336 243.725 306.592 243.916V243.916Z" fill="#195295"/>
<path d="M333.652 209.571L306.262 240.448C305.958 240.789 305.759 241.22 305.692 241.682C305.626 242.144 305.694 242.617 305.888 243.038C306.082 243.458 306.394 243.807 306.78 244.039C307.167 244.27 307.612 244.372 308.055 244.332L333.652 242.113V209.571Z" fill="#37474F"/>
<path d="M393.976 153.979C407.484 145.783 418.429 152.43 418.429 168.822C418.429 185.214 407.484 205.132 393.976 213.328C380.468 221.524 369.523 214.877 369.523 198.497C369.523 182.116 380.468 162.175 393.976 153.979Z" fill="#2B879B" fill-opacity="0.84"/>
<path d="M393.8 166.88C398.2 164.221 401.731 166.371 401.731 171.689C401.581 174.58 400.785 177.392 399.407 179.899C398.029 182.406 396.108 184.536 393.8 186.116C389.4 188.775 385.858 186.625 385.858 181.307C386.009 178.415 386.807 175.602 388.187 173.095C389.567 170.589 391.49 168.459 393.8 166.88V166.88Z" fill="white"/>
<path d="M409.442 195.225C409.442 186.497 403.601 182.949 396.407 187.318L391.908 190.046C384.714 194.416 378.873 205.074 378.873 213.779V216.172C380.231 216.628 381.649 216.858 383.075 216.854C386.934 216.716 390.692 215.521 393.976 213.386C400.229 209.338 405.519 203.842 409.442 197.318V195.225Z" fill="white"/>
<path d="M378.488 294.468L409.464 275.671C410.784 274.874 411.851 275.521 411.851 277.116V287.601C411.806 288.47 411.567 289.316 411.152 290.069C410.737 290.823 410.159 291.462 409.464 291.936L378.488 310.733C377.168 311.53 376.101 310.883 376.101 309.288V298.803C376.146 297.934 376.386 297.088 376.8 296.335C377.215 295.582 377.793 294.942 378.488 294.468V294.468Z" fill="#2B879B" fill-opacity="0.84"/>
<path d="M363.319 271.047L424.6 233.847C426.173 232.888 427.46 233.662 427.46 235.581V239.477C427.406 240.519 427.119 241.534 426.622 242.438C426.125 243.341 425.432 244.109 424.6 244.679L363.286 281.879C361.713 282.838 360.437 282.064 360.437 280.145V276.284C360.487 275.233 360.775 274.21 361.276 273.3C361.777 272.389 362.477 271.617 363.319 271.047V271.047Z" fill="#FAFAFA"/>
<path d="M370.491 244.124C371.327 243.615 371.976 243.535 372.438 243.893C372.9 244.251 373.131 245.049 373.131 246.274C373.154 247.393 372.916 248.5 372.438 249.5C372.006 250.403 371.328 251.151 370.491 251.65L368.841 252.655V256.389C368.838 256.518 368.808 256.644 368.753 256.759C368.714 256.864 368.645 256.953 368.555 257.014L367.719 257.522C367.69 257.545 367.656 257.557 367.62 257.557C367.584 257.557 367.55 257.545 367.521 257.522C367.462 257.444 367.434 257.344 367.444 257.245V246.436C367.443 246.308 367.469 246.182 367.521 246.066C367.563 245.963 367.631 245.875 367.719 245.812L370.491 244.124ZM368.841 250.563L370.436 249.592C370.821 249.364 371.147 249.038 371.382 248.644C371.632 248.18 371.754 247.651 371.734 247.118C371.734 246.494 371.613 246.136 371.382 246.032C371.219 245.99 371.049 245.988 370.885 246.026C370.721 246.064 370.567 246.141 370.436 246.251L368.841 247.222V250.563Z" fill="#FAFAFA"/>
<path d="M377.74 239.72C377.85 239.65 377.938 239.65 377.993 239.72C378.063 239.823 378.112 239.942 378.136 240.067L380.677 249.106C380.677 249.106 380.677 249.176 380.677 249.211C380.675 249.339 380.645 249.466 380.589 249.58C380.55 249.685 380.481 249.774 380.391 249.835L379.643 250.286C379.511 250.367 379.412 250.378 379.357 250.286C379.304 250.228 379.266 250.156 379.247 250.078L378.796 248.494L375.496 250.482L375.056 252.609C375.025 252.724 374.984 252.836 374.935 252.944C374.88 253.085 374.779 253.2 374.649 253.268L373.901 253.719C373.873 253.743 373.838 253.757 373.802 253.757C373.766 253.757 373.731 253.743 373.703 253.719C373.645 253.644 373.618 253.549 373.626 253.453C373.62 253.411 373.62 253.368 373.626 253.326L376.156 241.211C376.186 241.033 376.234 240.859 376.299 240.691C376.353 240.569 376.441 240.468 376.552 240.402L377.74 239.72ZM378.312 246.725L377.212 242.644L376.112 248.101L378.312 246.725Z" fill="#FAFAFA"/>
<path d="M384.527 235.431C384.895 235.187 385.314 235.04 385.748 235.003C386.055 234.974 386.363 235.047 386.628 235.211C386.869 235.376 387.057 235.614 387.167 235.893C387.287 236.178 387.354 236.484 387.365 236.795C387.372 236.924 387.346 237.052 387.288 237.165C387.249 237.27 387.18 237.359 387.09 237.419L386.364 237.859C386.243 237.928 386.155 237.94 386.1 237.859C386.032 237.811 385.975 237.748 385.935 237.674C385.891 237.57 385.827 237.476 385.748 237.399C385.668 237.321 385.575 237.261 385.473 237.223C385.138 237.172 384.798 237.264 384.527 237.477C384.349 237.598 384.179 237.733 384.021 237.882C383.858 238.04 383.714 238.218 383.592 238.414C383.475 238.602 383.379 238.803 383.306 239.015C383.241 239.216 383.208 239.427 383.207 239.639C383.194 239.833 383.228 240.028 383.306 240.205C383.34 240.267 383.388 240.32 383.445 240.358C383.503 240.396 383.568 240.419 383.636 240.425C383.84 240.462 384.048 240.462 384.252 240.425L385.209 240.205C385.566 240.094 385.938 240.047 386.309 240.067C386.574 240.066 386.833 240.155 387.046 240.321C387.247 240.499 387.393 240.737 387.464 241.003C387.572 241.377 387.62 241.768 387.607 242.159C387.606 242.675 387.536 243.189 387.398 243.685C387.264 244.195 387.068 244.684 386.815 245.141C386.549 245.61 386.231 246.045 385.869 246.436C385.499 246.839 385.077 247.186 384.615 247.465C384.276 247.682 383.904 247.834 383.515 247.916C383.199 247.98 382.871 247.952 382.569 247.835C382.294 247.701 382.067 247.478 381.92 247.199C381.74 246.842 381.642 246.447 381.634 246.043C381.633 245.912 381.659 245.781 381.711 245.662C381.76 245.563 381.832 245.48 381.92 245.419L382.646 244.98C382.756 244.91 382.844 244.887 382.91 244.922C382.976 244.956 383.02 245.014 383.064 245.118C383.109 245.237 383.168 245.35 383.24 245.454C383.308 245.554 383.404 245.631 383.515 245.673C383.66 245.708 383.81 245.708 383.955 245.673C384.189 245.615 384.411 245.518 384.615 245.384C384.828 245.256 385.031 245.109 385.22 244.945C385.59 244.637 385.884 244.241 386.078 243.789C386.166 243.557 386.211 243.31 386.21 243.061C386.22 242.97 386.213 242.878 386.188 242.791C386.164 242.703 386.123 242.622 386.067 242.552C386.008 242.497 385.937 242.456 385.861 242.432C385.786 242.408 385.706 242.402 385.627 242.413C385.377 242.424 385.13 242.467 384.89 242.54C384.604 242.61 384.274 242.691 383.889 242.76C383.594 242.838 383.289 242.861 382.987 242.829C382.749 242.813 382.524 242.711 382.349 242.54C382.159 242.345 382.025 242.096 381.964 241.824C381.875 241.422 381.835 241.01 381.843 240.598C381.842 240.089 381.913 239.583 382.052 239.096C382.183 238.594 382.376 238.112 382.624 237.662C382.862 237.215 383.15 236.8 383.482 236.425C383.784 236.043 384.136 235.709 384.527 235.431V235.431Z" fill="#FAFAFA"/>
<path d="M391.754 231.061C392.12 230.81 392.539 230.659 392.975 230.622C393.282 230.595 393.589 230.667 393.855 230.83C394.09 230.999 394.273 231.236 394.383 231.512C394.503 231.797 394.57 232.103 394.581 232.414C394.594 232.543 394.567 232.672 394.504 232.784C394.465 232.888 394.396 232.977 394.306 233.038L393.58 233.477C393.47 233.547 393.382 233.57 393.316 233.477C393.246 233.431 393.192 233.362 393.162 233.281C393.061 233.078 392.893 232.921 392.689 232.842C392.525 232.816 392.358 232.826 392.197 232.869C392.036 232.913 391.886 232.99 391.754 233.096C391.57 233.214 391.397 233.349 391.237 233.5C391.077 233.659 390.937 233.837 390.819 234.032C390.698 234.218 390.601 234.42 390.533 234.633C390.465 234.834 390.427 235.045 390.423 235.258C390.41 235.452 390.444 235.647 390.522 235.824C390.556 235.886 390.604 235.939 390.661 235.977C390.719 236.015 390.784 236.038 390.852 236.044C391.056 236.081 391.264 236.081 391.468 236.044L392.425 235.824C392.783 235.719 393.154 235.672 393.525 235.685C393.791 235.683 394.05 235.772 394.262 235.94C394.463 236.12 394.612 236.356 394.691 236.622C394.788 236.998 394.833 237.388 394.823 237.778C394.822 238.294 394.752 238.808 394.614 239.304C394.48 239.813 394.284 240.303 394.031 240.76C393.766 241.233 393.448 241.672 393.085 242.066C392.714 242.46 392.296 242.802 391.842 243.084C391.503 243.3 391.131 243.452 390.742 243.535C390.429 243.598 390.106 243.57 389.807 243.454C389.527 243.324 389.295 243.1 389.147 242.818C388.966 242.462 388.872 242.065 388.872 241.662C388.859 241.533 388.886 241.403 388.949 241.292C388.988 241.187 389.057 241.098 389.147 241.038L389.873 240.598C389.983 240.529 390.082 240.506 390.137 240.54C390.175 240.559 390.209 240.586 390.236 240.62C390.262 240.654 390.281 240.694 390.291 240.737C390.341 240.854 390.4 240.966 390.467 241.072C390.539 241.174 390.639 241.25 390.753 241.292C390.898 241.327 391.048 241.327 391.193 241.292C391.427 241.234 391.649 241.136 391.853 241.003C392.061 240.872 392.26 240.725 392.447 240.564C392.64 240.405 392.811 240.218 392.953 240.009C393.095 239.809 393.214 239.592 393.305 239.361C393.393 239.13 393.438 238.882 393.437 238.633C393.447 238.543 393.44 238.451 393.415 238.363C393.391 238.276 393.35 238.195 393.294 238.124C393.235 238.069 393.164 238.028 393.088 238.004C393.012 237.981 392.933 237.974 392.854 237.986C392.608 238.001 392.365 238.044 392.128 238.113C391.842 238.182 391.501 238.263 391.127 238.333C390.829 238.41 390.52 238.433 390.214 238.402C389.975 238.389 389.749 238.286 389.576 238.113C389.389 237.916 389.26 237.667 389.202 237.396C389.104 237 389.06 236.591 389.07 236.182C389.074 235.67 389.144 235.16 389.279 234.668C389.415 234.168 389.607 233.687 389.851 233.235C390.089 232.785 390.381 232.369 390.72 231.998C391.016 231.631 391.365 231.315 391.754 231.061V231.061Z" fill="#FAFAFA"/>
<path d="M399.773 232.506L398.882 238.043C398.856 238.21 398.811 238.373 398.75 238.529C398.707 238.654 398.626 238.759 398.519 238.83L397.683 239.338C397.573 239.408 397.496 239.408 397.441 239.338C397.367 239.243 397.325 239.126 397.32 239.003L396 229.235C396 229.235 396 229.142 396 229.108C396.003 228.979 396.033 228.853 396.088 228.738C396.13 228.635 396.198 228.547 396.286 228.483L397.045 228.021C397.109 227.994 397.18 227.994 397.243 228.021C397.309 228.021 397.353 228.113 397.375 228.298L398.244 234.876L399.003 229.94C399.023 229.817 399.056 229.697 399.102 229.582C399.146 229.435 399.24 229.312 399.366 229.235L400.213 228.715C400.334 228.645 400.422 228.657 400.477 228.715C400.524 228.788 400.558 228.87 400.576 228.957L401.346 232.969L402.215 225.339C402.225 225.189 402.267 225.043 402.336 224.911C402.387 224.825 402.455 224.75 402.534 224.692L403.293 224.229C403.322 224.207 403.356 224.195 403.392 224.195C403.428 224.195 403.462 224.207 403.491 224.229C403.522 224.267 403.546 224.311 403.561 224.359C403.576 224.406 403.582 224.457 403.579 224.507C403.583 224.553 403.583 224.599 403.579 224.645L402.259 236.009C402.237 236.175 402.196 236.338 402.138 236.494C402.088 236.618 402.003 236.722 401.896 236.795L401.049 237.304C400.95 237.361 400.873 237.361 400.818 237.304C400.762 237.197 400.718 237.085 400.686 236.968L399.773 232.506Z" fill="#FAFAFA"/>
<path d="M404.921 227.605C404.945 226.964 405.019 226.326 405.141 225.697C405.267 225.083 405.459 224.486 405.713 223.917C405.955 223.364 406.266 222.847 406.637 222.38C407.013 221.916 407.464 221.524 407.968 221.224C408.355 220.947 408.809 220.791 409.277 220.773C409.626 220.777 409.961 220.922 410.212 221.177C410.478 221.492 410.671 221.868 410.773 222.276C410.915 222.807 410.993 223.354 411.004 223.906C411.004 224.114 411.004 224.345 411.004 224.599C411.004 224.854 411.004 225.119 411.004 225.397C411.004 225.674 411.004 225.94 411.004 226.194C411.004 226.449 411.004 226.692 411.004 226.911C410.98 227.548 410.907 228.182 410.784 228.807C410.657 229.419 410.469 230.016 410.223 230.587C409.973 231.138 409.659 231.655 409.288 232.125C408.912 232.584 408.466 232.975 407.968 233.281C407.571 233.555 407.111 233.711 406.637 233.732C406.466 233.735 406.295 233.702 406.137 233.635C405.978 233.567 405.834 233.466 405.713 233.339C405.426 233.015 405.228 232.615 405.141 232.183C405.01 231.65 404.936 231.103 404.921 230.553C404.921 230.345 404.921 230.113 404.921 229.859C404.921 229.605 404.921 229.339 404.921 229.061C404.921 228.784 404.921 228.53 404.921 228.264C404.921 227.998 404.91 227.813 404.921 227.605ZM409.607 224.842C409.631 224.559 409.601 224.274 409.518 224.004C409.435 223.734 409.3 223.484 409.123 223.27C408.837 223.004 408.441 223.015 407.968 223.27C407.455 223.587 407.047 224.063 406.802 224.634C406.49 225.308 406.325 226.046 406.318 226.796C406.318 227.223 406.318 227.697 406.318 228.217C406.318 228.738 406.318 229.2 406.318 229.616C406.294 229.899 406.324 230.184 406.407 230.454C406.49 230.725 406.625 230.974 406.802 231.188C407.088 231.443 407.484 231.42 407.968 231.131C408.473 230.811 408.875 230.34 409.123 229.778C409.435 229.108 409.6 228.374 409.607 227.628C409.607 227.189 409.607 226.715 409.607 226.194C409.607 225.674 409.618 225.258 409.607 224.842Z" fill="#FAFAFA"/>
<path d="M415.8 216.611C416.669 216.091 417.318 216.01 417.769 216.392C418.036 216.701 418.235 217.069 418.351 217.469C418.467 217.868 418.497 218.29 418.44 218.704C418.449 219.489 418.334 220.27 418.099 221.016C417.875 221.71 417.528 222.353 417.076 222.911L418.506 226.183C418.511 226.237 418.511 226.291 418.506 226.345C418.507 226.449 418.484 226.552 418.44 226.645C418.41 226.729 418.356 226.802 418.286 226.853L417.406 227.385C417.263 227.466 417.164 227.478 417.098 227.385C417.04 227.325 416.991 227.254 416.955 227.177L415.602 224.091L414.227 224.923V228.83C414.228 228.958 414.202 229.084 414.15 229.2C414.105 229.301 414.037 229.388 413.952 229.454L413.116 229.963C413.088 229.988 413.053 230.001 413.017 230.001C412.981 230.001 412.946 229.988 412.918 229.963C412.886 229.928 412.862 229.886 412.847 229.84C412.832 229.794 412.826 229.745 412.83 229.697V218.889C412.833 218.76 412.863 218.634 412.918 218.519C412.957 218.414 413.026 218.325 413.116 218.264L415.8 216.611ZM414.249 222.831L415.8 221.952C416.179 221.73 416.503 221.417 416.746 221.039C417.001 220.593 417.123 220.078 417.098 219.559C417.098 218.935 416.977 218.588 416.746 218.519C416.411 218.471 416.072 218.562 415.8 218.773L414.304 219.675L414.249 222.831Z" fill="#FAFAFA"/>
<path d="M423.17 212.161C423.569 211.887 424.026 211.72 424.501 211.675C424.845 211.662 425.181 211.79 425.436 212.033C425.727 212.355 425.929 212.755 426.019 213.189C426.167 213.763 426.248 214.353 426.261 214.947C426.261 215.756 426.261 216.588 426.261 217.432C426.238 218.12 426.158 218.805 426.019 219.478C425.893 220.104 425.701 220.712 425.447 221.293C425.201 221.826 424.891 222.324 424.523 222.773C424.156 223.232 423.717 223.623 423.225 223.929L420.618 225.42C420.59 225.444 420.555 225.458 420.519 225.458C420.483 225.458 420.448 225.444 420.42 225.42C420.388 225.385 420.363 225.343 420.348 225.297C420.333 225.251 420.327 225.202 420.332 225.154V214.345C420.335 214.217 420.365 214.091 420.42 213.976C420.459 213.871 420.528 213.782 420.618 213.721L423.17 212.161ZM424.864 215.756C424.859 215.443 424.815 215.132 424.732 214.831C424.681 214.603 424.57 214.395 424.413 214.23C424.344 214.157 424.261 214.1 424.171 214.063C424.08 214.025 423.983 214.007 423.885 214.01C423.61 214.03 423.344 214.125 423.115 214.288L421.729 215.12V222.657L423.17 221.79C423.449 221.62 423.698 221.401 423.907 221.143C424.112 220.889 424.286 220.61 424.424 220.31C424.561 219.992 424.664 219.659 424.732 219.316C424.809 218.959 424.853 218.595 424.864 218.23C424.897 217.386 424.897 216.565 424.864 215.756V215.756Z" fill="#FAFAFA"/>
<path d="M272.118 44.3789C274.017 44.8229 275.846 45.5467 277.552 46.529C279.185 47.4518 280.649 48.6732 281.875 50.1357C283.048 51.5427 283.918 53.1987 284.427 54.9909C284.946 56.9095 284.984 58.9365 284.537 60.875C284.242 62.4119 283.663 63.873 282.832 65.1753C282.074 66.289 281.17 67.2852 280.148 68.1347C279.144 68.9537 278.073 69.6772 276.947 70.2964L273.779 72.0651C272.825 72.5881 271.919 73.2035 271.073 73.9031C270.308 74.5199 269.721 75.3485 269.379 76.296C269.211 76.7289 268.934 77.1049 268.576 77.3827C268.407 77.5208 268.21 77.6165 268 77.6626C267.791 77.7087 267.574 77.7039 267.366 77.6485L262.702 76.5619C262.477 76.5124 262.264 76.4164 262.076 76.2794C261.887 76.1425 261.726 75.9674 261.602 75.7643C261.47 75.5755 261.383 75.3567 261.346 75.1258C261.31 74.8948 261.326 74.6581 261.393 74.4349C261.768 72.9169 262.431 71.4938 263.34 70.2501C264.17 69.1501 265.131 68.1671 266.2 67.3255C267.242 66.5242 268.345 65.8166 269.5 65.21C270.6 64.6204 271.7 64.054 272.657 63.4875C273.547 62.9847 274.384 62.3841 275.154 61.6957C275.829 61.1015 276.298 60.2882 276.485 59.3837C276.66 58.5983 276.651 57.7801 276.46 56.999C276.268 56.2179 275.899 55.4971 275.385 54.8985C274.099 53.4226 272.379 52.4418 270.501 52.1125C267.025 51.3033 264.092 52.5325 261.701 55.8001C261.47 56.1568 261.179 56.4663 260.843 56.7134C260.463 56.9112 260.025 56.9444 259.622 56.8059L254.661 55.6499C254.307 55.578 253.995 55.3619 253.792 55.0487C253.684 54.8814 253.611 54.6916 253.579 54.4921C253.546 54.2927 253.555 54.0883 253.605 53.8927C254.027 52.2864 254.812 50.8111 255.893 49.5924C257.113 48.1792 258.561 47.0049 260.172 46.1244C261.933 45.1562 263.831 44.4926 265.793 44.1592C267.895 43.7999 270.043 43.8745 272.118 44.3789V44.3789ZM266.849 81.579C267.285 81.6866 267.664 81.9694 267.905 82.3669C268.145 82.7644 268.228 83.245 268.136 83.706L266.948 89.3704C266.908 89.6076 266.82 89.8331 266.691 90.0323C266.563 90.2316 266.395 90.3999 266.2 90.5264C266.016 90.6598 265.807 90.7514 265.588 90.7951C265.368 90.8389 265.142 90.834 264.924 90.7807L259.6 89.4975C259.374 89.4574 259.158 89.3664 258.968 89.2308C258.778 89.0951 258.619 88.918 258.5 88.7115C258.377 88.5162 258.293 88.2966 258.253 88.066C258.213 87.8354 258.219 87.5988 258.269 87.3705L259.468 81.7061C259.571 81.2469 259.839 80.8477 260.217 80.5931C260.595 80.3385 261.052 80.2484 261.492 80.342L266.849 81.579Z" fill="#2B879B" fill-opacity="0.84"/>
<path d="M277.992 98.6069C279.317 98.3836 280.664 98.3563 281.996 98.5259C283.268 98.6848 284.504 99.0761 285.648 99.6819C286.737 100.276 287.697 101.103 288.464 102.11C289.154 103.095 289.64 104.221 289.89 105.416C290.14 106.61 290.149 107.847 289.916 109.046C289.706 109.967 289.369 110.851 288.915 111.67C288.477 112.466 287.969 113.217 287.397 113.912C286.836 114.606 286.297 115.265 285.802 115.901C285.317 116.493 284.887 117.132 284.515 117.808C284.166 118.401 283.991 119.088 284.009 119.785C283.999 120.11 283.912 120.428 283.756 120.71C283.676 120.839 283.572 120.95 283.448 121.033C283.325 121.117 283.186 121.172 283.041 121.195L279.741 121.75C279.587 121.779 279.429 121.776 279.276 121.74C279.123 121.705 278.978 121.637 278.85 121.542C278.72 121.456 278.611 121.339 278.533 121.2C278.455 121.062 278.409 120.905 278.399 120.744C278.261 119.669 278.336 118.574 278.619 117.531C278.878 116.606 279.247 115.721 279.719 114.895C280.182 114.102 280.712 113.356 281.303 112.664C281.886 111.97 282.403 111.323 282.909 110.699C283.361 110.141 283.752 109.532 284.075 108.884C284.361 108.325 284.466 107.684 284.372 107.057C284.289 106.506 284.081 105.983 283.765 105.535C283.449 105.086 283.035 104.724 282.557 104.479C281.375 103.879 280.036 103.708 278.751 103.994C277.588 104.173 276.505 104.725 275.653 105.576C274.8 106.426 274.218 107.533 273.988 108.745C273.924 109.036 273.812 109.314 273.658 109.566C273.462 109.785 273.195 109.921 272.91 109.947L269.434 110.537C269.19 110.586 268.937 110.532 268.73 110.386C268.624 110.31 268.535 110.211 268.469 110.095C268.402 109.979 268.36 109.85 268.345 109.716C268.242 108.569 268.412 107.413 268.84 106.352C269.275 105.118 269.916 103.975 270.732 102.977C271.627 101.883 272.681 100.947 273.856 100.202C275.124 99.3943 276.528 98.8525 277.992 98.6069V98.6069ZM283.668 123.865C283.819 123.84 283.974 123.847 284.123 123.884C284.272 123.922 284.413 123.99 284.537 124.085C284.667 124.175 284.777 124.292 284.86 124.43C284.944 124.567 284.998 124.721 285.021 124.883L285.637 128.848C285.685 129.169 285.61 129.498 285.429 129.762C285.247 130.026 284.974 130.204 284.669 130.258L280.984 130.894C280.678 130.944 280.366 130.865 280.115 130.674C279.987 130.584 279.879 130.466 279.798 130.328C279.716 130.191 279.663 130.037 279.642 129.877L279.026 125.912C278.998 125.752 279.002 125.589 279.038 125.432C279.074 125.274 279.141 125.127 279.235 124.998C279.321 124.864 279.434 124.751 279.564 124.665C279.695 124.579 279.841 124.524 279.994 124.501L283.668 123.865Z" fill="#2B879B" fill-opacity="0.84"/>
<g opacity="0.2">
<path d="M277.992 98.6069C279.317 98.3836 280.664 98.3563 281.996 98.5259C283.268 98.6848 284.504 99.0761 285.648 99.6819C286.737 100.276 287.697 101.103 288.464 102.11C289.154 103.095 289.64 104.221 289.89 105.416C290.14 106.61 290.149 107.847 289.916 109.046C289.706 109.967 289.369 110.851 288.915 111.67C288.477 112.466 287.969 113.217 287.397 113.912C286.836 114.606 286.297 115.265 285.802 115.901C285.317 116.493 284.887 117.132 284.515 117.808C284.166 118.401 283.991 119.088 284.009 119.785C283.999 120.11 283.912 120.428 283.756 120.71C283.676 120.839 283.572 120.95 283.448 121.033C283.325 121.117 283.186 121.172 283.041 121.195L279.741 121.75C279.587 121.779 279.429 121.776 279.276 121.74C279.123 121.705 278.978 121.637 278.85 121.542C278.72 121.456 278.611 121.339 278.533 121.2C278.455 121.062 278.409 120.905 278.399 120.744C278.261 119.669 278.336 118.574 278.619 117.531C278.878 116.606 279.247 115.721 279.719 114.895C280.182 114.102 280.712 113.356 281.303 112.664C281.886 111.97 282.403 111.323 282.909 110.699C283.361 110.141 283.752 109.532 284.075 108.884C284.361 108.325 284.466 107.684 284.372 107.057C284.289 106.506 284.081 105.983 283.765 105.535C283.449 105.086 283.035 104.724 282.557 104.479C281.375 103.879 280.036 103.708 278.751 103.994C277.588 104.173 276.505 104.725 275.653 105.576C274.8 106.426 274.218 107.533 273.988 108.745C273.924 109.036 273.812 109.314 273.658 109.566C273.462 109.785 273.195 109.921 272.91 109.947L269.434 110.537C269.19 110.586 268.937 110.532 268.73 110.386C268.624 110.31 268.535 110.211 268.469 110.095C268.402 109.979 268.36 109.85 268.345 109.716C268.242 108.569 268.412 107.413 268.84 106.352C269.275 105.118 269.916 103.975 270.732 102.977C271.627 101.883 272.681 100.947 273.856 100.202C275.124 99.3943 276.528 98.8525 277.992 98.6069V98.6069ZM283.668 123.865C283.819 123.84 283.974 123.847 284.123 123.884C284.272 123.922 284.413 123.99 284.537 124.085C284.667 124.175 284.777 124.292 284.86 124.43C284.944 124.567 284.998 124.721 285.021 124.883L285.637 128.848C285.685 129.169 285.61 129.498 285.429 129.762C285.247 130.026 284.974 130.204 284.669 130.258L280.984 130.894C280.678 130.944 280.366 130.865 280.115 130.674C279.987 130.584 279.879 130.466 279.798 130.328C279.716 130.191 279.663 130.037 279.642 129.877L279.026 125.912C278.998 125.752 279.002 125.589 279.038 125.432C279.074 125.274 279.141 125.127 279.235 124.998C279.321 124.864 279.434 124.751 279.564 124.665C279.695 124.579 279.841 124.524 279.994 124.501L283.668 123.865Z" fill="black"/>
</g>
<path d="M309.1 104.838C309.25 104.947 309.377 105.088 309.474 105.251C309.57 105.414 309.634 105.596 309.661 105.786C309.696 105.974 309.694 106.167 309.654 106.354C309.614 106.541 309.538 106.718 309.43 106.872L306.812 110.745C306.708 110.902 306.574 111.036 306.419 111.137C306.264 111.239 306.091 111.306 305.91 111.334C305.731 111.371 305.547 111.369 305.369 111.327C305.191 111.285 305.023 111.205 304.876 111.092L301.268 108.398C301.118 108.29 300.991 108.15 300.896 107.986C300.801 107.823 300.741 107.64 300.718 107.45C300.683 107.262 300.685 107.069 300.725 106.882C300.765 106.695 300.841 106.518 300.949 106.364L303.6 102.491C303.814 102.177 304.138 101.965 304.5 101.9C304.863 101.835 305.235 101.923 305.536 102.144L309.1 104.838ZM324.324 78.6081C325.64 79.577 326.811 80.7457 327.8 82.0761C328.765 83.3136 329.51 84.7232 330 86.2377C330.457 87.689 330.61 89.2267 330.451 90.7461C330.265 92.3663 329.681 93.9079 328.757 95.2198C328.071 96.2805 327.188 97.1848 326.161 97.8786C325.257 98.4739 324.275 98.9258 323.246 99.2196C322.243 99.4949 321.22 99.6806 320.188 99.7744L317.262 100.052C316.385 100.126 315.516 100.284 314.666 100.526C313.882 100.713 313.165 101.13 312.598 101.728C312.342 102.001 312.018 102.194 311.663 102.283C311.494 102.334 311.316 102.342 311.144 102.305C310.972 102.269 310.81 102.19 310.673 102.075L307.483 99.6935C307.178 99.4647 306.969 99.1209 306.9 98.734C306.859 98.5466 306.86 98.3515 306.904 98.1648C306.948 97.978 307.034 97.8047 307.153 97.659C307.898 96.6428 308.83 95.7938 309.892 95.162C310.849 94.613 311.869 94.1972 312.928 93.9251C313.95 93.6645 314.992 93.4982 316.041 93.428C317.075 93.3586 318.043 93.2777 318.945 93.1852C319.77 93.1086 320.586 92.9381 321.376 92.6766C322.067 92.4347 322.663 91.9591 323.07 91.3241C323.438 90.7879 323.677 90.1663 323.767 89.5122C323.857 88.8581 323.795 88.1908 323.587 87.5671C323.067 86.0263 322.072 84.7123 320.76 83.8332C318.384 82.053 315.792 81.9952 312.983 83.6598C312.7 83.8489 312.387 83.9821 312.059 84.0528C311.888 84.0654 311.717 84.0422 311.554 83.9846C311.392 83.9271 311.242 83.8363 311.113 83.7176L307.725 81.186C307.602 81.1004 307.497 80.9898 307.416 80.8607C307.335 80.7316 307.279 80.5867 307.252 80.4346C307.226 80.2773 307.231 80.1159 307.267 79.9607C307.303 79.8055 307.369 79.6599 307.461 79.5329C308.26 78.4565 309.299 77.6031 310.486 77.0475C311.834 76.4056 313.278 76.0144 314.754 75.8915C316.378 75.7489 318.012 75.8856 319.594 76.2961C321.301 76.7284 322.909 77.5144 324.324 78.6081V78.6081Z" fill="#2B879B" fill-opacity="0.84"/>
<g opacity="0.6">
<path d="M309.1 104.838C309.25 104.947 309.377 105.088 309.474 105.251C309.57 105.414 309.634 105.596 309.661 105.786C309.696 105.974 309.694 106.167 309.654 106.354C309.614 106.541 309.538 106.718 309.43 106.872L306.812 110.745C306.708 110.902 306.574 111.036 306.419 111.137C306.264 111.239 306.091 111.306 305.91 111.334C305.731 111.371 305.547 111.369 305.369 111.327C305.191 111.285 305.023 111.205 304.876 111.092L301.268 108.398C301.118 108.29 300.991 108.15 300.896 107.986C300.801 107.823 300.741 107.64 300.718 107.45C300.683 107.262 300.685 107.069 300.725 106.882C300.765 106.695 300.841 106.518 300.949 106.364L303.6 102.491C303.814 102.177 304.138 101.965 304.5 101.9C304.863 101.835 305.235 101.923 305.536 102.144L309.1 104.838ZM324.324 78.6081C325.64 79.577 326.811 80.7457 327.8 82.0761C328.765 83.3136 329.51 84.7232 330 86.2377C330.457 87.689 330.61 89.2267 330.451 90.7461C330.265 92.3663 329.681 93.9079 328.757 95.2198C328.071 96.2805 327.188 97.1848 326.161 97.8786C325.257 98.4739 324.275 98.9258 323.246 99.2196C322.243 99.4949 321.22 99.6806 320.188 99.7744L317.262 100.052C316.385 100.126 315.516 100.284 314.666 100.526C313.882 100.713 313.165 101.13 312.598 101.728C312.342 102.001 312.018 102.194 311.663 102.283C311.494 102.334 311.316 102.342 311.144 102.305C310.972 102.269 310.81 102.19 310.673 102.075L307.483 99.6935C307.178 99.4647 306.969 99.1209 306.9 98.734C306.859 98.5466 306.86 98.3515 306.904 98.1648C306.948 97.978 307.034 97.8047 307.153 97.659C307.898 96.6428 308.83 95.7938 309.892 95.162C310.849 94.613 311.869 94.1972 312.928 93.9251C313.95 93.6645 314.992 93.4982 316.041 93.428C317.075 93.3586 318.043 93.2777 318.945 93.1852C319.77 93.1086 320.586 92.9381 321.376 92.6766C322.067 92.4347 322.663 91.9591 323.07 91.3241C323.438 90.7879 323.677 90.1663 323.767 89.5122C323.857 88.8581 323.795 88.1908 323.587 87.5671C323.067 86.0263 322.072 84.7123 320.76 83.8332C318.384 82.053 315.792 81.9952 312.983 83.6598C312.7 83.8489 312.387 83.9821 312.059 84.0528C311.888 84.0654 311.717 84.0422 311.554 83.9846C311.392 83.9271 311.242 83.8363 311.113 83.7176L307.725 81.186C307.602 81.1004 307.497 80.9898 307.416 80.8607C307.335 80.7316 307.279 80.5867 307.252 80.4346C307.226 80.2773 307.231 80.1159 307.267 79.9607C307.303 79.8055 307.369 79.6599 307.461 79.5329C308.26 78.4565 309.299 77.6031 310.486 77.0475C311.834 76.4056 313.278 76.0144 314.754 75.8915C316.378 75.7489 318.012 75.8856 319.594 76.2961C321.301 76.7284 322.909 77.5144 324.324 78.6081V78.6081Z" fill="#1B2936"/>
</g>
<path d="M227.183 207.167H188.1V107.658C188.1 99.0155 191.367 90.7267 197.182 84.6154C202.998 78.504 210.885 75.0707 219.109 75.0707H222.717C230.941 75.0707 238.828 78.504 244.644 84.6154C250.459 90.7267 253.726 99.0155 253.726 107.658V179.33C253.711 186.718 250.909 193.798 245.932 199.017C240.956 204.236 234.213 207.167 227.183 207.167Z" fill="#263238"/>
<path d="M184.294 446.725C183.603 450.848 183.235 455.023 183.194 459.209C183.051 466.793 181.731 469.486 181.555 475.706C181.346 482.815 182.523 485.474 185.262 489.474C188.001 493.473 195.162 497.092 198.264 490.341C201.366 483.589 200.915 479.162 199.936 472.191C198.935 464.978 198.836 460.99 198.22 455.499C197.714 450.655 197.12 446.967 197.12 446.967L184.294 446.725Z" fill="#263238"/>
<path d="M204.776 396.358L181.016 395.907C181.368 412.577 183.887 431.084 184.316 446.771C184.404 449.719 184.25 469.648 185.306 475.671C186.901 484.78 197.175 483.543 197.725 478.099C198.275 472.654 197.065 449.384 197.098 446.979C196.999 436.945 201.498 420.01 203.819 401.999C203.918 401.132 204.666 397.225 204.776 396.358Z" fill="#FFA8A7"/>
<path d="M235.301 433.754C235.301 433.754 234.366 433.223 234.201 434.275C233.97 435.523 233.618 438.101 233.101 440.159C232.419 443.014 231.847 447.719 232.254 450.054C232.661 452.389 237.831 455.372 241.186 456.458C245.321 457.799 249.092 460.157 252.186 463.336C255.486 466.619 262.669 469.718 267.586 469.683C273.361 469.683 277.387 467.66 279.29 464.411C281.193 461.163 277.552 460.77 270.952 456.319L265.837 452.851C255.376 445.673 251.537 441.835 248.6 434.656L235.301 433.754Z" fill="#263238"/>
<path d="M248.688 429.304C248.512 424.148 251.9 380.324 251.9 380.324L229.339 391.133C234.168 421.443 235.202 428.599 235.279 433.558C235.18 433.973 235.139 434.402 235.158 434.829C235.158 440.713 241.505 443.892 246.433 447.823C250.622 451.272 255.086 454.335 259.776 456.978C263.362 458.863 270.644 459.036 271.546 456.62C265.54 451.799 256.806 444.586 252.032 439.083C249.7 436.494 248.864 434.471 248.688 429.304Z" fill="#FFA8A7"/>
<path d="M190.751 233.697C182.083 253.684 182.083 269.152 183.524 294.664C184.8 318.073 186.923 338.708 186.923 338.708C186.593 342.858 181.104 350.962 180.389 369.319C179.729 386.474 181.489 408.288 181.489 408.288C181.489 408.288 193.82 415.466 202.939 408.218C202.939 408.218 211.739 364.071 214.313 342.592C216.513 323.853 220.473 299.913 220.473 299.913L228.8 342.465C227.003 348.502 225.7 354.69 224.906 360.961C223.74 373.596 230.472 398.404 230.472 398.404C230.472 398.404 243.21 402.392 250.987 395.144C250.987 395.144 253.891 354.811 254.98 339.598C256.432 319.218 253.374 264.054 250.987 234.841L190.751 233.697Z" fill="#195295"/>
<path d="M220.495 299.878L223.916 267.811C223.916 267.811 239.25 265.66 246.202 258.794C244.212 262.065 241.562 264.836 238.438 266.91C235.315 268.984 231.795 270.31 228.129 270.793L223.179 300.629L228.8 342.465L220.495 299.878Z" fill="#263238"/>
<path d="M282.59 225.813C283.224 219.961 283.503 214.073 283.426 208.184C283.085 203.098 282.216 202.265 275.451 193.26C266.321 181.087 258.522 170.14 250.272 159.262C244.376 151.494 238.172 150.303 232.144 150.65C227.92 150.893 236.17 172.244 240.317 184.879L264 211.675C264.734 212.733 265.071 214.037 264.946 215.34L263.516 238.136L270.611 248.124C270.611 248.124 281.358 238.39 282.59 225.813Z" fill="#FFA8A7"/>
<path d="M209.308 151.343C204.721 151.679 196.383 152.499 196.383 152.499C191.576 155.32 190.355 157.644 189.464 164.348C189.079 167.215 191.301 174.833 193.204 185.665L196.812 205.745L196.416 215.71C194.546 221.79 190.311 229.339 186.571 240.471C204.941 251.245 220.341 251.65 234.311 249.719C244.959 248.274 250.602 245.569 252.483 242.887C252.087 231.894 251.383 225.096 251.163 213.606C251.086 208.785 251.361 203.907 251.548 198.358C258.687 192.185 258.775 181.92 254.848 175.238C245.795 159.829 236.984 150.13 231.154 150.627L209.308 151.343Z" fill="#2B879B" fill-opacity="0.84"/>
<path opacity="0.6" d="M209.308 151.343C204.721 151.679 196.383 152.499 196.383 152.499C191.576 155.32 190.355 157.644 189.464 164.348C189.079 167.215 191.301 174.833 193.204 185.665L196.812 205.745L196.416 215.71C194.546 221.79 190.311 229.339 186.571 240.471C204.941 251.245 220.341 251.65 234.311 249.719C244.959 248.274 250.602 245.569 252.483 242.887C252.087 231.894 251.383 225.096 251.163 213.606C251.086 208.785 251.361 203.907 251.548 198.358C258.687 192.185 258.775 181.92 254.848 175.238C245.795 159.829 236.984 150.13 231.154 150.627L209.308 151.343Z" fill="#1B2936"/>
<path opacity="0.1" d="M237.325 198.508C237.325 198.508 228.943 205.352 219.362 201.78C216.672 200.889 214.245 199.283 212.318 197.118C210.391 194.954 209.029 192.303 208.362 189.422C208.362 189.422 207.35 200.924 219.417 204.843C231.11 208.623 237.325 198.508 237.325 198.508Z" fill="black"/>
<path d="M248.699 119.773C248.336 136.466 243.199 140.581 240.603 141.737C238.007 142.893 233.035 142.2 228.195 141.356V151.436C228.195 151.436 233.783 157.586 233.365 162.175C232.947 166.765 224.565 167.285 218.317 162.788C214.87 160.299 211.751 157.341 209.044 153.991C208.524 153.344 208.24 152.525 208.241 151.679V128.096C208.241 128.096 205.59 131.044 200.904 127.669C199.893 126.991 199.027 126.099 198.362 125.05C197.696 124.001 197.246 122.818 197.039 121.577C196.832 120.335 196.873 119.062 197.16 117.838C197.447 116.614 197.972 115.466 198.704 114.467C200.75 111.935 205.942 111.762 208.428 115.623C209.836 118.502 210.023 121.403 211.596 120.247C215.776 117.08 213.532 109.843 218.581 106.375C220.238 105.466 221.959 104.693 223.729 104.063C232.738 100.792 240.548 98.0404 242.429 91.5668C245.971 93.6938 249.139 100.086 248.699 119.773Z" fill="#FFA8A7"/>
<path d="M230.934 134.686C232.088 134.686 233.024 133.702 233.024 132.489C233.024 131.276 232.088 130.293 230.934 130.293C229.78 130.293 228.844 131.276 228.844 132.489C228.844 133.702 229.78 134.686 230.934 134.686Z" fill="#B16668"/>
<path d="M229.548 117.242C229.547 117.694 229.421 118.136 229.184 118.513C228.946 118.89 228.609 119.186 228.213 119.364C227.818 119.542 227.381 119.594 226.958 119.514C226.534 119.434 226.142 119.225 225.831 118.913C225.519 118.601 225.301 118.2 225.205 117.759C225.108 117.319 225.136 116.858 225.286 116.434C225.435 116.01 225.7 115.642 226.047 115.374C226.394 115.107 226.808 114.952 227.238 114.93C227.536 114.914 227.834 114.962 228.114 115.071C228.393 115.18 228.649 115.348 228.865 115.564C229.081 115.781 229.253 116.041 229.371 116.329C229.488 116.618 229.548 116.928 229.548 117.242V117.242Z" fill="#263238"/>
<path d="M246.213 117.473C246.236 117.756 246.204 118.04 246.121 118.31C246.038 118.58 245.904 118.83 245.728 119.045C245.552 119.261 245.337 119.437 245.095 119.564C244.854 119.691 244.591 119.766 244.321 119.785C244.049 119.811 243.775 119.776 243.517 119.683C243.259 119.589 243.022 119.439 242.824 119.242C242.625 119.046 242.468 118.807 242.364 118.541C242.26 118.276 242.211 117.991 242.22 117.704C242.192 117.419 242.219 117.131 242.3 116.857C242.382 116.584 242.515 116.331 242.693 116.114C242.87 115.896 243.088 115.719 243.333 115.594C243.578 115.468 243.845 115.397 244.118 115.383C244.39 115.37 244.662 115.415 244.917 115.516C245.172 115.617 245.405 115.772 245.601 115.971C245.797 116.169 245.953 116.408 246.058 116.673C246.163 116.937 246.216 117.221 246.213 117.507V117.473Z" fill="#263238"/>
<path d="M226.721 123.183C224.824 123.183 223.004 122.392 221.661 120.983C220.319 119.574 219.563 117.663 219.56 115.669C219.56 110.56 224.576 110.56 226.721 110.56C228.866 110.56 233.871 110.56 233.871 115.669C233.868 117.661 233.114 119.571 231.774 120.979C230.433 122.388 228.616 123.18 226.721 123.183V123.183ZM226.721 111.739C222.321 111.739 220.693 112.895 220.693 115.669C220.693 117.356 221.33 118.973 222.465 120.165C223.6 121.357 225.138 122.027 226.743 122.027C228.348 122.027 229.886 121.357 231.021 120.165C232.156 118.973 232.793 117.356 232.793 115.669C232.749 112.837 231.055 111.739 226.721 111.739Z" fill="#195295"/>
<path d="M244.882 123.183C242.985 123.183 241.165 122.392 239.822 120.983C238.48 119.574 237.724 117.663 237.721 115.669C237.721 110.56 242.737 110.56 244.882 110.56C247.027 110.56 252.032 110.56 252.032 115.669C252.029 117.661 251.275 119.571 249.935 120.979C248.594 122.388 246.777 123.18 244.882 123.183V123.183ZM244.882 111.739C240.548 111.739 238.854 112.895 238.854 115.669C238.854 117.356 239.491 118.973 240.626 120.165C241.761 121.357 243.3 122.027 244.904 122.027C246.509 122.027 248.047 121.357 249.182 120.165C250.317 118.973 250.954 117.356 250.954 115.669C250.91 112.837 249.216 111.739 244.882 111.739Z" fill="#195295"/>
<path d="M234.982 113.242L235.334 127.287L242.363 124.998L234.982 113.242Z" fill="#F28F8F"/>
<path d="M228.184 141.39C223.08 140.685 212.575 137.518 210.936 133.148C211.596 135.356 212.881 137.3 214.621 138.72C217.756 141.552 228.184 144.731 228.184 144.731V141.39Z" fill="#F28F8F"/>
<path d="M228.437 106.421L223.773 109.415C223.405 108.743 223.299 107.947 223.475 107.193C223.651 106.44 224.097 105.787 224.719 105.369C225.027 105.173 225.369 105.045 225.725 104.991C226.082 104.938 226.445 104.961 226.792 105.06C227.14 105.158 227.465 105.329 227.747 105.563C228.03 105.797 228.265 106.089 228.437 106.421Z" fill="#263238"/>
<path d="M247.412 109.751L242.22 107.843C242.321 107.482 242.49 107.145 242.719 106.855C242.948 106.565 243.23 106.327 243.55 106.156C243.869 105.985 244.218 105.885 244.576 105.861C244.934 105.837 245.293 105.89 245.63 106.017C246.326 106.28 246.9 106.814 247.232 107.509C247.563 108.204 247.628 109.007 247.412 109.751V109.751Z" fill="#263238"/>
<path d="M233.31 116.271C233.235 116.271 233.162 116.255 233.093 116.225C233.024 116.194 232.962 116.15 232.909 116.094C232.857 116.038 232.816 115.971 232.789 115.899C232.761 115.826 232.748 115.748 232.749 115.669C232.749 114.71 234.553 114.086 236.181 114.086C237.809 114.086 238.854 114.71 238.854 115.669C238.82 115.795 238.748 115.906 238.648 115.984C238.549 116.063 238.428 116.105 238.304 116.105C238.18 116.105 238.059 116.063 237.96 115.984C237.86 115.906 237.788 115.795 237.754 115.669C237.754 115.554 237.193 115.265 236.214 115.265C235.426 115.247 234.642 115.388 233.904 115.681C233.904 115.761 233.889 115.841 233.858 115.915C233.828 115.989 233.784 116.055 233.728 116.111C233.673 116.166 233.607 116.209 233.535 116.236C233.463 116.264 233.386 116.275 233.31 116.271V116.271Z" fill="#195295"/>
<path d="M220.143 115.762H220.077L207.504 114.606C206.917 113.994 206.217 113.514 205.447 113.196L220.209 114.629C220.357 114.649 220.492 114.729 220.584 114.853C220.677 114.976 220.72 115.132 220.704 115.288C220.678 115.424 220.608 115.545 220.505 115.632C220.403 115.719 220.275 115.765 220.143 115.762Z" fill="#195295"/>
<path d="M168.52 129.541C172.634 123.761 175.439 119.403 179.19 114.513C181.324 111.704 182.688 109.693 184.69 106.814C186.098 104.826 186.89 103.15 188.496 102.537C190.231 101.79 191.795 100.663 193.083 99.231C193.875 98.3104 194.61 97.3374 195.283 96.3179C197.641 92.9829 200.441 90.0204 203.599 87.5208C206.899 84.9082 210.584 82.8968 213.983 80.4114C216.007 78.9201 218.174 76.4463 215.71 74.1343C214.954 73.4654 214.05 73.0081 213.081 72.8049C207.086 71.4408 201.872 73.6025 196.009 75.1747C193.462 75.8427 190.972 76.728 188.562 77.8219C187.377 78.3145 186.265 78.9842 185.262 79.8102C183.859 81.2966 182.71 83.0248 181.863 84.9198C179.3 89.7287 173.8 94.029 169.95 97.8323C165.451 102.283 161.425 106.364 156.288 111.265C151.668 115.692 147.147 119.762 142.912 124.594C139.403 128.582 140.712 131.703 141.174 132.79C144.034 138.963 147.235 141.182 151.074 145.009C157.674 151.633 180.499 170.695 188.056 176.995C189.68 178.335 190.955 180.085 191.763 182.082L193.215 185.607C201.839 187.272 207.592 173.666 200.453 157.285C199.271 154.637 197.465 152.349 195.206 150.638C186.186 143.737 168.52 129.541 168.52 129.541Z" fill="#FFA8A7"/>
<path d="M168.52 129.541C165.775 133.09 162.117 135.734 157.982 137.159C157.982 137.159 163.482 138.639 171.017 131.53L168.52 129.541Z" fill="#F28F8F"/>
<path d="M280.346 213.756L278.938 212.484C278.728 212.339 278.488 212.247 278.237 212.217C277.987 212.187 277.733 212.219 277.497 212.311L262.218 216.681C261.448 216.95 260.743 217.392 260.151 217.974C259.559 218.557 259.093 219.267 258.786 220.056L247.786 253.384C247.654 253.655 247.602 253.962 247.637 254.265C247.672 254.568 247.793 254.853 247.984 255.083V255.083L249.436 256.401C249.647 256.554 249.891 256.651 250.146 256.683C250.401 256.715 250.659 256.682 250.899 256.586L266.2 252.216C266.97 251.946 267.675 251.505 268.267 250.923C268.86 250.34 269.325 249.63 269.632 248.841C271.832 242.286 278.432 222.068 280.632 215.513C280.896 214.692 280.764 214.068 280.346 213.756Z" fill="#195295"/>
<path d="M249.227 254.667L260.227 221.339C260.533 220.551 260.998 219.841 261.591 219.26C262.183 218.68 262.889 218.241 263.659 217.975L278.927 213.606C280.346 213.201 281.127 214.057 280.621 215.513C278.421 222.068 271.821 242.286 269.621 248.841C269.314 249.63 268.849 250.34 268.256 250.923C267.664 251.505 266.959 251.946 266.189 252.216L250.921 256.632C249.513 256.979 248.754 256.123 249.227 254.667Z" fill="#2B879B" fill-opacity="0.84"/>
<path d="M261.998 218.9C261.204 219.532 260.588 220.379 260.216 221.351L249.216 254.667C249.09 254.931 249.038 255.228 249.065 255.522C249.092 255.817 249.198 256.097 249.37 256.331L248.006 255.106C247.811 254.879 247.686 254.595 247.649 254.291C247.611 253.987 247.663 253.679 247.797 253.407L258.797 220.079C259.145 219.173 259.709 218.377 260.436 217.767L261.998 218.9Z" fill="#37474F"/>
<path d="M276.155 228.946C275.055 232.333 271.238 234.599 264.924 236.171C258.61 237.743 255.123 244.783 256.124 246.922C257.125 249.06 267.333 251.06 271.414 250.447C275.495 249.835 279.587 243.639 280.83 241.72C282.073 239.801 283.503 226.414 282.194 224.576C280.885 222.738 278.124 223.027 278.124 223.027L276.155 228.946Z" fill="#F28F8F"/>
</svg>
