<svg width="79" height="100" viewBox="0 0 79 100" fill="none" xmlns="http://www.w3.org/2000/svg">
<path d="M50.7583 66.5571C49.4654 64.6203 44.8366 56.8165 46.8196 47.037H34.0257C34.0257 47.037 35.3334 55.7136 34.0257 58.7312C33.2401 60.5378 31.2508 63.9607 29.7803 66.4227C10.3001 69.8772 0.248535 82.6659 0.248535 100H78.7503C78.7514 83.1343 67.3764 70.2479 50.7583 66.5571Z" fill="#CEDADF"/>
<path d="M51.3822 66.7074C41.4714 75.0648 33.7138 69.8205 30.0156 66.011C29.9379 66.1434 29.8559 66.282 29.7803 66.4091C10.3001 69.8657 0.248535 82.6544 0.248535 99.9867H78.7503C78.7514 83.3371 67.6558 70.5841 51.3822 66.7074Z" fill="#678B9D"/>
<path d="M72.7334 99.9877H78.7517C78.7517 83.337 67.6561 70.584 51.3835 66.7083C41.4727 75.0657 33.7151 69.8215 30.0169 66.012C29.9392 66.1443 29.8573 66.283 29.7817 66.4101C24.9103 67.2734 20.6302 68.7218 16.9468 70.6775L72.7334 99.9877Z" fill="#678B9D"/>
<path d="M17.6711 17.8802C17.6711 17.8802 10.8923 32.1361 11.615 48.2648C12.3365 64.3914 42.0437 56.4195 42.0437 56.4195L32.8849 17.8802H17.6711Z" fill="#165069"/>
<path d="M62.3232 18.8339C62.3232 18.8339 67.2891 32.1361 66.5665 48.2648C65.8428 64.3914 36.1377 56.4195 36.1377 56.4195L45.2923 17.8802L62.3232 18.8339Z" fill="#165069"/>
<path d="M39.3361 2.51215C51.6448 2.51215 61.6291 13.6056 61.6291 27.2891C61.6291 40.9727 52.0387 55.8126 39.7279 55.8126C27.415 55.8126 17.041 40.9737 17.041 27.2891C17.041 13.6046 27.0222 2.51215 39.3361 2.51215Z" fill="#CEDADF"/>
<path d="M15.5892 99.987H64.9908C64.3113 93.2166 64.5298 83.873 68.9316 76.2477C65.3028 72.6588 60.7749 69.8628 55.5979 68.0132C50.6214 72.6987 37.8118 81.6894 26.9546 66.9923C21.431 67.8683 14.0924 71.8553 10.7073 74.96C12.4771 78.5469 16.2519 85.3592 15.5892 99.987Z" fill="#165069"/>
<path d="M48.2891 0.909618C32.4272 -2.46715 18.9632 3.40833 17.1997 21.0421L48.2891 0.909618Z" fill="#165069"/>
<path d="M17.04 27.2907C17.04 27.2907 38.5663 25.0641 44.9113 13.1934C44.9113 13.1934 50.7594 27.1101 62.8423 27.2907C62.8423 27.2907 64.1499 4.28666 48.288 0.909889" fill="#165069"/>
<path d="M41.7302 79.821C41.7302 80.6717 41.0402 81.3639 40.1894 81.3639C39.3365 81.3639 38.6465 80.6728 38.6465 79.821C38.6465 78.9702 39.3365 78.278 40.1894 78.278C41.0402 78.278 41.7302 78.9702 41.7302 79.821Z" fill="white"/>
<path d="M41.7302 86.1811C41.7302 87.0319 41.0402 87.724 40.1894 87.724C39.3365 87.724 38.6465 87.0329 38.6465 86.1811C38.6465 85.3283 39.3365 84.6382 40.1894 84.6382C41.0402 84.6382 41.7302 85.3283 41.7302 86.1811Z" fill="white"/>
<path d="M41.7302 92.1316C41.7302 92.9823 41.0402 93.6724 40.1894 93.6724C39.3365 93.6724 38.6465 92.9823 38.6465 92.1316C38.6465 91.2787 39.3365 90.5887 40.1894 90.5887C41.0402 90.5897 41.7302 91.2787 41.7302 92.1316Z" fill="white"/>
<path d="M41.7302 97.5306C41.7302 98.3813 41.0402 99.0735 40.1894 99.0735C39.3365 99.0735 38.6465 98.3824 38.6465 97.5306C38.6465 96.6798 39.3365 95.9876 40.1894 95.9876C41.0402 95.9876 41.7302 96.6788 41.7302 97.5306Z" fill="white"/>
<path opacity="0.45" d="M24.8745 28.5272C23.6047 29.858 22.8201 31.6593 22.8201 33.6507C22.8201 37.7448 26.1401 41.0669 30.2406 41.0669C33.0008 41.0669 35.4102 39.5555 36.6843 37.3194L24.8745 28.5272Z" fill="#DBEBF7"/>
<path opacity="0.45" d="M43.8116 28.5272C42.5387 29.858 41.7551 31.6593 41.7551 33.6507C41.7551 37.7448 45.0773 41.0669 49.1756 41.0669C51.9359 41.0669 54.3453 39.5555 55.6193 37.3194L43.8116 28.5272Z" fill="#DBEBF7"/>
<path d="M30.1456 25.7304C25.8267 25.7304 22.3354 29.2248 22.3354 33.5364C22.3354 37.85 25.8278 41.3445 30.1456 41.3445C34.4572 41.3445 37.9495 37.85 37.9495 33.5364C37.9495 29.2248 34.4572 25.7304 30.1456 25.7304ZM30.1456 40.7164C26.1775 40.7164 22.9614 37.5034 22.9614 33.5364C22.9614 29.5746 26.1765 26.3585 30.1456 26.3585C34.1053 26.3585 37.3203 29.5746 37.3203 33.5364C37.3214 37.5024 34.1053 40.7164 30.1456 40.7164Z" fill="#165069"/>
<path d="M48.9785 25.7304C44.6669 25.7304 41.1704 29.2248 41.1704 33.5364C41.1704 37.85 44.6669 41.3445 48.9785 41.3445C53.29 41.3445 56.7865 37.85 56.7865 33.5364C56.7876 29.2248 53.2911 25.7304 48.9785 25.7304ZM48.9785 40.7164C45.0125 40.7164 41.7985 37.5034 41.7985 33.5364C41.7985 29.5746 45.0114 26.3585 48.9785 26.3585C52.9466 26.3585 56.1584 29.5746 56.1584 33.5364C56.1584 37.5024 52.9466 40.7164 48.9785 40.7164Z" fill="#165069"/>
<path d="M37.1428 33.1327C37.1428 33.1327 39.713 31.5415 41.9764 33.1327L41.2454 33.6379C41.2454 33.6379 40.1173 32.0635 37.8749 33.6379L37.1428 33.1327Z" fill="#165069"/>
<path d="M21.656 32.426H22.7693V34.7986H21.656V32.426Z" fill="#165069"/>
<path d="M56.2314 32.426H57.3448V34.7986H56.2314V32.426Z" fill="#165069"/>
<path d="M61.187 32.8093C58.9341 32.531 57.345 32.426 57.345 32.426V34.8385C58.0287 34.2661 59.3679 33.9941 61.0127 33.95C61.0799 33.5582 61.1408 33.1706 61.187 32.8093Z" fill="#165069"/>
<path d="M17.437 32.8093C19.9126 32.531 21.6561 32.426 21.6561 32.426V34.8385C20.9031 34.2661 19.4337 33.9941 17.6292 33.95C17.5536 33.5582 17.4895 33.1706 17.437 32.8093Z" fill="#165069"/>
<path d="M64.74 95.7879C64.5698 89.6499 65.3796 82.3995 68.9328 76.2468C65.304 72.6578 60.7761 69.8619 55.5991 68.0123C50.6227 72.6977 37.813 81.6885 26.9558 66.9914C23.8616 67.484 20.2149 68.9596 16.9946 70.7L64.74 95.7879Z" fill="#165069"/>
</svg>
