<svg width="99" height="100" viewBox="0 0 99 100" fill="none" xmlns="http://www.w3.org/2000/svg">
<path d="M28.0004 19.8333H64.3337C66.167 19.8333 67.667 18.3333 67.667 16.5V9.83333C67.667 4.33333 63.167 0 57.8337 0H34.667C29.167 0 24.8337 4.5 24.8337 9.83333V16.5C24.6671 18.3333 26.167 19.8333 28.0004 19.8333Z" fill="#165069"/>
<path d="M82.5 8.16631H79.1667C78.1667 8.16631 77.5 8.83298 77.5 9.83298V16.4996C77.5 23.833 71.5 29.6663 64.3333 29.6663H28C20.6667 29.6663 14.8333 23.6663 14.8333 16.4996V9.83298C14.8333 8.83298 14.1667 8.16631 13.1667 8.16631H9.83333C4.33333 8.16631 0 12.6663 0 17.9996V85.6663C0 91.1663 4.5 95.4997 9.83333 95.4997H43.1667C47.8333 95.4997 48.3333 91.6663 48.3333 90.333V54.6663C48.3333 50.833 50.5 49.9997 51.6667 49.9997H87.6667C91.6667 49.9997 92.3333 46.4997 92.3333 45.333V18.333C92.5 12.6663 88 8.16631 82.5 8.16631Z" fill="#165069"/>
<path d="M96.5002 67.3334H60.1668C59.1668 67.3334 58.3335 66.5 58.3335 65.5V61.8334C58.3335 60.8334 59.1668 60 60.1668 60H96.5002C97.5002 60 98.3335 60.8334 98.3335 61.8334V65.5C98.3335 66.5 97.5002 67.3334 96.5002 67.3334ZM96.5002 83.6667H60.1668C59.1668 83.6667 58.3335 82.8334 58.3335 81.8334V78.1667C58.3335 77.1667 59.1668 76.3334 60.1668 76.3334H96.5002C97.5002 76.3334 98.3335 77.1667 98.3335 78.1667V81.8334C98.3335 82.8334 97.5002 83.6667 96.5002 83.6667ZM96.5002 100H60.1668C59.1668 100 58.3335 99.1667 58.3335 98.1667V94.5C58.3335 93.5 59.1668 92.6667 60.1668 92.6667H96.5002C97.5002 92.6667 98.3335 93.5 98.3335 94.5V98.1667C98.3335 99.1667 97.5002 100 96.5002 100Z" fill="#165069"/>
</svg>
