<svg width="100" height="100" viewBox="0 0 100 100" fill="none" xmlns="http://www.w3.org/2000/svg">
<path d="M85 16.6667H70V11.1111C70 8.16426 68.9464 5.33811 67.0711 3.25437C65.1957 1.17063 62.6522 0 60 0H40C37.3478 0 34.8043 1.17063 32.9289 3.25437C31.0536 5.33811 30 8.16426 30 11.1111V16.6667H15C11.0218 16.6667 7.20644 18.4226 4.3934 21.5482C1.58035 24.6738 0 28.9131 0 33.3333V83.3333C0 87.7536 1.58035 91.9928 4.3934 95.1185C7.20644 98.2441 11.0218 100 15 100H85C88.9782 100 92.7936 98.2441 95.6066 95.1185C98.4196 91.9928 100 87.7536 100 83.3333V33.3333C100 28.9131 98.4196 24.6738 95.6066 21.5482C92.7936 18.4226 88.9782 16.6667 85 16.6667ZM40 11.1111H60V16.6667H40V11.1111ZM90 83.3333C90 84.8068 89.4732 86.2198 88.5355 87.2617C87.5979 88.3036 86.3261 88.8889 85 88.8889H15C13.6739 88.8889 12.4021 88.3036 11.4645 87.2617C10.5268 86.2198 10 84.8068 10 83.3333V52.1667L33.4 61.1111C33.9309 61.1912 34.4691 61.1912 35 61.1111H65C65.5422 61.1 66.0806 61.0065 66.6 60.8333L90 52.1667V83.3333ZM90 40.4444L64.2 50H35.8L10 40.4444V33.3333C10 31.8599 10.5268 30.4468 11.4645 29.405C12.4021 28.3631 13.6739 27.7778 15 27.7778H85C86.3261 27.7778 87.5979 28.3631 88.5355 29.405C89.4732 30.4468 90 31.8599 90 33.3333V40.4444Z" fill="#165069"/>
</svg>
