<svg width="98" height="100" viewBox="0 0 98 100" fill="none" xmlns="http://www.w3.org/2000/svg">
<path d="M41.9145 42.0433C53.5244 42.0433 62.9361 32.6316 62.9361 21.0217C62.9361 9.41171 53.5244 0 41.9145 0C30.3045 0 20.8928 9.41171 20.8928 21.0217C20.8928 32.6316 30.3045 42.0433 41.9145 42.0433Z" fill="#165069"/>
<path d="M55.3855 80.4746H78.1644V85.0304H55.3855V80.4746Z" fill="#165069"/>
<path d="M35.861 86.9835V96.7459C35.861 97.6089 36.2039 98.4366 36.8141 99.0469C37.4244 99.6571 38.2521 100 39.1152 100H94.4353C95.2984 100 96.1261 99.6571 96.7363 99.0469C97.3466 98.4366 97.6894 97.6089 97.6894 96.7459V64.2046C97.6894 63.3415 97.3466 62.5138 96.7363 61.9036C96.1261 61.2933 95.2984 60.9505 94.4353 60.9505H71.6564V56.1669C71.6564 55.3039 71.3136 54.4762 70.7033 53.8659C70.093 53.2556 69.2653 52.9128 68.4023 52.9128C67.5392 52.9128 66.7115 53.2556 66.1013 53.8659C65.491 54.4762 65.1482 55.3039 65.1482 56.1669V60.9505H58.6399V49.3007C53.1102 48.3975 47.5167 47.9405 41.9137 47.934C29.5571 47.8814 17.339 50.5361 6.11832 55.7113C4.27155 56.5828 2.71355 57.9658 1.62918 59.6962C0.544804 61.4266 -0.0204226 63.4317 0.000563872 65.4737V86.9835H35.861ZM91.1812 93.4917H42.3693V67.4587H65.1482V68.8255C65.1482 69.6885 65.491 70.5162 66.1013 71.1265C66.7115 71.7367 67.5392 72.0796 68.4023 72.0796C69.2653 72.0796 70.093 71.7367 70.7033 71.1265C71.3136 70.5162 71.6564 69.6885 71.6564 68.8255V67.4587H91.1812V93.4917Z" fill="#165069"/>
</svg>
