<svg width="72" height="72" viewBox="0 0 72 72" fill="none" xmlns="http://www.w3.org/2000/svg">
<path d="M64.75 0H7.19444C3.2375 0 0 3.03516 0 6.74479V65.1997C0 68.9093 3.2375 71.9444 7.19444 71.9444H64.75C68.7069 71.9444 71.9444 68.9093 71.9444 65.1997V6.74479C71.9444 3.03516 68.7069 0 64.75 0ZM62.3518 62.9514H9.59259V8.99306H62.3518V62.9514ZM19.1852 40.4688H52.7593V44.9653H19.1852V40.4688ZM19.1852 49.4618H52.7593V53.9583H19.1852V49.4618ZM23.9815 20.2344C23.9818 19.3483 24.1683 18.471 24.5302 17.6526C24.8922 16.8341 25.4226 16.0905 26.0911 15.4642C26.7596 14.8378 27.5531 14.3411 28.4264 14.0023C29.2997 13.6635 30.2356 13.4893 31.1807 13.4896C32.1258 13.4899 33.0616 13.6647 33.9347 14.004C34.8077 14.3434 35.6009 14.8406 36.269 15.4673C36.937 16.0941 37.4669 16.838 37.8283 17.6567C38.1896 18.4754 38.3755 19.3528 38.3752 20.2389C38.3745 22.0283 37.6157 23.7442 36.2656 25.0091C34.9154 26.274 33.0846 26.9843 31.1759 26.9837C29.2672 26.9831 27.4369 26.2716 26.0877 25.0059C24.7385 23.7402 23.9808 22.0238 23.9815 20.2344ZM35.9722 26.9792H26.3796C22.4227 26.9792 19.1852 29.0026 19.1852 31.4757V35.9722H43.1667V31.4757C43.1667 29.0026 39.9292 26.9792 35.9722 26.9792Z" fill="#165069"/>
</svg>
