<svg width="77" height="77" viewBox="0 0 77 77" fill="none" xmlns="http://www.w3.org/2000/svg">
<path d="M38.537 19.0535C41.7262 19.0535 44.8437 19.999 47.4954 21.7706C50.1471 23.5421 52.2138 26.06 53.4342 29.0059C54.6547 31.9518 54.974 35.1934 54.3518 38.3208C53.7297 41.4481 52.1939 44.3208 49.9389 46.5755C47.6838 48.8302 44.8107 50.3657 41.6828 50.9878C38.5549 51.6098 35.3128 51.2906 32.3664 50.0703C29.42 48.8501 26.9017 46.7837 25.1299 44.1324C23.3581 41.4812 22.4124 38.3642 22.4124 35.1755C22.4124 30.8997 24.1112 26.799 27.1352 23.7755C30.1592 20.7521 34.2605 19.0535 38.537 19.0535ZM56.1275 14.6566H61.991V20.5191C61.991 21.2966 62.2999 22.0422 62.8497 22.5919C63.3995 23.1416 64.1452 23.4504 64.9228 23.4504C65.7003 23.4504 66.446 23.1416 66.9958 22.5919C67.5457 22.0422 67.8545 21.2966 67.8545 20.5191V14.6566H73.718C74.4956 14.6566 75.2413 14.3478 75.7911 13.798C76.3409 13.2483 76.6498 12.5027 76.6498 11.7253C76.6498 10.9479 76.3409 10.2023 75.7911 9.65259C75.2413 9.10287 74.4956 8.79404 73.718 8.79404H67.8545V2.93149C67.8545 2.15407 67.5457 1.40848 66.9958 0.858764C66.446 0.309043 65.7003 0.000212954 64.9228 0.000212954C64.1452 0.000212954 63.3995 0.309043 62.8497 0.858764C62.2999 1.40848 61.991 2.15407 61.991 2.93149V8.79404H56.1275C55.35 8.79404 54.6043 9.10287 54.0545 9.65259C53.5047 10.2023 53.1958 10.9479 53.1958 11.7253C53.1958 12.5027 53.5047 13.2483 54.0545 13.798C54.6043 14.3478 55.35 14.6566 56.1275 14.6566ZM72.8385 29.6794C72.4564 29.7329 72.0889 29.8623 71.7575 30.0598C71.4262 30.2574 71.1376 30.5192 70.9089 30.8298C70.6801 31.1404 70.5158 31.4937 70.4255 31.8687C70.3352 32.2437 70.3208 32.633 70.3832 33.0137C70.6462 34.6988 70.781 36.4014 70.7863 38.1068C70.7971 45.9969 67.9008 53.6146 62.6507 59.5051C60.2775 56.1015 57.2194 53.231 53.6722 51.0777C49.5995 54.9789 44.1772 57.1567 38.537 57.1567C32.8969 57.1567 27.4746 54.9789 23.4019 51.0777C19.8547 53.231 16.7966 56.1015 14.4234 59.5051C10.2999 54.8579 7.60698 49.1186 6.66841 42.9774C5.72984 36.8363 6.58561 30.5548 9.13282 24.8884C11.68 19.2219 15.8102 14.4119 21.0266 11.0367C26.243 7.66146 32.3236 5.8648 38.537 5.86277C40.2428 5.86809 41.9456 6.00282 43.631 6.26582C44.3909 6.36994 45.1613 6.17216 45.7771 5.71488C46.3929 5.25761 46.8049 4.57727 46.9247 3.81979C47.0446 3.06232 46.8628 2.28804 46.4183 1.66303C45.9738 1.03803 45.3021 0.612075 44.5471 0.476545C42.5603 0.152662 40.5501 -0.00665609 38.537 0.000212954C30.8574 0.00287787 23.3577 2.32508 17.0208 6.66252C10.6838 11 5.80517 17.1503 3.02421 24.3075C0.24324 31.4648 -0.310334 39.2951 1.43602 46.7723C3.18238 54.2495 7.14721 61.0248 12.8109 66.2104L13.2873 66.6501C20.2548 72.8114 29.2354 76.2125 38.537 76.2125C47.8387 76.2125 56.8192 72.8114 63.7867 66.6501L64.2631 66.2104C68.1702 62.6458 71.2899 58.3049 73.4228 53.4656C75.5558 48.6263 76.6548 43.3951 76.6498 38.1068C76.6567 36.0941 76.4973 34.0842 76.1734 32.0977C76.1155 31.7189 75.9829 31.3554 75.7834 31.0283C75.584 30.7012 75.3215 30.4169 75.0113 30.1919C74.7011 29.9669 74.3493 29.8058 73.9763 29.7178C73.6033 29.6299 73.2166 29.6168 72.8385 29.6794Z" fill="#165069"/>
</svg>
