<svg width="75" height="75" viewBox="0 0 75 75" fill="none" xmlns="http://www.w3.org/2000/svg">
<path d="M63.75 12.5H52.5V8.33333C52.5 6.1232 51.7098 4.00358 50.3033 2.44078C48.8968 0.877973 46.9891 0 45 0H30C28.0109 0 26.1032 0.877973 24.6967 2.44078C23.2902 4.00358 22.5 6.1232 22.5 8.33333V12.5H11.25C8.26631 12.5 5.40483 13.817 3.29505 16.1612C1.18526 18.5054 0 21.6848 0 25V62.5C0 65.8152 1.18526 68.9946 3.29505 71.3388C5.40483 73.683 8.26631 75 11.25 75H63.75C66.7337 75 69.5952 73.683 71.7049 71.3388C73.8147 68.9946 75 65.8152 75 62.5V25C75 21.6848 73.8147 18.5054 71.7049 16.1612C69.5952 13.817 66.7337 12.5 63.75 12.5ZM30 8.33333H45V12.5H30V8.33333ZM67.5 62.5C67.5 63.6051 67.1049 64.6649 66.4016 65.4463C65.6984 66.2277 64.7446 66.6667 63.75 66.6667H11.25C10.2554 66.6667 9.30161 66.2277 8.59835 65.4463C7.89509 64.6649 7.5 63.6051 7.5 62.5V39.125L25.05 45.8333C25.4482 45.8934 25.8518 45.8934 26.25 45.8333H48.75C49.1567 45.825 49.5604 45.7549 49.95 45.625L67.5 39.125V62.5ZM67.5 30.3333L48.15 37.5H26.85L7.5 30.3333V25C7.5 23.8949 7.89509 22.8351 8.59835 22.0537C9.30161 21.2723 10.2554 20.8333 11.25 20.8333H63.75C64.7446 20.8333 65.6984 21.2723 66.4016 22.0537C67.1049 22.8351 67.5 23.8949 67.5 25V30.3333Z" fill="#165069"/>
</svg>
