<svg width="100" height="100" viewBox="0 0 100 100" fill="none" xmlns="http://www.w3.org/2000/svg">
<path d="M80.1 70.7194C79.3 70.0101 79.2 68.693 79.8 67.7812C84.2 60.8916 86.8 52.7862 86.8 43.9716C86.8 19.7568 67.3 0 43.4 0C19.5 0 0 19.7568 0 43.9716C0 68.1864 19.5 87.9433 43.4 87.9433C52.7 87.9433 61.3 84.9037 68.4 79.8379C69.2 79.23 70.5 79.3313 71.2 80.0405L86.7 95.7447L87 96.0486C87.2 96.1499 88 96.8592 88.7 97.6697L90.5 99.3921C91.2 100.203 92.4 100.203 93.2 99.3921L99.4 93.1104C100.2 92.2999 100.2 91.0841 99.4 90.3749L80.1 70.7194ZM69.6 64.4377C68.2 66.3627 66.6 68.0851 64.8 69.6049C59 74.5694 51.5 77.6089 43.4 77.6089C25.1 77.6089 10.2 62.5127 10.2 43.9716C10.2 25.4306 25.1 10.4357 43.4 10.4357C61.7 10.4357 76.5 25.4306 76.5 43.9716C76.5 51.6717 73.9 58.7639 69.6 64.4377ZM53.9 36.4742C54.4 35.9676 54.7 35.0557 54.8 33.9412C54.9 33.232 54.9 32.6241 54.7 32.1175C54.5 31.2057 54.1 29.8886 54.2 28.7741C54.6 25.228 53.3 23.3029 52.1 22.2898C51.3 21.5805 50 20.5674 49.3 19.7568C47.6 18.1358 44.1 16.1094 38.9 19.2503C37.9 19.8582 36.4 21.074 35.5 22.1884C34.3 23.5056 33.4 25.5319 33.1 28.4701C32.9 29.5846 32 30.8004 31.6 31.8136C31.4 32.3202 31.4 33.0294 31.4 33.9412C31.5 35.157 31.9 36.0689 32.5 36.5755C33.2 37.386 34.4 38.2979 34.9 39.2097C36.8 42.6545 39.8 45.1874 43.2 45.1874C46.7 45.1874 49.7 42.6545 51.5 39.2097C52 38.2979 53.3 37.2847 53.9 36.4742ZM34.9 31.6109V30.5978C34.9 29.9899 35.8 29.5846 36.8 29.5846C41.3 29.382 44.4 27.7609 46.5 26.0385C47.3 25.4306 48.5 25.3293 49.1 26.2411C49.9 27.3556 50.5 28.4701 51 29.5846C51.4 30.5978 51.6 32.3202 51.4 33.3333C50.7 38.2979 47.3 43.2624 43.2 43.2624C38.6 43.2624 34.9 36.8794 34.9 31.6109ZM41.1 48.9362C41.1 48.8349 41.2 48.7335 41.2 48.6322C41.3 48.4296 41.4 48.3283 41.4 48.227H41.3L38 45.3901C37.2 44.6809 35.9 44.3769 35.1 44.4782L33.6 44.8835C28.7 45.998 25.2 50.2533 25.2 55.1165V61.4995C25.2 62.7153 26.3 63.7285 27.6 63.7285H38C39.1 63.7285 40.1 62.9179 40.3 61.8034L41.5 54.7112C41.7 53.6981 41.2 52.8875 40.8 52.381C40.6 52.077 40.5 51.6717 40.6 51.2665L41.1 48.9362ZM51.2 44.4782C50.4 44.3769 49.1 44.6809 48.3 45.3901L45 48.227H44.9C44.9 48.3283 45 48.4296 45.1 48.6322C45.1 48.7335 45.2 48.8349 45.2 48.9362L45.7 51.2665C45.8 51.6717 45.7 52.077 45.5 52.381C45.1 52.8875 44.6 53.6981 44.8 54.8126L46 61.8034C46.2 62.9179 47.2 63.7285 48.3 63.7285H58.7C60 63.7285 61 62.7153 61 61.4995V55.1165C61 50.2533 57.6 45.998 52.6 44.8835C52.6 44.8835 52 44.6809 51.2 44.4782Z" fill="#165069"/>
</svg>
