<svg width="650" height="650" viewBox="0 0 650 650" fill="none" xmlns="http://www.w3.org/2000/svg">
<path d="M531.868 133.9C499.524 60.151 421.888 32.383 360.632 81.9C336.712 101.218 321.788 131.963 292.499 144.3C265.017 155.87 230.203 152.464 200.485 158.73C137.201 171.99 51.9992 222.3 58.4992 299.819C61.3462 333.775 84.2522 371.488 95.5752 403.26C108.575 439.816 116.375 485.55 150.786 507.403C209.78 544.921 280.942 514.254 334.086 484.003C362.686 467.74 378.429 457.743 409.226 463.32C437.735 468.52 463.41 486.72 491.269 465.127C512.186 448.916 513.915 416.065 531.478 396.773C551.264 375.037 571.323 373.464 581.606 340.795C594.073 301.158 575.704 276.393 563.289 240.981C550.874 205.569 547.104 168.597 531.868 133.9Z" fill="#6695A0"/>
<g opacity="0.7">
<path d="M531.868 133.9C499.524 60.151 421.888 32.383 360.632 81.9C336.712 101.218 321.788 131.963 292.499 144.3C265.017 155.87 230.203 152.464 200.485 158.73C137.201 171.99 51.9992 222.3 58.4992 299.819C61.3462 333.775 84.2522 371.488 95.5752 403.26C108.575 439.816 116.375 485.55 150.786 507.403C209.78 544.921 280.942 514.254 334.086 484.003C362.686 467.74 378.429 457.743 409.226 463.32C437.735 468.52 463.41 486.72 491.269 465.127C512.186 448.916 513.915 416.065 531.478 396.773C551.264 375.037 571.323 373.464 581.606 340.795C594.073 301.158 575.704 276.393 563.289 240.981C550.874 205.569 547.104 168.597 531.868 133.9Z" fill="white"/>
</g>
<path d="M285.753 568.984C396.737 568.984 486.707 563.379 486.707 556.465C486.707 549.551 396.737 543.946 285.753 543.946C174.769 543.946 84.7988 549.551 84.7988 556.465C84.7988 563.379 174.769 568.984 285.753 568.984Z" fill="#6695A0"/>
<path opacity="0.8" d="M285.753 568.984C396.737 568.984 486.707 563.379 486.707 556.465C486.707 549.551 396.737 543.946 285.753 543.946C174.769 543.946 84.7988 549.551 84.7988 556.465C84.7988 563.379 174.769 568.984 285.753 568.984Z" fill="white"/>
<path d="M436.761 80.418H234.702C220.752 80.418 209.443 91.7268 209.443 105.677V532.259C209.443 546.209 220.752 557.518 234.702 557.518H436.761C450.712 557.518 462.02 546.209 462.02 532.259V105.677C462.02 91.7268 450.712 80.418 436.761 80.418Z" fill="#263238"/>
<path d="M450.788 132.808H220.662V505.128H450.788V132.808Z" fill="white" stroke="#263238" stroke-width="1.33739" stroke-miterlimit="10"/>
<path d="M371.003 283.571C390.483 264.091 390.483 232.509 371.003 213.029C351.523 193.549 319.94 193.549 300.461 213.029C280.981 232.509 280.981 264.091 300.461 283.571C319.94 303.051 351.523 303.051 371.003 283.571Z" fill="#6695A0"/>
<path d="M401.219 481.715H270.257C269.962 481.717 269.67 481.66 269.397 481.549C269.124 481.437 268.876 481.273 268.667 481.065C268.458 480.857 268.292 480.61 268.179 480.338C268.066 480.066 268.008 479.774 268.008 479.479C268.006 479.183 268.063 478.89 268.176 478.616C268.288 478.343 268.454 478.094 268.663 477.885C268.872 477.676 269.121 477.51 269.394 477.398C269.668 477.285 269.961 477.228 270.257 477.23H401.219C401.514 477.23 401.805 477.288 402.078 477.401C402.35 477.515 402.597 477.68 402.805 477.89C403.012 478.099 403.177 478.347 403.288 478.619C403.4 478.892 403.457 479.184 403.455 479.479C403.455 480.072 403.219 480.641 402.8 481.06C402.381 481.479 401.812 481.715 401.219 481.715Z" fill="#6695A0"/>
<path d="M405.484 326.222H265.981C263.102 326.222 260.768 328.556 260.768 331.435V347.88C260.768 350.759 263.102 353.093 265.981 353.093H405.484C408.363 353.093 410.697 350.759 410.697 347.88V331.435C410.697 328.556 408.363 326.222 405.484 326.222Z" fill="#6695A0"/>
<path d="M405.484 376.48H265.981C263.102 376.48 260.768 378.814 260.768 381.693V398.138C260.768 401.017 263.102 403.351 265.981 403.351H405.484C408.363 403.351 410.697 401.017 410.697 398.138V381.693C410.697 378.814 408.363 376.48 405.484 376.48Z" fill="#6695A0"/>
<path d="M360.569 273.182L345.892 264.732V257.751C348.017 255.18 349.556 252.177 350.403 248.95C350.908 249.129 351.44 249.222 351.976 249.223C353.796 249.223 354.953 243.581 355.148 239.551C357.267 235.066 354.381 232.44 354.381 232.44C354.381 232.44 355.577 231.244 356.37 226.447C357.163 221.65 353.575 223.652 350.78 219.258C347.985 214.864 345.983 210.08 336.805 210.08C334.276 209.997 331.78 210.676 329.643 212.03C327.505 213.384 325.824 215.35 324.819 217.672C322.534 217.68 320.258 217.946 318.033 218.465C315.225 219.258 314.432 228.449 316.824 232.05C317.895 234.018 318.466 236.219 318.488 238.459C317.851 237.679 317.188 237.471 316.824 239.239C316.031 243.23 319.229 248.82 319.229 248.82L320.88 248.352C321.712 251.8 323.316 255.014 325.573 257.751V264.732L310.896 273.182C309.182 274.172 307.758 275.595 306.768 277.308C305.778 279.022 305.256 280.966 305.254 282.945V287.781C313.983 294.524 324.702 298.182 335.732 298.182C346.763 298.182 357.482 294.524 366.211 287.781V282.945C366.212 280.965 365.691 279.02 364.7 277.306C363.71 275.592 362.285 274.17 360.569 273.182Z" fill="#263238"/>
<path d="M279.761 396.669C279.425 396.664 279.103 396.529 278.864 396.292C278.736 396.178 278.634 396.037 278.565 395.88C278.495 395.723 278.46 395.554 278.461 395.382C278.465 395.147 278.532 394.918 278.656 394.719L280.996 390.975L276.433 391.118C276.261 391.129 276.089 391.103 275.928 391.043C275.766 390.982 275.62 390.888 275.497 390.767C275.285 390.529 275.168 390.221 275.168 389.902C275.168 389.584 275.285 389.276 275.497 389.038C275.617 388.912 275.763 388.815 275.925 388.752C276.086 388.689 276.26 388.662 276.433 388.674L280.931 388.843L278.617 385.112C278.491 384.909 278.424 384.675 278.422 384.436C278.421 384.264 278.456 384.094 278.526 383.938C278.595 383.781 278.697 383.64 278.825 383.526C279.064 383.289 279.386 383.154 279.722 383.149C279.944 383.15 280.16 383.215 280.347 383.334C280.533 383.454 280.682 383.624 280.775 383.825L282.998 387.842L285.195 383.851C285.299 383.638 285.46 383.458 285.659 383.329C285.858 383.201 286.089 383.13 286.326 383.123C286.49 383.124 286.653 383.159 286.803 383.226C286.953 383.293 287.087 383.391 287.197 383.513C287.436 383.76 287.567 384.092 287.561 384.436C287.56 384.659 287.502 384.879 287.392 385.073L285.039 388.843L289.602 388.674C289.775 388.662 289.949 388.689 290.111 388.752C290.272 388.815 290.418 388.912 290.538 389.038C290.76 389.268 290.881 389.577 290.876 389.896C290.875 390.218 290.755 390.529 290.538 390.767C290.416 390.888 290.269 390.982 290.108 391.043C289.946 391.103 289.774 391.129 289.602 391.118L285.013 390.975L287.301 394.68C287.429 394.887 287.497 395.126 287.496 395.369C287.496 395.714 287.359 396.044 287.115 396.288C286.872 396.532 286.541 396.669 286.196 396.669C285.973 396.666 285.756 396.598 285.571 396.473C285.386 396.349 285.242 396.173 285.156 395.967L282.985 392.067L280.827 395.967C280.731 396.171 280.581 396.344 280.393 396.468C280.205 396.592 279.986 396.662 279.761 396.669Z" fill="#263238"/>
<path d="M300.847 396.669C300.51 396.664 300.189 396.529 299.95 396.292C299.822 396.178 299.72 396.037 299.65 395.88C299.581 395.723 299.545 395.554 299.547 395.382C299.551 395.147 299.618 394.918 299.742 394.719L302.082 390.975L297.532 391.118C297.358 391.126 297.185 391.099 297.022 391.039C296.859 390.978 296.709 390.886 296.583 390.767C296.41 390.589 296.295 390.363 296.253 390.119C296.21 389.875 296.242 389.623 296.345 389.397C296.447 389.172 296.615 388.982 296.827 388.853C297.038 388.724 297.284 388.662 297.532 388.674L302.017 388.843L299.703 385.112C299.577 384.909 299.509 384.675 299.508 384.436C299.506 384.264 299.542 384.094 299.611 383.938C299.681 383.781 299.783 383.64 299.911 383.526C300.15 383.289 300.471 383.154 300.808 383.149C301.029 383.15 301.246 383.215 301.432 383.334C301.618 383.454 301.767 383.624 301.861 383.825L304.084 387.842L306.281 383.851C306.385 383.638 306.545 383.458 306.745 383.329C306.944 383.201 307.175 383.13 307.412 383.123C307.576 383.122 307.739 383.157 307.889 383.224C308.039 383.291 308.174 383.39 308.283 383.513C308.403 383.634 308.498 383.779 308.563 383.937C308.628 384.095 308.661 384.265 308.66 384.436C308.655 384.66 308.592 384.88 308.478 385.073L306.125 388.843L310.701 388.7C310.872 388.688 311.043 388.715 311.203 388.778C311.363 388.841 311.506 388.939 311.624 389.064C311.845 389.294 311.967 389.603 311.962 389.922C311.961 390.244 311.84 390.555 311.624 390.793C311.504 390.914 311.359 391.008 311.2 391.068C311.041 391.129 310.871 391.155 310.701 391.144L306.099 391.001L308.387 394.706C308.515 394.913 308.582 395.152 308.582 395.395C308.582 395.74 308.445 396.07 308.201 396.314C307.957 396.558 307.626 396.695 307.282 396.695C307.059 396.692 306.842 396.624 306.657 396.499C306.472 396.375 306.328 396.199 306.242 395.993L304.071 392.093L301.913 395.993C301.813 396.192 301.662 396.36 301.474 396.479C301.286 396.598 301.069 396.664 300.847 396.669Z" fill="#263238"/>
<path d="M321.946 396.669C321.605 396.668 321.278 396.532 321.036 396.292C320.908 396.178 320.806 396.037 320.737 395.88C320.667 395.723 320.632 395.554 320.633 395.382C320.637 395.147 320.705 394.918 320.828 394.719L323.168 390.975L318.618 391.118C318.373 391.128 318.131 391.064 317.922 390.936C317.713 390.807 317.547 390.62 317.445 390.397C317.344 390.174 317.311 389.925 317.35 389.683C317.39 389.441 317.501 389.217 317.669 389.038C317.792 388.913 317.94 388.815 318.104 388.753C318.268 388.69 318.443 388.663 318.618 388.674L323.103 388.843L320.789 385.112C320.663 384.909 320.596 384.675 320.594 384.436C320.598 384.265 320.636 384.097 320.705 383.941C320.774 383.785 320.874 383.644 320.997 383.526C321.239 383.286 321.566 383.15 321.907 383.149C322.127 383.153 322.34 383.218 322.524 383.338C322.708 383.457 322.855 383.626 322.947 383.825L325.17 387.842L327.367 383.851C327.471 383.638 327.632 383.458 327.831 383.329C328.031 383.201 328.261 383.13 328.498 383.123C328.663 383.122 328.826 383.157 328.976 383.224C329.126 383.291 329.26 383.39 329.369 383.513C329.49 383.634 329.585 383.779 329.65 383.937C329.714 384.095 329.747 384.265 329.746 384.436C329.742 384.66 329.679 384.88 329.564 385.073L327.211 388.843L331.787 388.674C331.955 388.657 332.125 388.677 332.285 388.731C332.446 388.785 332.592 388.873 332.715 388.989C332.839 389.105 332.935 389.246 333 389.402C333.064 389.559 333.094 389.727 333.087 389.896C333.09 390.216 332.974 390.527 332.762 390.767C332.64 390.888 332.493 390.982 332.332 391.043C332.17 391.103 331.998 391.129 331.826 391.118L327.237 390.975L329.512 394.68C329.64 394.887 329.708 395.126 329.707 395.369C329.703 395.54 329.665 395.708 329.596 395.864C329.527 396.02 329.428 396.161 329.304 396.279C329.191 396.401 329.054 396.498 328.902 396.565C328.75 396.632 328.586 396.668 328.42 396.669C328.199 396.665 327.984 396.597 327.802 396.472C327.619 396.347 327.477 396.172 327.393 395.967L325.209 392.067L323.051 395.967C322.954 396.178 322.798 396.356 322.602 396.481C322.406 396.605 322.178 396.67 321.946 396.669Z" fill="#263238"/>
<path d="M343.032 396.669C342.691 396.668 342.364 396.532 342.122 396.292C341.877 396.052 341.737 395.725 341.732 395.382C341.728 395.148 341.791 394.918 341.914 394.719L344.254 390.975L339.704 391.118C339.53 391.126 339.357 391.099 339.194 391.039C339.031 390.978 338.882 390.886 338.755 390.767C338.543 390.529 338.426 390.221 338.426 389.902C338.426 389.584 338.543 389.276 338.755 389.038C338.88 388.917 339.029 388.822 339.192 388.759C339.355 388.697 339.529 388.668 339.704 388.674L344.202 388.843L341.901 385.112C341.775 384.909 341.708 384.675 341.706 384.436C341.71 384.265 341.748 384.097 341.817 383.941C341.886 383.785 341.985 383.644 342.109 383.526C342.351 383.286 342.678 383.15 343.019 383.149C343.24 383.15 343.457 383.215 343.643 383.334C343.83 383.454 343.978 383.624 344.072 383.825L346.282 387.842L348.479 383.851C348.583 383.638 348.744 383.458 348.943 383.329C349.142 383.201 349.373 383.13 349.61 383.123C349.774 383.122 349.937 383.157 350.087 383.224C350.238 383.291 350.372 383.39 350.481 383.513C350.601 383.634 350.697 383.779 350.761 383.937C350.826 384.095 350.859 384.265 350.858 384.436C350.853 384.66 350.791 384.88 350.676 385.073L348.323 388.843L352.899 388.674C353.067 388.657 353.237 388.677 353.397 388.731C353.557 388.785 353.704 388.873 353.827 388.989C353.95 389.105 354.047 389.246 354.111 389.402C354.175 389.559 354.205 389.727 354.199 389.896C354.202 390.216 354.086 390.527 353.874 390.767C353.751 390.888 353.605 390.982 353.443 391.043C353.282 391.103 353.11 391.129 352.938 391.118L348.349 390.975L350.624 394.68C350.752 394.887 350.82 395.126 350.819 395.369C350.82 395.541 350.785 395.71 350.715 395.867C350.646 396.024 350.544 396.165 350.416 396.279C350.303 396.401 350.166 396.498 350.014 396.565C349.862 396.632 349.698 396.668 349.532 396.669C349.311 396.665 349.096 396.597 348.913 396.472C348.731 396.347 348.589 396.172 348.505 395.967L346.321 392.067L344.163 395.967C344.064 396.182 343.904 396.363 343.703 396.488C343.502 396.612 343.268 396.676 343.032 396.669Z" fill="#263238"/>
<path d="M364.118 396.669C363.777 396.668 363.45 396.532 363.208 396.292C363.006 396.088 362.878 395.823 362.843 395.539C362.808 395.254 362.867 394.966 363.013 394.719L365.34 390.975L360.79 391.118C360.616 391.126 360.443 391.099 360.28 391.039C360.117 390.978 359.967 390.886 359.841 390.767C359.629 390.529 359.512 390.221 359.512 389.902C359.512 389.584 359.629 389.276 359.841 389.038C359.966 388.917 360.115 388.822 360.278 388.759C360.441 388.697 360.615 388.668 360.79 388.674L365.288 388.843L362.974 385.112C362.848 384.909 362.78 384.675 362.779 384.436C362.784 384.093 362.924 383.766 363.169 383.526C363.411 383.286 363.738 383.15 364.079 383.149C364.3 383.15 364.517 383.215 364.703 383.334C364.89 383.454 365.038 383.624 365.132 383.825L367.342 387.842L369.539 383.851C369.643 383.638 369.803 383.458 370.003 383.329C370.202 383.201 370.433 383.13 370.67 383.123C370.836 383.122 371.001 383.156 371.153 383.224C371.306 383.291 371.442 383.389 371.554 383.513C371.792 383.76 371.923 384.092 371.918 384.436C371.913 384.661 371.85 384.88 371.736 385.073L369.383 388.843L373.959 388.674C374.127 388.657 374.297 388.677 374.457 388.731C374.617 388.785 374.764 388.873 374.887 388.989C375.01 389.105 375.107 389.246 375.171 389.402C375.235 389.559 375.265 389.727 375.259 389.896C375.262 390.216 375.146 390.527 374.934 390.767C374.811 390.888 374.665 390.982 374.503 391.043C374.342 391.103 374.17 391.129 373.998 391.118L369.409 390.975L371.684 394.68C371.812 394.887 371.88 395.126 371.879 395.369C371.88 395.541 371.845 395.71 371.775 395.867C371.706 396.024 371.604 396.165 371.476 396.279C371.363 396.401 371.226 396.498 371.074 396.565C370.922 396.632 370.758 396.668 370.592 396.669C370.371 396.665 370.156 396.597 369.973 396.472C369.791 396.347 369.649 396.172 369.565 395.967L367.381 392.067L365.223 395.967C365.125 396.178 364.97 396.356 364.774 396.481C364.578 396.605 364.35 396.67 364.118 396.669Z" fill="#263238"/>
<path d="M385.204 396.669C384.868 396.664 384.546 396.529 384.307 396.292C384.179 396.178 384.077 396.037 384.008 395.88C383.938 395.724 383.903 395.554 383.904 395.382C383.908 395.147 383.976 394.918 384.099 394.719L386.426 390.975L381.876 391.118C381.709 391.131 381.541 391.108 381.383 391.052C381.224 390.997 381.079 390.908 380.957 390.793C380.835 390.678 380.738 390.539 380.672 390.385C380.607 390.23 380.574 390.064 380.576 389.896C380.575 389.737 380.606 389.579 380.666 389.432C380.726 389.285 380.815 389.151 380.927 389.038C381.047 388.912 381.193 388.815 381.355 388.752C381.517 388.689 381.69 388.662 381.863 388.674L386.361 388.843L384.047 385.112C383.921 384.909 383.854 384.675 383.852 384.436C383.857 384.093 383.997 383.766 384.242 383.526C384.484 383.286 384.811 383.15 385.152 383.149C385.374 383.15 385.59 383.215 385.777 383.334C385.963 383.454 386.112 383.624 386.205 383.825L388.415 387.842L390.625 383.851C390.728 383.64 390.887 383.461 391.084 383.333C391.281 383.204 391.509 383.132 391.743 383.123C391.91 383.122 392.075 383.156 392.227 383.224C392.379 383.291 392.516 383.389 392.627 383.513C392.866 383.76 392.997 384.092 392.991 384.436C392.991 384.659 392.932 384.879 392.822 385.073L390.469 388.843L395.032 388.674C395.205 388.662 395.379 388.689 395.541 388.752C395.703 388.815 395.849 388.912 395.968 389.038C396.19 389.268 396.311 389.577 396.306 389.896C396.305 390.218 396.185 390.529 395.968 390.767C395.846 390.888 395.699 390.982 395.538 391.043C395.377 391.103 395.204 391.129 395.032 391.118L390.443 390.975L392.718 394.68C392.846 394.887 392.914 395.126 392.913 395.369C392.908 395.712 392.768 396.039 392.523 396.279C392.286 396.521 391.965 396.661 391.626 396.669C391.405 396.665 391.19 396.597 391.008 396.472C390.825 396.347 390.683 396.172 390.599 395.967L388.415 392.067L386.257 395.967C386.164 396.17 386.016 396.343 385.83 396.467C385.644 396.591 385.428 396.661 385.204 396.669Z" fill="#263238"/>
<g style="mix-blend-mode:multiply">
<path d="M450.788 133.302H220.662V147.719H450.788V133.302Z" fill="#6695A0"/>
</g>
<path d="M360.751 106.743H310.701C309.798 106.743 308.931 106.384 308.293 105.745C307.654 105.107 307.295 104.24 307.295 103.337C307.295 102.434 307.654 101.567 308.293 100.929C308.931 100.29 309.798 99.931 310.701 99.931H360.751C361.654 99.931 362.521 100.29 363.159 100.929C363.798 101.567 364.157 102.434 364.157 103.337C364.157 104.24 363.798 105.107 363.159 105.745C362.521 106.384 361.654 106.743 360.751 106.743Z" fill="#6695A0" stroke="#263238" stroke-width="1.33739" stroke-linecap="round" stroke-linejoin="round"/>
<path d="M349.376 526.162C349.379 523.461 348.58 520.82 347.081 518.574C345.582 516.327 343.451 514.575 340.956 513.541C338.461 512.506 335.715 512.234 333.066 512.761C330.417 513.287 327.984 514.587 326.074 516.497C324.164 518.407 322.864 520.84 322.338 523.489C321.812 526.138 322.083 528.884 323.118 531.379C324.152 533.873 325.904 536.005 328.151 537.504C330.397 539.003 333.038 539.802 335.739 539.799C339.355 539.796 342.821 538.358 345.378 535.801C347.935 533.244 349.373 529.778 349.376 526.162Z" fill="#6695A0"/>
<path d="M342.654 519.246H328.822V533.078H342.654V519.246Z" fill="#6695A0" stroke="#263238" stroke-width="1.33739" stroke-linecap="round" stroke-linejoin="round"/>
<path d="M500.5 369.2C500.5 369.2 482.378 323.154 498.511 317.681C515.307 311.974 514.566 342.381 513.916 357.201C512.551 388.869 509.054 394.758 506.441 387.023L500.5 369.2ZM495.053 405.119C500.032 411.619 501.436 404.885 492.453 374.478C488.241 360.178 479.089 331.253 465.049 342.108C451.568 352.508 483.652 390.208 483.652 390.208L495.053 405.119ZM485.433 431.509C490.178 435.721 490.269 430.404 478.998 408.447C473.707 398.164 462.514 377.351 453.349 387.647C444.548 397.579 474.539 421.72 474.539 421.72L485.433 431.509ZM475.033 462.891C479.778 467.116 479.869 461.786 468.598 439.842C463.307 429.559 452.114 408.733 442.949 419.042C434.2 429 464.1 453.141 464.1 453.141L475.033 462.891ZM505.063 399.009C497.471 401.973 503.503 405.197 535.21 405.106C550.082 405.106 580.45 404.43 573.976 387.907C567.775 372.034 522.613 392.249 522.613 392.249L505.063 399.009ZM496.418 420.121C488.384 421.512 493.662 425.88 524.758 432.094C539.331 435.019 569.218 440.414 566.163 422.994C563.238 406.198 514.956 417.04 514.956 417.04L496.418 420.121ZM486.746 445.9C479.908 446.888 484.276 450.697 510.419 456.677C522.678 459.485 547.833 464.75 545.649 449.891C543.569 435.591 502.489 443.677 502.489 443.677L486.746 445.9ZM479.401 469.781C472.706 471.484 477.451 474.812 504.101 477.984C516.581 479.466 542.152 482.04 538.421 467.493C534.82 453.531 494.832 465.894 494.832 465.894L479.401 469.781ZM518.583 373.1C514.683 381.836 522.782 380.51 550.316 356.486C563.212 345.215 589.082 321.633 568.594 309.894C548.925 298.61 527.774 353.054 527.774 353.054L518.583 373.1ZM480.415 500.89C476.294 503.295 480.337 504.231 499.239 500.461C508.105 498.706 526.136 494.806 520.039 487.11C514.137 479.7 489.957 495.3 489.957 495.3L480.415 500.89Z" fill="#6695A0"/>
<path opacity="0.3" d="M500.5 369.2C500.5 369.2 482.378 323.154 498.511 317.681C515.307 311.974 514.566 342.381 513.916 357.201C512.551 388.869 509.054 394.758 506.441 387.023L500.5 369.2ZM495.053 405.119C500.032 411.619 501.436 404.885 492.453 374.478C488.241 360.178 479.089 331.253 465.049 342.108C451.568 352.508 483.652 390.208 483.652 390.208L495.053 405.119ZM485.433 431.509C490.178 435.721 490.269 430.404 478.998 408.447C473.707 398.164 462.514 377.351 453.349 387.647C444.548 397.579 474.539 421.72 474.539 421.72L485.433 431.509ZM475.033 462.891C479.778 467.116 479.869 461.786 468.598 439.842C463.307 429.559 452.114 408.733 442.949 419.042C434.2 429 464.1 453.141 464.1 453.141L475.033 462.891ZM505.063 399.009C497.471 401.973 503.503 405.197 535.21 405.106C550.082 405.106 580.45 404.43 573.976 387.907C567.775 372.034 522.613 392.249 522.613 392.249L505.063 399.009ZM496.418 420.121C488.384 421.512 493.662 425.88 524.758 432.094C539.331 435.019 569.218 440.414 566.163 422.994C563.238 406.198 514.956 417.04 514.956 417.04L496.418 420.121ZM486.746 445.9C479.908 446.888 484.276 450.697 510.419 456.677C522.678 459.485 547.833 464.75 545.649 449.891C543.569 435.591 502.489 443.677 502.489 443.677L486.746 445.9ZM479.401 469.781C472.706 471.484 477.451 474.812 504.101 477.984C516.581 479.466 542.152 482.04 538.421 467.493C534.82 453.531 494.832 465.894 494.832 465.894L479.401 469.781ZM518.583 373.1C514.683 381.836 522.782 380.51 550.316 356.486C563.212 345.215 589.082 321.633 568.594 309.894C548.925 298.61 527.774 353.054 527.774 353.054L518.583 373.1ZM480.415 500.89C476.294 503.295 480.337 504.231 499.239 500.461C508.105 498.706 526.136 494.806 520.039 487.11C514.137 479.7 489.957 495.3 489.957 495.3L480.415 500.89Z" fill="white"/>
<path d="M508.495 390.637L505.336 338.078L508.495 390.637ZM498.498 407.979L478.53 362.778L498.498 407.979ZM550.03 394.836L502.177 401.7L550.03 394.836ZM488.15 432.341L462.241 399.1L488.15 432.341ZM492.7 422.149L528.398 423.943L492.7 422.149ZM484.25 447.642L511.55 450.346L484.25 447.642ZM477.659 463.84L464.1 443.443L477.659 463.84ZM476.099 471.042L508.196 471.341L476.099 471.042ZM469.599 531.258C469.814 531.241 470.014 531.141 470.155 530.977C470.296 530.814 470.367 530.602 470.353 530.387C468.312 499.733 480.168 449.527 499.187 408.317C511.342 381.979 558.987 330.213 559.494 329.693C559.647 329.539 559.733 329.331 559.733 329.114C559.733 328.898 559.647 328.69 559.494 328.536C559.419 328.461 559.33 328.401 559.232 328.36C559.133 328.319 559.028 328.298 558.922 328.298C558.816 328.298 558.71 328.319 558.612 328.36C558.514 328.401 558.425 328.461 558.35 328.536C557.869 329.056 510.029 381.017 497.77 407.589C478.4 449.8 466.7 499.096 468.78 530.491C468.796 530.698 468.889 530.891 469.041 531.033C469.192 531.175 469.391 531.255 469.599 531.258ZM508.482 391.443C508.697 391.43 508.898 391.332 509.041 391.171C509.185 391.011 509.26 390.8 509.249 390.585L506.142 338C506.137 337.893 506.111 337.788 506.065 337.691C506.019 337.594 505.954 337.508 505.874 337.436C505.794 337.365 505.701 337.31 505.599 337.275C505.498 337.24 505.391 337.226 505.284 337.233C505.069 337.246 504.868 337.344 504.724 337.505C504.581 337.665 504.506 337.876 504.517 338.091L507.676 390.65C507.686 390.857 507.775 391.052 507.925 391.195C508.075 391.338 508.275 391.417 508.482 391.417V391.443ZM498.784 408.72C498.979 408.632 499.131 408.471 499.209 408.272C499.287 408.073 499.283 407.851 499.2 407.654L479.219 362.453C479.133 362.256 478.972 362.102 478.772 362.024C478.572 361.946 478.349 361.951 478.153 362.037C477.956 362.123 477.802 362.284 477.724 362.484C477.646 362.684 477.651 362.906 477.737 363.103L497.705 408.304C497.768 408.449 497.871 408.573 498.002 408.661C498.134 408.748 498.288 408.796 498.446 408.798C498.58 408.805 498.714 408.778 498.836 408.72H498.784ZM502.242 402.48L550.069 395.642C550.184 395.64 550.298 395.613 550.402 395.563C550.507 395.514 550.6 395.443 550.675 395.355C550.75 395.267 550.805 395.165 550.838 395.054C550.87 394.943 550.879 394.826 550.863 394.712C550.848 394.597 550.808 394.488 550.747 394.39C550.686 394.292 550.604 394.208 550.509 394.143C550.413 394.079 550.304 394.035 550.19 394.016C550.076 393.996 549.96 394.001 549.848 394.03L502.021 400.868C501.807 400.882 501.608 400.98 501.466 401.141C501.325 401.302 501.253 401.512 501.267 401.726C501.281 401.94 501.379 402.139 501.54 402.281C501.701 402.422 501.911 402.494 502.125 402.48H502.242ZM488.605 432.991C488.775 432.858 488.885 432.663 488.912 432.448C488.939 432.234 488.88 432.018 488.748 431.847L462.826 398.541C462.693 398.369 462.497 398.256 462.282 398.228C462.066 398.2 461.848 398.259 461.675 398.391C461.503 398.524 461.39 398.72 461.362 398.936C461.334 399.152 461.393 399.37 461.526 399.542L487.5 432.9C487.575 432.997 487.672 433.076 487.782 433.13C487.893 433.184 488.014 433.212 488.137 433.212C488.331 433.202 488.515 433.124 488.657 432.991H488.605ZM529.113 423.982C529.12 423.767 529.042 423.558 528.896 423.4C528.75 423.241 528.548 423.147 528.333 423.137L492.7 421.33C492.5 421.344 492.311 421.431 492.171 421.574C492.031 421.717 491.948 421.907 491.938 422.108C491.928 422.308 491.993 422.505 492.119 422.662C492.245 422.818 492.424 422.922 492.622 422.955L528.32 424.762C528.535 424.769 528.744 424.691 528.902 424.545C529.06 424.399 529.155 424.197 529.165 423.982H529.113ZM512.304 450.424C512.316 450.317 512.307 450.209 512.277 450.105C512.248 450.002 512.197 449.905 512.129 449.822C512.061 449.738 511.977 449.669 511.882 449.618C511.787 449.568 511.683 449.537 511.576 449.527L484.276 446.836C484.17 446.825 484.063 446.836 483.961 446.866C483.859 446.897 483.764 446.948 483.682 447.016C483.6 447.083 483.532 447.167 483.482 447.261C483.432 447.355 483.402 447.458 483.392 447.564C483.374 447.777 483.44 447.989 483.576 448.154C483.712 448.32 483.907 448.425 484.12 448.448L511.42 451.152H511.498C511.708 451.167 511.915 451.098 512.075 450.962C512.235 450.826 512.336 450.633 512.356 450.424H512.304ZM478.049 464.516C478.229 464.397 478.355 464.211 478.399 463.999C478.443 463.787 478.401 463.566 478.283 463.385L464.789 442.988C464.665 442.812 464.479 442.691 464.268 442.65C464.057 442.609 463.838 442.651 463.658 442.767C463.477 442.886 463.351 443.072 463.308 443.284C463.264 443.496 463.306 443.717 463.424 443.898L476.918 464.295C476.995 464.407 477.098 464.498 477.218 464.561C477.338 464.625 477.471 464.658 477.607 464.659C477.783 464.669 477.957 464.618 478.101 464.516H478.049ZM509.015 471.341C509.012 471.127 508.926 470.923 508.776 470.77C508.626 470.617 508.423 470.529 508.209 470.522L476.112 470.223C475.898 470.223 475.693 470.308 475.542 470.459C475.391 470.61 475.306 470.815 475.306 471.029C475.302 471.136 475.321 471.243 475.36 471.344C475.399 471.444 475.458 471.535 475.533 471.611C475.609 471.688 475.699 471.748 475.798 471.789C475.898 471.83 476.004 471.85 476.112 471.848L508.209 472.147C508.319 472.152 508.428 472.135 508.531 472.097C508.634 472.059 508.729 472.001 508.809 471.926C508.889 471.851 508.953 471.76 508.997 471.66C509.042 471.559 509.065 471.451 509.067 471.341H509.015ZM465.946 519.337C466.011 519.194 471.484 504.114 487.942 500.513C488.154 500.466 488.339 500.337 488.456 500.155C488.573 499.972 488.612 499.75 488.566 499.538C488.513 499.33 488.383 499.151 488.201 499.037C488.019 498.923 487.801 498.884 487.591 498.927C470.236 502.723 464.477 518.648 464.412 518.804C464.345 519.009 464.36 519.232 464.455 519.427C464.55 519.621 464.716 519.77 464.919 519.844H465.179C465.352 519.859 465.525 519.818 465.672 519.726C465.82 519.635 465.934 519.498 465.998 519.337H465.946ZM469.599 531.258C469.814 531.241 470.014 531.141 470.155 530.977C470.296 530.814 470.367 530.602 470.353 530.387C468.312 499.733 480.168 449.527 499.187 408.317C511.342 381.979 558.987 330.213 559.494 329.693C559.647 329.539 559.733 329.331 559.733 329.114C559.733 328.898 559.647 328.69 559.494 328.536C559.419 328.461 559.33 328.401 559.232 328.36C559.133 328.319 559.028 328.298 558.922 328.298C558.816 328.298 558.71 328.319 558.612 328.36C558.514 328.401 558.425 328.461 558.35 328.536C557.869 329.056 510.029 381.017 497.77 407.589C478.4 449.8 466.7 499.096 468.78 530.491C468.796 530.698 468.889 530.891 469.041 531.033C469.192 531.175 469.391 531.255 469.599 531.258ZM508.482 391.443C508.697 391.43 508.898 391.332 509.041 391.171C509.185 391.011 509.26 390.8 509.249 390.585L506.142 338C506.137 337.893 506.111 337.788 506.065 337.691C506.019 337.594 505.954 337.508 505.874 337.436C505.794 337.365 505.701 337.31 505.599 337.275C505.498 337.24 505.391 337.226 505.284 337.233C505.069 337.246 504.868 337.344 504.724 337.505C504.581 337.665 504.506 337.876 504.517 338.091L507.676 390.65C507.686 390.857 507.775 391.052 507.925 391.195C508.075 391.338 508.275 391.417 508.482 391.417V391.443ZM498.784 408.72C498.979 408.632 499.131 408.471 499.209 408.272C499.287 408.073 499.283 407.851 499.2 407.654L479.219 362.453C479.133 362.256 478.972 362.102 478.772 362.024C478.572 361.946 478.349 361.951 478.153 362.037C477.956 362.123 477.802 362.284 477.724 362.484C477.646 362.684 477.651 362.906 477.737 363.103L497.705 408.304C497.768 408.449 497.871 408.573 498.002 408.661C498.134 408.748 498.288 408.796 498.446 408.798C498.58 408.805 498.714 408.778 498.836 408.72H498.784ZM502.242 402.48L550.069 395.642C550.184 395.64 550.298 395.613 550.402 395.563C550.507 395.514 550.6 395.443 550.675 395.355C550.75 395.267 550.805 395.165 550.838 395.054C550.87 394.943 550.879 394.826 550.863 394.712C550.848 394.597 550.808 394.488 550.747 394.39C550.686 394.292 550.604 394.208 550.509 394.143C550.413 394.079 550.304 394.035 550.19 394.016C550.076 393.996 549.96 394.001 549.848 394.03L502.021 400.868C501.807 400.882 501.608 400.98 501.466 401.141C501.325 401.302 501.253 401.512 501.267 401.726C501.281 401.94 501.379 402.139 501.54 402.281C501.701 402.422 501.911 402.494 502.125 402.48H502.242ZM488.605 432.991C488.775 432.858 488.885 432.663 488.912 432.448C488.939 432.234 488.88 432.018 488.748 431.847L462.826 398.541C462.76 398.456 462.678 398.384 462.585 398.33C462.491 398.277 462.388 398.242 462.282 398.228C462.175 398.214 462.066 398.221 461.962 398.249C461.858 398.278 461.761 398.326 461.675 398.391C461.59 398.457 461.518 398.539 461.465 398.632C461.411 398.726 461.376 398.829 461.362 398.936C461.348 399.043 461.356 399.151 461.384 399.255C461.412 399.359 461.46 399.457 461.526 399.542L487.5 432.9C487.575 432.997 487.672 433.076 487.782 433.13C487.893 433.184 488.014 433.212 488.137 433.212C488.331 433.202 488.515 433.124 488.657 432.991H488.605ZM529.113 423.982C529.12 423.767 529.042 423.558 528.896 423.4C528.75 423.241 528.548 423.147 528.333 423.137L492.7 421.33C492.5 421.344 492.311 421.431 492.171 421.574C492.031 421.717 491.948 421.907 491.938 422.108C491.928 422.308 491.993 422.505 492.119 422.662C492.245 422.818 492.424 422.922 492.622 422.955L528.32 424.762C528.535 424.769 528.744 424.691 528.902 424.545C529.06 424.399 529.155 424.197 529.165 423.982H529.113ZM512.304 450.424C512.316 450.317 512.307 450.209 512.277 450.105C512.248 450.002 512.197 449.905 512.129 449.822C512.061 449.738 511.977 449.669 511.882 449.618C511.787 449.568 511.683 449.537 511.576 449.527L484.276 446.836C484.17 446.825 484.063 446.836 483.961 446.866C483.859 446.897 483.764 446.948 483.682 447.016C483.6 447.083 483.532 447.167 483.482 447.261C483.432 447.355 483.402 447.458 483.392 447.564C483.374 447.777 483.44 447.989 483.576 448.154C483.712 448.32 483.907 448.425 484.12 448.448L511.42 451.152H511.498C511.708 451.167 511.915 451.098 512.075 450.962C512.235 450.826 512.336 450.633 512.356 450.424H512.304ZM478.049 464.516C478.229 464.397 478.355 464.211 478.399 463.999C478.443 463.787 478.401 463.566 478.283 463.385L464.789 442.988C464.665 442.812 464.479 442.691 464.268 442.65C464.057 442.609 463.838 442.651 463.658 442.767C463.477 442.886 463.351 443.072 463.308 443.284C463.264 443.496 463.306 443.717 463.424 443.898L476.918 464.295C476.995 464.407 477.098 464.498 477.218 464.561C477.338 464.625 477.471 464.658 477.607 464.659C477.783 464.669 477.957 464.618 478.101 464.516H478.049ZM509.015 471.341C509.012 471.127 508.926 470.923 508.776 470.77C508.626 470.617 508.423 470.529 508.209 470.522L476.112 470.223C475.898 470.223 475.693 470.308 475.542 470.459C475.391 470.61 475.306 470.815 475.306 471.029C475.302 471.136 475.321 471.243 475.36 471.344C475.399 471.444 475.458 471.535 475.533 471.611C475.609 471.688 475.699 471.748 475.798 471.789C475.898 471.83 476.004 471.85 476.112 471.848L508.209 472.147C508.319 472.152 508.428 472.135 508.531 472.097C508.634 472.059 508.729 472.001 508.809 471.926C508.889 471.851 508.953 471.76 508.997 471.66C509.042 471.559 509.065 471.451 509.067 471.341H509.015ZM465.946 519.337C466.011 519.194 471.484 504.114 487.942 500.513C488.154 500.466 488.339 500.337 488.456 500.155C488.573 499.972 488.612 499.75 488.566 499.538C488.513 499.33 488.383 499.151 488.201 499.037C488.019 498.923 487.801 498.884 487.591 498.927C470.236 502.723 464.477 518.648 464.412 518.804C464.345 519.009 464.36 519.232 464.455 519.427C464.55 519.621 464.716 519.77 464.919 519.844H465.179C465.352 519.859 465.525 519.818 465.672 519.726C465.82 519.635 465.934 519.498 465.998 519.337H465.946Z" fill="#6695A0"/>
<path opacity="0.2" d="M508.495 390.637L505.336 338.078L508.495 390.637ZM498.498 407.979L478.53 362.778L498.498 407.979ZM550.03 394.836L502.177 401.7L550.03 394.836ZM488.15 432.341L462.241 399.1L488.15 432.341ZM492.7 422.149L528.398 423.943L492.7 422.149ZM484.25 447.642L511.55 450.346L484.25 447.642ZM477.659 463.84L464.1 443.443L477.659 463.84ZM476.099 471.042L508.196 471.341L476.099 471.042ZM469.599 531.258C469.814 531.241 470.014 531.141 470.155 530.977C470.296 530.814 470.367 530.602 470.353 530.387C468.312 499.733 480.168 449.527 499.187 408.317C511.342 381.979 558.987 330.213 559.494 329.693C559.647 329.539 559.733 329.331 559.733 329.114C559.733 328.898 559.647 328.69 559.494 328.536C559.419 328.461 559.33 328.401 559.232 328.36C559.133 328.319 559.028 328.298 558.922 328.298C558.816 328.298 558.71 328.319 558.612 328.36C558.514 328.401 558.425 328.461 558.35 328.536C557.869 329.056 510.029 381.017 497.77 407.589C478.4 449.8 466.7 499.096 468.78 530.491C468.796 530.698 468.889 530.891 469.041 531.033C469.192 531.175 469.391 531.255 469.599 531.258ZM508.482 391.443C508.697 391.43 508.898 391.332 509.041 391.171C509.185 391.011 509.26 390.8 509.249 390.585L506.142 338C506.137 337.893 506.111 337.788 506.065 337.691C506.019 337.594 505.954 337.508 505.874 337.436C505.794 337.365 505.701 337.31 505.599 337.275C505.498 337.24 505.391 337.226 505.284 337.233C505.069 337.246 504.868 337.344 504.724 337.505C504.581 337.665 504.506 337.876 504.517 338.091L507.676 390.65C507.686 390.857 507.775 391.052 507.925 391.195C508.075 391.338 508.275 391.417 508.482 391.417V391.443ZM498.784 408.72C498.979 408.632 499.131 408.471 499.209 408.272C499.287 408.073 499.283 407.851 499.2 407.654L479.219 362.453C479.133 362.256 478.972 362.102 478.772 362.024C478.572 361.946 478.349 361.951 478.153 362.037C477.956 362.123 477.802 362.284 477.724 362.484C477.646 362.684 477.651 362.906 477.737 363.103L497.705 408.304C497.768 408.449 497.871 408.573 498.002 408.661C498.134 408.748 498.288 408.796 498.446 408.798C498.58 408.805 498.714 408.778 498.836 408.72H498.784ZM502.242 402.48L550.069 395.642C550.184 395.64 550.298 395.613 550.402 395.563C550.507 395.514 550.6 395.443 550.675 395.355C550.75 395.267 550.805 395.165 550.838 395.054C550.87 394.943 550.879 394.826 550.863 394.712C550.848 394.597 550.808 394.488 550.747 394.39C550.686 394.292 550.604 394.208 550.509 394.143C550.413 394.079 550.304 394.035 550.19 394.016C550.076 393.996 549.96 394.001 549.848 394.03L502.021 400.868C501.807 400.882 501.608 400.98 501.466 401.141C501.325 401.302 501.253 401.512 501.267 401.726C501.281 401.94 501.379 402.139 501.54 402.281C501.701 402.422 501.911 402.494 502.125 402.48H502.242ZM488.605 432.991C488.775 432.858 488.885 432.663 488.912 432.448C488.939 432.234 488.88 432.018 488.748 431.847L462.826 398.541C462.693 398.369 462.497 398.256 462.282 398.228C462.066 398.2 461.848 398.259 461.675 398.391C461.503 398.524 461.39 398.72 461.362 398.936C461.334 399.152 461.393 399.37 461.526 399.542L487.5 432.9C487.575 432.997 487.672 433.076 487.782 433.13C487.893 433.184 488.014 433.212 488.137 433.212C488.331 433.202 488.515 433.124 488.657 432.991H488.605ZM529.113 423.982C529.12 423.767 529.042 423.558 528.896 423.4C528.75 423.241 528.548 423.147 528.333 423.137L492.7 421.33C492.5 421.344 492.311 421.431 492.171 421.574C492.031 421.717 491.948 421.907 491.938 422.108C491.928 422.308 491.993 422.505 492.119 422.662C492.245 422.818 492.424 422.922 492.622 422.955L528.32 424.762C528.535 424.769 528.744 424.691 528.902 424.545C529.06 424.399 529.155 424.197 529.165 423.982H529.113ZM512.304 450.424C512.316 450.317 512.307 450.209 512.277 450.105C512.248 450.002 512.197 449.905 512.129 449.822C512.061 449.738 511.977 449.669 511.882 449.618C511.787 449.568 511.683 449.537 511.576 449.527L484.276 446.836C484.17 446.825 484.063 446.836 483.961 446.866C483.859 446.897 483.764 446.948 483.682 447.016C483.6 447.083 483.532 447.167 483.482 447.261C483.432 447.355 483.402 447.458 483.392 447.564C483.374 447.777 483.44 447.989 483.576 448.154C483.712 448.32 483.907 448.425 484.12 448.448L511.42 451.152H511.498C511.708 451.167 511.915 451.098 512.075 450.962C512.235 450.826 512.336 450.633 512.356 450.424H512.304ZM478.049 464.516C478.229 464.397 478.355 464.211 478.399 463.999C478.443 463.787 478.401 463.566 478.283 463.385L464.789 442.988C464.665 442.812 464.479 442.691 464.268 442.65C464.057 442.609 463.838 442.651 463.658 442.767C463.477 442.886 463.351 443.072 463.308 443.284C463.264 443.496 463.306 443.717 463.424 443.898L476.918 464.295C476.995 464.407 477.098 464.498 477.218 464.561C477.338 464.625 477.471 464.658 477.607 464.659C477.783 464.669 477.957 464.618 478.101 464.516H478.049ZM509.015 471.341C509.012 471.127 508.926 470.923 508.776 470.77C508.626 470.617 508.423 470.529 508.209 470.522L476.112 470.223C475.898 470.223 475.693 470.308 475.542 470.459C475.391 470.61 475.306 470.815 475.306 471.029C475.302 471.136 475.321 471.243 475.36 471.344C475.399 471.444 475.458 471.535 475.533 471.611C475.609 471.688 475.699 471.748 475.798 471.789C475.898 471.83 476.004 471.85 476.112 471.848L508.209 472.147C508.319 472.152 508.428 472.135 508.531 472.097C508.634 472.059 508.729 472.001 508.809 471.926C508.889 471.851 508.953 471.76 508.997 471.66C509.042 471.559 509.065 471.451 509.067 471.341H509.015ZM465.946 519.337C466.011 519.194 471.484 504.114 487.942 500.513C488.154 500.466 488.339 500.337 488.456 500.155C488.573 499.972 488.612 499.75 488.566 499.538C488.513 499.33 488.383 499.151 488.201 499.037C488.019 498.923 487.801 498.884 487.591 498.927C470.236 502.723 464.477 518.648 464.412 518.804C464.345 519.009 464.36 519.232 464.455 519.427C464.55 519.621 464.716 519.77 464.919 519.844H465.179C465.352 519.859 465.525 519.818 465.672 519.726C465.82 519.635 465.934 519.498 465.998 519.337H465.946ZM469.599 531.258C469.814 531.241 470.014 531.141 470.155 530.977C470.296 530.814 470.367 530.602 470.353 530.387C468.312 499.733 480.168 449.527 499.187 408.317C511.342 381.979 558.987 330.213 559.494 329.693C559.647 329.539 559.733 329.331 559.733 329.114C559.733 328.898 559.647 328.69 559.494 328.536C559.419 328.461 559.33 328.401 559.232 328.36C559.133 328.319 559.028 328.298 558.922 328.298C558.816 328.298 558.71 328.319 558.612 328.36C558.514 328.401 558.425 328.461 558.35 328.536C557.869 329.056 510.029 381.017 497.77 407.589C478.4 449.8 466.7 499.096 468.78 530.491C468.796 530.698 468.889 530.891 469.041 531.033C469.192 531.175 469.391 531.255 469.599 531.258ZM508.482 391.443C508.697 391.43 508.898 391.332 509.041 391.171C509.185 391.011 509.26 390.8 509.249 390.585L506.142 338C506.137 337.893 506.111 337.788 506.065 337.691C506.019 337.594 505.954 337.508 505.874 337.436C505.794 337.365 505.701 337.31 505.599 337.275C505.498 337.24 505.391 337.226 505.284 337.233C505.069 337.246 504.868 337.344 504.724 337.505C504.581 337.665 504.506 337.876 504.517 338.091L507.676 390.65C507.686 390.857 507.775 391.052 507.925 391.195C508.075 391.338 508.275 391.417 508.482 391.417V391.443ZM498.784 408.72C498.979 408.632 499.131 408.471 499.209 408.272C499.287 408.073 499.283 407.851 499.2 407.654L479.219 362.453C479.133 362.256 478.972 362.102 478.772 362.024C478.572 361.946 478.349 361.951 478.153 362.037C477.956 362.123 477.802 362.284 477.724 362.484C477.646 362.684 477.651 362.906 477.737 363.103L497.705 408.304C497.768 408.449 497.871 408.573 498.002 408.661C498.134 408.748 498.288 408.796 498.446 408.798C498.58 408.805 498.714 408.778 498.836 408.72H498.784ZM502.242 402.48L550.069 395.642C550.184 395.64 550.298 395.613 550.402 395.563C550.507 395.514 550.6 395.443 550.675 395.355C550.75 395.267 550.805 395.165 550.838 395.054C550.87 394.943 550.879 394.826 550.863 394.712C550.848 394.597 550.808 394.488 550.747 394.39C550.686 394.292 550.604 394.208 550.509 394.143C550.413 394.079 550.304 394.035 550.19 394.016C550.076 393.996 549.96 394.001 549.848 394.03L502.021 400.868C501.807 400.882 501.608 400.98 501.466 401.141C501.325 401.302 501.253 401.512 501.267 401.726C501.281 401.94 501.379 402.139 501.54 402.281C501.701 402.422 501.911 402.494 502.125 402.48H502.242ZM488.605 432.991C488.775 432.858 488.885 432.663 488.912 432.448C488.939 432.234 488.88 432.018 488.748 431.847L462.826 398.541C462.76 398.456 462.678 398.384 462.585 398.33C462.491 398.277 462.388 398.242 462.282 398.228C462.175 398.214 462.066 398.221 461.962 398.249C461.858 398.278 461.761 398.326 461.675 398.391C461.59 398.457 461.518 398.539 461.465 398.632C461.411 398.726 461.376 398.829 461.362 398.936C461.348 399.043 461.356 399.151 461.384 399.255C461.412 399.359 461.46 399.457 461.526 399.542L487.5 432.9C487.575 432.997 487.672 433.076 487.782 433.13C487.893 433.184 488.014 433.212 488.137 433.212C488.331 433.202 488.515 433.124 488.657 432.991H488.605ZM529.113 423.982C529.12 423.767 529.042 423.558 528.896 423.4C528.75 423.241 528.548 423.147 528.333 423.137L492.7 421.33C492.5 421.344 492.311 421.431 492.171 421.574C492.031 421.717 491.948 421.907 491.938 422.108C491.928 422.308 491.993 422.505 492.119 422.662C492.245 422.818 492.424 422.922 492.622 422.955L528.32 424.762C528.535 424.769 528.744 424.691 528.902 424.545C529.06 424.399 529.155 424.197 529.165 423.982H529.113ZM512.304 450.424C512.316 450.317 512.307 450.209 512.277 450.105C512.248 450.002 512.197 449.905 512.129 449.822C512.061 449.738 511.977 449.669 511.882 449.618C511.787 449.568 511.683 449.537 511.576 449.527L484.276 446.836C484.17 446.825 484.063 446.836 483.961 446.866C483.859 446.897 483.764 446.948 483.682 447.016C483.6 447.083 483.532 447.167 483.482 447.261C483.432 447.355 483.402 447.458 483.392 447.564C483.374 447.777 483.44 447.989 483.576 448.154C483.712 448.32 483.907 448.425 484.12 448.448L511.42 451.152H511.498C511.708 451.167 511.915 451.098 512.075 450.962C512.235 450.826 512.336 450.633 512.356 450.424H512.304ZM478.049 464.516C478.229 464.397 478.355 464.211 478.399 463.999C478.443 463.787 478.401 463.566 478.283 463.385L464.789 442.988C464.665 442.812 464.479 442.691 464.268 442.65C464.057 442.609 463.838 442.651 463.658 442.767C463.477 442.886 463.351 443.072 463.308 443.284C463.264 443.496 463.306 443.717 463.424 443.898L476.918 464.295C476.995 464.407 477.098 464.498 477.218 464.561C477.338 464.625 477.471 464.658 477.607 464.659C477.783 464.669 477.957 464.618 478.101 464.516H478.049ZM509.015 471.341C509.012 471.127 508.926 470.923 508.776 470.77C508.626 470.617 508.423 470.529 508.209 470.522L476.112 470.223C475.898 470.223 475.693 470.308 475.542 470.459C475.391 470.61 475.306 470.815 475.306 471.029C475.302 471.136 475.321 471.243 475.36 471.344C475.399 471.444 475.458 471.535 475.533 471.611C475.609 471.688 475.699 471.748 475.798 471.789C475.898 471.83 476.004 471.85 476.112 471.848L508.209 472.147C508.319 472.152 508.428 472.135 508.531 472.097C508.634 472.059 508.729 472.001 508.809 471.926C508.889 471.851 508.953 471.76 508.997 471.66C509.042 471.559 509.065 471.451 509.067 471.341H509.015ZM465.946 519.337C466.011 519.194 471.484 504.114 487.942 500.513C488.154 500.466 488.339 500.337 488.456 500.155C488.573 499.972 488.612 499.75 488.566 499.538C488.513 499.33 488.383 499.151 488.201 499.037C488.019 498.923 487.801 498.884 487.591 498.927C470.236 502.723 464.477 518.648 464.412 518.804C464.345 519.009 464.36 519.232 464.455 519.427C464.55 519.621 464.716 519.77 464.919 519.844H465.179C465.352 519.859 465.525 519.818 465.672 519.726C465.82 519.635 465.934 519.498 465.998 519.337H465.946Z" fill="black"/>
<path d="M490.828 508.339H454.025V515.957H457.236L463.879 557.518H480.974L487.617 515.957H490.828V508.339Z" fill="#6695A0"/>
<path opacity="0.3" d="M490.828 508.339H454.025V515.957H457.236L463.879 557.518H480.974L487.617 515.957H490.828V508.339Z" fill="white"/>
<path d="M159.484 277.979L116.675 264.004L112.866 253.942L104.169 253.669L88.3867 250.679L90.2847 253.942L110.149 268.359L115.05 270.803L159.822 294.19L159.484 277.979Z" fill="white" stroke="#263238" stroke-width="1.00396" stroke-miterlimit="10"/>
<path d="M112.866 253.942L108.784 251.498L100.633 254.488L101.985 256.113L112.866 253.942Z" fill="white" stroke="#263238" stroke-width="1.00396" stroke-linejoin="round"/>
<path d="M159.484 277.979L116.675 264.004L112.866 253.942L104.169 253.669L88.3867 250.679L90.2847 253.942L110.149 268.359L115.05 270.803L159.822 294.19L159.484 277.979Z" fill="white"/>
<path opacity="0.5" d="M159.484 277.979L116.675 264.004L112.866 253.942L104.169 253.669L88.3867 250.679L90.2847 253.942L110.149 268.359L115.05 270.803L159.822 294.19L159.484 277.979Z" fill="#6695A0" stroke="#263238" stroke-width="1.00396" stroke-miterlimit="10"/>
<path d="M159.484 277.979L116.675 264.004L112.866 253.942L104.169 253.669L88.3867 250.679L90.2847 253.942L110.149 268.359L115.05 270.803L159.822 294.19L159.484 277.979Z" stroke="#263238" stroke-width="1.00396" stroke-miterlimit="10"/>
<path d="M112.866 253.942L108.784 251.498L100.633 254.488L101.985 256.113L112.866 253.942Z" fill="white"/>
<path opacity="0.5" d="M112.866 253.942L108.784 251.498L100.633 254.488L101.985 256.113L112.866 253.942Z" fill="#6695A0" stroke="#263238" stroke-width="1.00396" stroke-linejoin="round"/>
<path d="M112.866 253.942L108.784 251.498L100.633 254.488L101.985 256.113L112.866 253.942Z" stroke="#263238" stroke-width="1.00396" stroke-linejoin="round"/>
<path d="M168.57 187.278C168.57 187.278 167.907 193.128 169.558 196.885C171.209 200.642 180.374 213.369 180.374 213.369L163.266 227.084C163.266 227.084 156.168 212.784 154.816 210.47C153.464 208.156 151.839 198.198 156.246 191.061C160.653 183.924 166.997 182 168.57 187.278Z" fill="white"/>
<g style="mix-blend-mode:multiply" opacity="0.5">
<path d="M159.782 206.076L167.205 221.468L163.253 227.097L155.791 213.772L159.782 206.076Z" fill="#6695A0"/>
</g>
<path d="M168.57 187.278C168.57 187.278 167.907 193.128 169.558 196.885C171.209 200.642 180.374 213.369 180.374 213.369L163.266 227.084C163.266 227.084 156.168 212.784 154.816 210.47C153.464 208.156 151.839 198.198 156.246 191.061C160.653 183.924 166.997 182 168.57 187.278Z" stroke="#263238" stroke-width="1.00396" stroke-miterlimit="10"/>
<path d="M173.875 176.566C172.822 170.066 165.373 156.845 153.556 157.352C145.886 157.69 142.298 159.237 138.97 161.122C136.257 162.72 133.729 164.612 131.43 166.764C125.658 173.693 123.63 175.591 124.748 180.895C124.656 183.011 124.988 185.123 125.723 187.109C127.491 191.828 128.7 194.909 130.234 197.158C129.766 199.355 128.544 205.153 128.479 206.479C128.414 207.805 132.379 206.882 134.381 206.375C138.099 214.695 144.911 220.467 147.03 221.13C150.722 222.287 156.559 216.216 159.653 211.51C162.747 206.804 160.407 201.513 160.42 199.407C160.433 197.301 167.375 192.673 169.949 191.204C172.523 189.735 174.915 183.053 173.875 176.566Z" fill="white"/>
<g style="mix-blend-mode:multiply" opacity="0.5">
<path d="M124.799 180.895C124.708 183.011 125.039 185.123 125.774 187.109C127.542 191.828 128.751 194.909 130.285 197.158C129.817 199.355 128.595 205.153 128.53 206.479C128.465 207.805 132.43 206.882 134.432 206.375C138.15 214.695 144.962 220.467 147.081 221.13C150.773 222.287 156.61 216.216 159.704 211.51C160.477 210.335 160.979 209.003 161.173 207.61C161.004 206.999 160.887 206.622 160.887 206.622C160.887 206.622 159.145 213.317 155.687 212.446C152.229 211.575 146.938 204.646 143.987 202.254C141.036 199.862 142.245 196.716 141.66 193.154C141.075 189.592 132.339 186.459 131.754 184.418C131.169 182.377 133.21 173.927 133.21 173.927C133.21 173.927 136.525 169.507 135.81 171.327C135.305 172.905 135.122 174.569 135.271 176.219C135.421 177.869 135.901 179.473 136.681 180.934C137.229 182.087 138.099 183.058 139.185 183.729C140.271 184.4 141.528 184.743 142.804 184.717L145.976 169L139.281 163.462L131.481 166.712C125.657 173.693 123.668 175.591 124.799 180.895Z" fill="#6695A0"/>
</g>
<path d="M173.875 176.566C172.822 170.066 165.373 156.845 153.556 157.352C145.886 157.69 142.298 159.237 138.97 161.122C136.257 162.72 133.729 164.612 131.43 166.764C125.658 173.693 123.63 175.591 124.748 180.895C124.656 183.011 124.988 185.123 125.723 187.109C127.491 191.828 128.7 194.909 130.234 197.158C129.766 199.355 128.544 205.153 128.479 206.479C128.414 207.805 132.379 206.882 134.381 206.375C138.099 214.695 144.911 220.467 147.03 221.13C150.722 222.287 156.559 216.216 159.653 211.51C162.747 206.804 160.407 201.513 160.42 199.407C160.433 197.301 167.375 192.673 169.949 191.204C172.523 189.735 174.915 183.053 173.875 176.566Z" stroke="#263238" stroke-miterlimit="10"/>
<path d="M131.846 193.232L133.146 196.95C133.146 196.95 135.941 197.873 139.347 194.155" stroke="#263238" stroke-miterlimit="10" stroke-linecap="round"/>
<path d="M141.453 210.6C141.453 210.6 144.547 210.288 145.795 205.946" stroke="#263238" stroke-miterlimit="10" stroke-linecap="round"/>
<path d="M129.674 190.125C129.674 190.125 130.597 187.33 136.174 187.33" stroke="#263238" stroke-miterlimit="10" stroke-linecap="round"/>
<path d="M158.261 152.178C154.208 151.595 150.122 151.283 146.028 151.242C146.028 151.242 133.782 144.183 122.017 151.71C110.252 159.237 115.907 172.419 115.907 175.708C115.907 178.997 112.137 179.01 114.49 183.248C116.843 187.486 124.799 185.146 124.799 185.146C124.883 183.548 125.305 181.985 126.038 180.562C126.771 179.139 127.797 177.888 129.05 176.891C133.288 173.602 136.668 172.887 138.072 173.836C138.072 173.836 137.136 180.895 138.54 183.716C138.54 183.716 143.246 186.069 144.663 186.069C146.08 186.069 143.74 188.058 148.433 189.826C149.288 190.133 150.202 190.238 151.105 190.132C152.007 190.026 152.872 189.712 153.633 189.215C154.322 186.355 155.83 182.052 158.638 183.053C162.759 184.522 166.516 194.662 160.939 198.12C167.647 199.342 175.772 187.473 176.253 176.657C176.734 165.841 165.229 153.4 158.261 152.178Z" fill="#263238"/>
<path d="M138.281 169.195C138.281 169.195 141.739 167.336 145.977 171.314C150.215 175.292 158.457 180.609 169.377 177.684" stroke="white" stroke-width="0.5" stroke-linecap="round" stroke-linejoin="round"/>
<path d="M137.799 166.01C137.799 166.01 140.178 162.292 144.156 162.292C148.134 162.292 157.429 167.869 164.852 167.869" stroke="white" stroke-width="0.5" stroke-linecap="round" stroke-linejoin="round"/>
<path d="M135.095 173.173C135.095 173.173 130.584 167.609 126.346 172.12C122.108 176.631 124.799 180.895 124.799 180.895" stroke="white" stroke-width="0.5" stroke-linecap="round" stroke-linejoin="round"/>
<path d="M117.064 176.891C119.649 174.56 121.256 171.337 121.562 167.869C122.095 162.032 130.064 156.988 135.095 161.772" stroke="white" stroke-width="0.5" stroke-linecap="round" stroke-linejoin="round"/>
<path d="M125.281 155.662C125.281 155.662 133.25 147.966 139.88 157.781" stroke="white" stroke-width="0.5" stroke-linecap="round" stroke-linejoin="round"/>
<path d="M190.137 534.053C190.137 534.053 195.038 541.671 194.492 546.572L193.959 551.473C193.959 551.473 175.98 556.4 172.171 556.4C168.362 556.4 148.199 554.489 148.199 554.489L147.328 551.031C147.267 550.776 147.296 550.507 147.41 550.27C147.523 550.034 147.715 549.843 147.952 549.731L165.931 541.346L171.599 535.145L190.137 534.053Z" fill="white" stroke="#263238" stroke-width="1.00396" stroke-miterlimit="10"/>
<path d="M174.902 552.565C179.777 552.942 189.033 549.965 194.402 548.067L194.025 551.473C194.025 551.473 175.981 556.4 172.172 556.4C168.363 556.4 148.2 554.489 148.2 554.489L147.576 552.019C150.8 552.032 168.454 552.071 174.902 552.565Z" fill="#6695A0" stroke="#263238" stroke-width="1.00396" stroke-miterlimit="10"/>
<path d="M165.958 541.346L139.789 552.734C139.789 552.734 137.553 558.337 139.789 559.455C142.025 560.573 190.775 559.455 190.775 559.455C190.775 559.455 194.142 550.602 188.825 544.661C183.508 538.72 165.958 541.346 165.958 541.346Z" fill="white" stroke="#263238" stroke-width="1.00396" stroke-miterlimit="10"/>
<path d="M190.775 559.455C190.775 559.455 142.025 560.573 139.789 559.455C138.71 558.909 138.671 557.336 138.918 555.841H191.633C191.461 557.07 191.173 558.28 190.775 559.455Z" fill="#6695A0" stroke="#263238" stroke-width="1.00396" stroke-miterlimit="10"/>
<path d="M153.582 343.473C153.582 343.473 146.744 373.776 144.157 392.73C141.57 411.684 140.049 449.657 140.595 454.012C141.141 458.367 168.363 531.336 168.363 531.336L171.08 537.836L190.138 534.027C190.138 534.027 181.428 506.259 178.165 491.01C174.902 475.761 167.765 450.71 167.765 446.355C167.765 442 184.665 358.826 185.874 353.366C187.083 347.906 192.569 339.521 192.569 339.521L156.078 338.78L153.582 343.473Z" fill="#6695A0" stroke="#263238" stroke-width="1.00396" stroke-miterlimit="10"/>
<path d="M153.582 343.473C153.582 343.473 149.578 371.15 151.229 390.39C152.88 409.63 156.429 450.593 156.429 456.69C156.429 462.787 166.27 499.2 166.829 510.64C167.7 527.163 166.478 535.34 166.478 535.34L165.893 541.333C165.893 541.333 177.372 542.971 179.881 543.686C182.779 544.433 185.77 544.757 188.76 544.648C188.76 544.648 192.933 526.279 192.933 510.627C192.933 494.975 189.462 462.761 187.733 449.709C186.004 436.657 191.451 386.308 194.545 376.909C197.639 367.51 204.399 347.607 199.849 337.441C195.299 327.275 153.582 343.473 153.582 343.473Z" fill="#6695A0" stroke="#263238" stroke-width="1.00396" stroke-miterlimit="10"/>
<path d="M204.905 332.345L204.489 344.721C204.489 344.721 197.079 346.19 187.095 347.919C178.853 349.349 158.157 347.542 151.189 346.866C150.554 346.81 149.967 346.505 149.555 346.018C149.144 345.531 148.942 344.902 148.992 344.266L149.668 333.086L204.905 332.345Z" fill="#263238"/>
<path d="M175.942 208.975C175.942 208.975 164.242 221.624 159.835 229.489C155.428 237.354 153.686 249.405 152.035 258.895C150.384 268.385 154.856 290.667 153.595 300.898L149.604 333.125C149.604 333.125 148.746 335.309 151.619 337.701C154.492 340.093 168.519 340.964 181.194 341.601C185.822 341.835 199.641 338.858 201.903 338.715C204.633 338.546 204.724 335.075 204.841 332.345C205.387 319.514 207.701 285.311 209.222 270.413C212.355 240.032 195.208 210.704 175.942 208.975Z" fill="white" stroke="#263238" stroke-width="1.00396" stroke-miterlimit="10"/>
<g style="mix-blend-mode:multiply">
<path d="M207.792 287.69C208.312 280.943 208.832 274.82 209.287 270.413C209.417 269.113 209.495 267.813 209.56 266.513L178.477 271.713L151.775 262.613C151.778 268.138 152.091 273.659 152.711 279.149L178.906 286.481L207.792 287.69Z" fill="#6695A0"/>
</g>
<g style="mix-blend-mode:multiply">
<path d="M174.785 210.249C173.017 212.212 169.507 216.203 166.166 220.441L185.9 240.5L192.4 237.9L174.785 210.249Z" fill="#6695A0"/>
</g>
<path d="M175.942 208.975C175.942 208.975 164.242 221.624 159.835 229.489C158.528 231.879 157.469 234.397 156.676 237.003L180.206 209.82C178.816 209.399 177.387 209.116 175.942 208.975Z" fill="#263238"/>
<g style="mix-blend-mode:multiply">
<path d="M152.945 253.773L178.477 262.171L209.482 258.609C208.996 250.885 207.28 243.289 204.399 236.106L179.4 246.129L157.053 236.002C155.226 241.81 153.853 247.752 152.945 253.773Z" fill="#6695A0"/>
</g>
<g style="mix-blend-mode:multiply">
<path d="M196.898 319.514C183.949 321.688 170.661 320.603 158.236 316.355L152.009 314.223L150.072 329.823L157.17 331.812C170.664 335.585 184.767 336.671 198.679 335.01L204.412 334.321C204.711 333.689 204.879 333.004 204.906 332.306C205.062 328.835 205.335 323.791 205.686 318.006L196.898 319.514Z" fill="#6695A0"/>
</g>
<g style="mix-blend-mode:multiply">
<path d="M200.368 298.272C187.418 300.455 174.128 299.364 161.706 295.1L153.776 292.383C153.973 295.215 153.934 298.059 153.659 300.885L152.736 308.386L160.64 310.596C174.129 314.373 188.228 315.464 202.136 313.807L206.036 313.339C206.361 308.139 206.738 302.601 207.141 297.128L200.368 298.272Z" fill="#6695A0"/>
</g>
<path d="M78.405 243.298L103.541 263.507L104.624 262.16L79.4884 241.95L78.405 243.298Z" fill="#263238"/>
<path d="M188.045 223.002C188.045 223.002 197.262 229.281 197.47 244.114C197.561 250.614 196.885 256.685 195.39 267.332C193.895 277.979 184.613 312.65 177.385 316.862C170.157 321.074 158.938 313.118 158.938 313.118L104.676 277.095L91.5586 266.5L85.0586 254.228L87.0996 250.328L103.103 262.6L94.4836 254.631L96.1736 252.486L99.2936 254.657L108.394 258.063L110.383 271.063L113.191 272.987L165.1 291.954C165.1 291.954 164.45 264.017 164.931 258.674C165.412 253.331 166.075 239.902 171.795 230.165" fill="white"/>
<g style="mix-blend-mode:multiply" opacity="0.5">
<path d="M164.735 270.842C164.735 280.488 165.06 291.954 165.06 291.954L113.203 273.065L110.395 271.141L108.406 258.141L99.3061 254.735L96.1991 252.525L94.5091 254.67L103.102 262.6L87.0991 250.328L85.1621 254.163L91.6621 266.435L104.779 277.095L108.081 279.292L179.776 302.393L164.735 270.842Z" fill="#6695A0"/>
</g>
<path d="M188.045 223.002C188.045 223.002 197.262 229.281 197.47 244.114C197.561 250.614 196.885 256.685 195.39 267.332C193.895 277.979 184.613 312.65 177.385 316.862C170.157 321.074 158.938 313.118 158.938 313.118L104.676 277.095L91.5586 266.5L85.0586 254.228L87.0996 250.328L103.103 262.6L94.4836 254.631L96.1736 252.486L99.2936 254.657L108.394 258.063L110.383 271.063L113.191 272.987L165.1 291.954C165.1 291.954 164.45 264.017 164.931 258.674C165.412 253.331 166.075 239.902 171.795 230.165" stroke="#263238" stroke-width="1.00396" stroke-miterlimit="10"/>
<path d="M165.099 291.954L184.911 306.254L190.046 297.154C190.046 297.154 193.595 294.359 194.115 292.253C194.635 290.147 193.972 286.728 194.505 284.622C195.038 282.516 197.69 280.54 197.937 275.444C198.184 270.348 197.937 266.097 197.937 266.097C197.937 266.097 202.227 248.456 201.759 240.786C201.291 233.116 193.894 219.557 187.966 219.258C182.038 218.959 174.329 219.856 168.349 228.904C162.369 237.952 163.591 264.368 162.655 266.019C161.719 267.67 163.019 275.821 163.019 275.821C162.499 276.209 162.068 276.702 161.754 277.269C161.441 277.837 161.251 278.464 161.199 279.11C161.095 281.229 163.383 286.442 163.383 286.442L165.099 291.954Z" fill="white" stroke="#263238" stroke-width="1.00396" stroke-miterlimit="10"/>
<g style="mix-blend-mode:multiply">
<path d="M163.175 259.233C163.216 261.502 163.046 263.769 162.668 266.006C161.836 267.488 162.785 274.183 162.993 275.548C174.136 279.009 185.92 279.898 197.456 278.148C197.704 277.244 197.852 276.315 197.898 275.379C198.158 270.296 197.898 266.032 197.898 266.032C197.898 266.032 198.275 264.459 198.795 262.067C186.847 262.826 174.852 261.872 163.175 259.233Z" fill="#6695A0"/>
</g>
<g style="mix-blend-mode:multiply">
<path d="M167.544 230.347C165.685 234.078 164.645 239.681 164.047 245.362C175.848 249.866 188.573 251.415 201.11 249.873C201.61 246.867 201.832 243.82 201.773 240.773C201.548 238.364 200.979 236 200.083 233.753C189.136 234.009 178.201 232.864 167.544 230.347Z" fill="#6695A0"/>
</g>
<path d="M163.383 286.585L165.06 291.954L184.872 306.254L190.007 297.154C190.007 297.154 193.556 294.359 194.076 292.253C194.169 291.887 194.225 291.512 194.245 291.135C183.804 290.955 173.431 289.425 163.383 286.585Z" fill="#263238"/>
<path d="M177.723 543.517C177.723 543.517 178.165 532.259 180.323 515.801C182.481 499.343 177.294 475.969 176.423 472.069C175.552 468.169 176.865 459.511 175.994 456.469C175.123 453.427 170.911 440.453 173.394 425.399C175.877 410.345 177.892 370.552 177.892 370.552C177.892 370.552 171.639 365.469 169.806 358.852C167.973 352.235 169.377 350.155 169.377 350.155" stroke="#263238" stroke-width="1.00396" stroke-miterlimit="10"/>
<path d="M180.622 350.766L178.217 364.078" stroke="#263238" stroke-width="1.00396" stroke-miterlimit="10"/>
</svg>
