<svg width="1036" height="651" viewBox="0 0 1036 651" fill="none" xmlns="http://www.w3.org/2000/svg">
<path d="M0 10.1913C0 4.66844 4.47715 0.191284 10 0.191284H1026C1031.52 0.191284 1036 4.66844 1036 10.1913V640.191C1036 645.714 1031.52 650.191 1026 650.191H9.99999C4.47714 650.191 0 645.714 0 640.191V10.1913Z" fill="#2C302A" fill-opacity="0.6"/>
<path d="M0 10.1913C0 4.66844 4.47715 0.191284 10 0.191284H1026C1031.52 0.191284 1036 4.66844 1036 10.1913V640.191C1036 645.714 1031.52 650.191 1026 650.191H9.99999C4.47714 650.191 0 645.714 0 640.191V10.1913Z" stroke="black"/>
</svg>
