<svg width="132" height="23" viewBox="0 0 132 23" fill="none" xmlns="http://www.w3.org/2000/svg">
<path d="M9.58704 11.856C10.2761 11.9724 10.9017 12.273 11.4638 12.758C12.0441 13.2429 12.4974 13.8442 12.8238 14.5619C13.1684 15.2796 13.3406 16.0458 13.3406 16.8605C13.3406 17.8885 13.0958 18.8196 12.6062 19.6537C12.1166 20.4684 11.4004 21.1182 10.4574 21.6031C9.53264 22.0686 8.43557 22.3014 7.16624 22.3014H0.0942383V2.02156H6.89424C8.1817 2.02156 9.27877 2.25434 10.1854 2.71987C11.0921 3.16601 11.7721 3.77702 12.2254 4.55291C12.6788 5.3288 12.9054 6.20167 12.9054 7.17154C12.9054 8.37417 12.5972 9.37313 11.9806 10.1684C11.3822 10.9443 10.5844 11.5068 9.58704 11.856ZM2.56944 10.7794H6.73104C7.89157 10.7794 8.78917 10.4885 9.42384 9.90655C10.0585 9.32464 10.3758 8.51965 10.3758 7.4916C10.3758 6.46354 10.0585 5.65856 9.42384 5.07664C8.78917 4.49472 7.87344 4.20376 6.67664 4.20376H2.56944V10.7794ZM6.94864 20.1192C8.1817 20.1192 9.14277 19.8088 9.83184 19.1881C10.5209 18.5674 10.8654 17.7043 10.8654 16.5986C10.8654 15.4736 10.5028 14.591 9.77744 13.9509C9.0521 13.2914 8.08197 12.9616 6.86704 12.9616H2.56944V20.1192H6.94864ZM18.3252 8.94639C18.7604 8.03472 19.3769 7.32672 20.1748 6.82239C20.9908 6.31806 21.9791 6.0659 23.1396 6.0659V8.80091H22.4868C19.7124 8.80091 18.3252 10.4109 18.3252 13.6308V22.3014H15.85V6.35686H18.3252V8.94639ZM31.572 22.5633C30.1758 22.5633 28.9064 22.2238 27.764 21.5449C26.6398 20.866 25.7512 19.9058 25.0984 18.6644C24.4638 17.4036 24.1464 15.9488 24.1464 14.3C24.1464 12.6707 24.4728 11.2353 25.1256 9.99384C25.7966 8.73302 26.7032 7.77285 27.8456 7.11335C28.988 6.43444 30.2664 6.09499 31.6808 6.09499C33.0952 6.09499 34.3736 6.43444 35.516 7.11335C36.6584 7.77285 37.556 8.72332 38.2088 9.96474C38.8798 11.2062 39.2152 12.6513 39.2152 14.3C39.2152 15.9488 38.8707 17.4036 38.1816 18.6644C37.5107 19.9058 36.595 20.866 35.4344 21.5449C34.2739 22.2238 32.9864 22.5633 31.572 22.5633ZM31.572 20.2356C32.4606 20.2356 33.2947 20.0125 34.0744 19.5664C34.8542 19.1202 35.4798 18.451 35.9512 17.5588C36.4408 16.6665 36.6856 15.5802 36.6856 14.3C36.6856 13.0198 36.4499 11.9336 35.9784 11.0413C35.507 10.149 34.8904 9.48951 34.1288 9.06277C33.3672 8.61664 32.5422 8.39357 31.6536 8.39357C30.747 8.39357 29.9128 8.61664 29.1512 9.06277C28.4078 9.48951 27.8094 10.149 27.356 11.0413C26.9027 11.9336 26.676 13.0198 26.676 14.3C26.676 15.5996 26.8936 16.6956 27.3288 17.5879C27.7822 18.4801 28.3806 19.1493 29.124 19.5955C29.8675 20.0222 30.6835 20.2356 31.572 20.2356ZM61.4002 6.35686L56.749 22.3014H54.1922L50.6018 9.64469L47.0114 22.3014H44.4546L39.7762 6.35686H42.3058L45.733 19.741L49.4322 6.35686H51.9618L55.5794 19.7701L58.9522 6.35686H61.4002ZM68.2079 22.5633C67.0655 22.5633 66.0409 22.3596 65.1343 21.9522C64.2276 21.5255 63.5113 20.9436 62.9855 20.2065C62.4596 19.45 62.1695 18.5868 62.1151 17.617H64.6719C64.7444 18.4122 65.0889 19.0621 65.7055 19.5664C66.3401 20.0707 67.1652 20.3229 68.1807 20.3229C69.1236 20.3229 69.8671 20.0998 70.4111 19.6537C70.9551 19.2075 71.2271 18.645 71.2271 17.9661C71.2271 17.2678 70.9369 16.7538 70.3567 16.424C69.7764 16.0749 68.8788 15.7354 67.6639 15.4057C66.5577 15.0953 65.6511 14.785 64.9439 14.4746C64.2548 14.1449 63.6564 13.6696 63.1487 13.0489C62.6591 12.4088 62.4143 11.5747 62.4143 10.5467C62.4143 9.73198 62.6409 8.98518 63.0943 8.30628C63.5476 7.62737 64.1913 7.09395 65.0255 6.70601C65.8596 6.29866 66.8116 6.09499 67.8815 6.09499C69.5316 6.09499 70.8644 6.54112 71.8799 7.4334C72.8953 8.32567 73.4393 9.5477 73.5119 11.0995H71.0367C70.9823 10.2654 70.6649 9.59619 70.0847 9.09187C69.5225 8.58754 68.7609 8.33537 67.7999 8.33537C66.9113 8.33537 66.2041 8.53904 65.6783 8.94639C65.1524 9.35373 64.8895 9.88716 64.8895 10.5467C64.8895 11.0704 65.0436 11.5068 65.3519 11.856C65.6783 12.1857 66.0772 12.4573 66.5487 12.6707C67.0383 12.8646 67.7092 13.0877 68.5615 13.3399C69.6313 13.6502 70.5017 13.9606 71.1727 14.2709C71.8436 14.5619 72.4148 15.008 72.8863 15.6093C73.3759 16.2107 73.6297 16.9963 73.6479 17.9661C73.6479 18.839 73.4212 19.6246 72.9679 20.3229C72.5145 21.0212 71.8708 21.574 71.0367 21.9813C70.2207 22.3693 69.2777 22.5633 68.2079 22.5633ZM89.8165 13.7181C89.8165 14.2224 89.7893 14.7559 89.7349 15.3184H77.8213C77.9119 16.8896 78.4106 18.1213 79.3173 19.0136C80.2421 19.8864 81.3573 20.3229 82.6629 20.3229C83.7327 20.3229 84.6213 20.061 85.3285 19.5373C86.0538 18.9942 86.5615 18.2765 86.8517 17.3842H89.5173C89.1183 18.9166 88.3204 20.1677 87.1236 21.1376C85.9268 22.088 84.4399 22.5633 82.6629 22.5633C81.2485 22.5633 79.9791 22.2238 78.8549 21.5449C77.7487 20.866 76.8783 19.9058 76.2437 18.6644C75.609 17.4036 75.2916 15.9488 75.2916 14.3C75.2916 12.6513 75.5999 11.2062 76.2165 9.96474C76.833 8.72332 77.6943 7.77285 78.8005 7.11335C79.9247 6.43444 81.2122 6.09499 82.6629 6.09499C84.0773 6.09499 85.3285 6.42474 86.4165 7.08425C87.5045 7.74376 88.3386 8.65543 88.9189 9.81926C89.5173 10.9637 89.8165 12.2633 89.8165 13.7181ZM87.2597 13.1653C87.2597 12.1566 87.0511 11.2935 86.634 10.5758C86.217 9.83866 85.6458 9.28584 84.9205 8.91729C84.2132 8.52935 83.4245 8.33537 82.5541 8.33537C81.3029 8.33537 80.233 8.76211 79.3445 9.61559C78.4741 10.4691 77.9754 11.6523 77.8484 13.1653H87.2597ZM104.55 8.53905H101.422V22.3014H98.9464V8.53905H97.0152V6.35686H98.9464V5.22211C98.9464 3.43756 99.3726 2.13795 100.225 1.32326C101.095 0.489182 102.482 0.0721436 104.386 0.0721436V2.28343C103.298 2.28343 102.528 2.5162 102.074 2.98173C101.639 3.42787 101.422 4.17466 101.422 5.22211V6.35686H104.55V8.53905ZM107.789 3.76732C107.317 3.76732 106.918 3.59274 106.592 3.24359C106.265 2.89444 106.102 2.4677 106.102 1.96337C106.102 1.45904 106.265 1.03231 106.592 0.683155C106.918 0.334004 107.317 0.159426 107.789 0.159426C108.242 0.159426 108.623 0.334004 108.931 0.683155C109.257 1.03231 109.421 1.45904 109.421 1.96337C109.421 2.4677 109.257 2.89444 108.931 3.24359C108.623 3.59274 108.242 3.76732 107.789 3.76732ZM108.985 6.35686V22.3014H106.51V6.35686H108.985ZM114.754 0.770444V22.3014H112.278V0.770444H114.754ZM131.646 13.7181C131.646 14.2224 131.619 14.7559 131.565 15.3184H119.651C119.742 16.8896 120.241 18.1213 121.147 19.0136C122.072 19.8864 123.187 20.3229 124.493 20.3229C125.563 20.3229 126.451 20.061 127.158 19.5373C127.884 18.9942 128.391 18.2765 128.682 17.3842H131.347C130.948 18.9166 130.15 20.1677 128.954 21.1376C127.757 22.088 126.27 22.5633 124.493 22.5633C123.078 22.5633 121.809 22.2238 120.685 21.5449C119.579 20.866 118.708 19.9058 118.074 18.6644C117.439 17.4036 117.122 15.9488 117.122 14.3C117.122 12.6513 117.43 11.2062 118.046 9.96474C118.663 8.72332 119.524 7.77285 120.63 7.11335C121.755 6.43444 123.042 6.09499 124.493 6.09499C125.907 6.09499 127.158 6.42474 128.246 7.08425C129.334 7.74376 130.169 8.65543 130.749 9.81926C131.347 10.9637 131.646 12.2633 131.646 13.7181ZM129.09 13.1653C129.09 12.1566 128.881 11.2935 128.464 10.5758C128.047 9.83866 127.476 9.28584 126.75 8.91729C126.043 8.52935 125.254 8.33537 124.384 8.33537C123.133 8.33537 122.063 8.76211 121.174 9.61559C120.304 10.4691 119.805 11.6523 119.678 13.1653H129.09Z" fill="#7C7C7C"/>
</svg>
