<svg width="30" height="30" viewBox="0 0 30 30" fill="none" xmlns="http://www.w3.org/2000/svg">
<path d="M25.95 3.45C25.35 2.85 24.3 2.85 23.55 3.45L19.95 7.05C18.3656 6.46185 16.69 6.1572 15 6.15C9.3 6.3 4.2 9.3 1.5 14.25C1.8 14.85 2.25 15.45 2.7 16.05C3.9 17.7 5.4 19.05 7.05 20.1L4.5 22.65C3.9 23.25 3.75 24.3 4.5 25.05C5.1 25.65 6.15 25.8 6.9 25.05L25.95 5.85C26.55 5.1 26.55 4.05 25.95 3.45ZM10.05 16.95L8.1 18.9C6.3 17.85 4.65 16.35 3.45 14.55C5.25 12 7.65 10.2 10.5 9.3C8.55 11.4 8.4 14.7 10.05 16.95ZM15.15 12C14.4 11.25 14.55 10.05 15.3 9.3C16.05 8.7 17.1 8.7 17.85 9.3L15.15 12ZM27.45 12.75C26.7 11.7 25.8 10.65 24.75 9.9L23.25 11.4C24.45 12.3 25.5 13.35 26.4 14.7C23.85 18.6 19.5 21 14.85 21H13.65L12.15 22.5C13.2 22.35 14.1 22.5 15 22.5C19.95 22.5 24.6 20.1 27.45 16.05C27.9 15.45 28.2 14.85 28.65 14.25C28.2 13.8 27.9 13.2 27.45 12.75ZM21 13.5L15 19.5C18.3 19.5 21 16.8 21 13.5Z" fill="#A8A8A9"/>
</svg>
